<?xml version="1.0" standalone="no"?>
<!DOCTYPE svg PUBLIC "-//W3C//DTD SVG 1.1//EN" "http://www.w3.org/Graphics/SVG/1.1/DTD/svg11.dtd" >
<svg>
<metadata>
Created by FontForge 20090914 at Sun May 20 11:01:55 2018
 By www-data
Copyright 2014 The Nunito Project Authors (contact@sansoxygen.com)
</metadata>
<defs>
<font id="Nunito-ExtraLight" horiz-adv-x="600" >
  <font-face 
    font-family="Nunito ExtraLight"
    font-weight="275"
    font-stretch="normal"
    units-per-em="1000"
    panose-1="0 0 3 0 0 0 0 0 0 0"
    ascent="800"
    descent="-200"
    x-height="484"
    cap-height="710"
    bbox="-327.001 -275 1255 1079"
    underline-thickness="50"
    underline-position="-50"
    unicode-range="U+000D-U+FB02"
  />
<missing-glyph horiz-adv-x="443" 
d="M363 705v-885h-281v885h281zM295 646h-146v-29h57v-33h-58v-29h147v29h-59v33h59v29zM236 532h-88v-92h147v30h-59v62zM206 501v-31h-29v31h29zM295 416h-147v-30h58v-32h-58v-30h88v62h59v30zM295 363h-29v-59h-118v-30h147v89zM295 255h-89v-50h30v20h30v-41h-89v71
h-29v-100h147v100zM295 101h-147v-100h147v100zM266 72v-41h-89v41h89zM295 -19h-147v-29h62l-62 -42v-29h147v29h-91l62 42h29v29z" />
    <glyph glyph-name="fi" unicode="fi" horiz-adv-x="512" 
d="M422 478.5c3.33301 -3.66699 5.00293 -8.16699 5.00293 -13.5v-447c0 -7.33301 -1.83301 -13 -5.5 -17s-8.83398 -6 -15.501 -6s-11.834 2 -15.501 6s-5.5 9.66699 -5.5 17v430h-238v-430c0 -6.66699 -2 -12.167 -6 -16.5s-9 -6.5 -15 -6.5
c-6.66699 0 -11.834 2 -15.501 6s-5.5 9.66699 -5.5 17v430h-83c-4.66699 0 -8.66699 1.66699 -12 5s-5 7.33301 -5 12c0 5.33301 1.66699 9.83301 5 13.5s7.33301 5.5 12 5.5h83v30c0 57.333 13.5 102.333 40.5 135s66.833 51 119.5 55l26 2h8c14.667 0 22 -5.66699 22 -17
c0 -5.33301 -1.66699 -9.83301 -5 -13.5s-9.66602 -5.83398 -18.999 -6.50098l-27 -2c-40 -3.33301 -70.5 -16.166 -91.5 -38.499s-31.5 -56.833 -31.5 -103.5v-41h262c5.33301 0 9.66602 -1.83301 12.999 -5.5zM431.503 677c7 -6.66699 10.5 -15.667 10.5 -27
c0 -10.667 -3.5 -19.334 -10.5 -26.001s-15.5 -10 -25.5 -10c-10.667 0 -19.5 3.33301 -26.5 10s-10.5 15.334 -10.5 26.001c0 11.333 3.5 20.333 10.5 27s15.833 10 26.5 10c10 0 18.5 -3.33301 25.5 -10z" />
    <glyph glyph-name="fl" unicode="fl" horiz-adv-x="514" 
d="M178.5 628.5c-21 -22.333 -31.499 -56.834 -31.499 -103.501v-41h133c4.66699 0 8.66699 -1.83301 12 -5.5s5 -8.16699 5 -13.5c0 -4.66699 -1.5 -8.66699 -4.5 -12s-7.16699 -5 -12.5 -5h-133v-430c0 -6.66699 -2 -12.167 -6 -16.5s-9 -6.5 -15 -6.5
c-6.66699 0 -11.834 2 -15.501 6s-5.5 9.66699 -5.5 17v430h-83c-4.66699 0 -8.66699 1.66699 -12 5s-5 7.33301 -5 12c0 5.33301 1.66699 9.83301 5 13.5s7.33301 5.5 12 5.5h83v29c0 58 13.5 103.333 40.5 136s66.833 51 119.5 55l26 2h8c13.333 0 20 -5.66699 20 -17
c0 -12 -7.66699 -18.667 -23 -20l-26 -2c-40 -3.33301 -70.5 -16.166 -91.5 -38.499zM392.501 0.999023c-3.66699 4 -5.5 9.66699 -5.5 17v669c0 7.33301 1.83301 13 5.5 17s8.83398 6 15.501 6c6 0 11 -2.16699 15 -6.5s6 -9.83301 6 -16.5v-669
c0 -6.66699 -2 -12.167 -6 -16.5s-9 -6.5 -15 -6.5c-6.66699 0 -11.834 2 -15.501 6z" />
    <glyph glyph-name=".notdef" horiz-adv-x="443" 
d="M363 705v-885h-281v885h281zM295 646h-146v-29h57v-33h-58v-29h147v29h-59v33h59v29zM236 532h-88v-92h147v30h-59v62zM206 501v-31h-29v31h29zM295 416h-147v-30h58v-32h-58v-30h88v62h59v30zM295 363h-29v-59h-118v-30h147v89zM295 255h-89v-50h30v20h30v-41h-89v71
h-29v-100h147v100zM295 101h-147v-100h147v100zM266 72v-41h-89v41h89zM295 -19h-147v-29h62l-62 -42v-29h147v29h-91l62 42h29v29z" />
    <glyph glyph-name="NULL" horiz-adv-x="0" 
 />
    <glyph glyph-name="NULL" horiz-adv-x="0" 
 />
    <glyph glyph-name="nonmarkingreturn" unicode="&#xd;" horiz-adv-x="246" 
 />
    <glyph glyph-name="space" unicode=" " horiz-adv-x="246" 
 />
    <glyph glyph-name="exclam" unicode="!" horiz-adv-x="212" 
d="M95 162c-2.66699 3.33301 -3.66699 7.33301 -3 12l-13 511c0 7.33301 2.5 13.333 7.5 18s11.167 7 18.5 7s13.5 -2.33301 18.5 -7s7.5 -10.667 7.5 -18l-12 -511c0 -5.33301 -1.33301 -9.5 -4 -12.5s-6 -4.5 -10 -4.5s-7.33301 1.66699 -10 5zM78 6
c-7.33301 7.33301 -11 17 -11 29s3.66699 21.667 11 29s16.666 11 27.999 11c10.667 0 19.667 -3.66699 27 -11s11 -17 11 -29s-3.66699 -21.667 -11 -29s-16.333 -11 -27 -11c-11.333 0 -20.666 3.66699 -27.999 11z" />
    <glyph glyph-name="quotedbl" unicode="&#x22;" horiz-adv-x="395" 
d="M92 439.5c-2.66699 3 -3.99805 6.83301 -3.99805 11.5l-13 228c-0.666992 10 1.66602 17.667 6.99902 23s11.666 8 18.999 8c8 0 14.5 -2.66699 19.5 -8s7.5 -13 7.5 -23l-12 -228c0 -4.66699 -1.33301 -8.5 -4 -11.5s-6 -4.5 -10 -4.5s-7.33301 1.5 -10 4.5z
M285.002 439.5c-2.66699 3 -3.99805 6.83301 -3.99805 11.5l-13 228c-0.666992 10 1.66602 17.667 6.99902 23s11.666 8 18.999 8c8 0 14.5 -2.66699 19.5 -8s7.5 -13 7.5 -23l-12 -228c0 -4.66699 -1.33301 -8.5 -4 -11.5s-6 -4.5 -10 -4.5s-7.33301 1.5 -10 4.5z" />
    <glyph glyph-name="numbersign" unicode="#" 
d="M464 482l-48 -251h119c6.66699 0 12 -2.16699 16 -6.5s6 -9.5 6 -15.5c0 -5.33301 -2 -9.66602 -6 -12.999s-9.33301 -5 -16 -5h-127l-35 -179c-0.666992 -4.66699 -3 -8.66699 -7 -12s-8.66699 -5 -14 -5c-7.33301 0 -13 2.66699 -17 8s-5 12 -3 20l33 168h-189
l-35 -179c-0.666992 -4.66699 -3 -8.66699 -7 -12s-8.66699 -5 -14 -5c-7.33301 0 -13 2.66699 -17 8s-5 12 -3 20l33 168h-88c-6.66699 0 -12 2.16699 -16 6.5s-6 9.5 -6 15.5c0 5.33301 2 9.66602 6 12.999s9.33301 5 16 5h95l49 251h-124c-6.66699 0 -12 2.16699 -16 6.5
s-6 9.5 -6 15.5c0 5.33301 2 9.66602 6 12.999s9.33301 5 16 5h132l34 174c1.33301 5.33301 4 9.5 8 12.5s8.66699 4.5 14 4.5c6.66699 0 12 -2.66699 16 -8s5 -12 3 -20l-32 -163h189l34 174c0.666992 4.66699 3 8.66699 7 12s8.66699 5 14 5c7.33301 0 13 -2.66699 17 -8
s5 -12 3 -20l-32 -163h83c6.66699 0 12 -2.16699 16 -6.5s6 -9.5 6 -15.5c0 -5.33301 -2 -9.66602 -6 -12.999s-9.33301 -5 -16 -5h-91zM372 231l49 251h-189l-48 -251h188z" />
    <glyph glyph-name="dollar" unicode="$" 
d="M512 89c-17.333 -27.333 -41.665 -49.3281 -72.998 -65.9951s-67.333 -26.667 -108 -30v-89c0 -6.66699 -2 -12.334 -6 -17.001s-9 -7 -15 -7c-6.66699 0 -11.834 2.16699 -15.501 6.5s-5.5 10.166 -5.5 17.499v88c-40.667 2 -81.667 10.167 -123 24.5
s-75.333 35.5 -102 63.5c-6 7.33301 -9 15 -9 23c0 6 1.16699 10.833 3.5 14.5s5.83301 5.5 10.5 5.5c5.33301 0 11.333 -2.66699 18 -8c71.333 -54.667 143.666 -82 216.999 -82c59.333 0 106 13.333 140 40s51 63.334 51 110.001c0 28.667 -8.33301 51.667 -25 69
s-37.5 30.5 -62.5 39.5s-58.833 18.833 -101.5 29.5c-51.333 13.333 -92.333 26.166 -123 38.499s-56.834 31.166 -78.501 56.499s-32.5 59.666 -32.5 102.999c0 36 9.16699 68.333 27.5 97s44 51.5 77 68.5s70.833 26.5 113.5 28.5v88c0 7.33301 1.83301 13.166 5.5 17.499
s8.5 6.5 14.5 6.5c6.66699 0 11.834 -2.16699 15.501 -6.5s5.5 -10.166 5.5 -17.499v-89c38 -2.66699 74.5 -11.334 109.5 -26.001s63.5 -35 85.5 -61c6.66699 -8.66699 10 -16.334 10 -23.001c0 -5.33301 -1.5 -10 -4.5 -14s-6.5 -6 -10.5 -6
c-6.66699 0 -12.667 2.66699 -18 8c-32 29.333 -63 50.333 -93 63s-65 19 -105 19c-59.333 0 -106 -13.833 -140 -41.5s-51 -65.5 -51 -113.5c0 -32.667 9.16699 -58.834 27.5 -78.501s40.833 -34.5 67.5 -44.5s62.334 -20.667 107.001 -32
c48.667 -12 87.667 -23.667 117 -35s54.166 -28.666 74.499 -51.999s30.5 -54.666 30.5 -93.999c0 -34 -8.66699 -64.667 -26 -92z" />
    <glyph glyph-name="percent" unicode="%" horiz-adv-x="917" 
d="M258 -16c-5.33301 0 -10.166 2 -14.499 6s-6.5 9 -6.5 15c0 4.66699 1.33301 9.33398 4 14.001l398 688c4.66699 9.33301 11.334 14 20.001 14c5.33301 0 10.166 -2 14.499 -6s6.5 -9 6.5 -15c0 -4.66699 -1.33301 -9.33398 -4 -14.001l-398 -688
c-4.66699 -9.33301 -11.334 -14 -20.001 -14zM108 334.5c-28.667 35.667 -43 89.5 -43 161.5s14.333 126 43 162s68.667 54 120 54s91.333 -17.833 120 -53.5s43 -89.5 43 -161.5s-14.333 -126 -43 -162s-68.667 -54 -120 -54s-91.333 17.833 -120 53.5zM316.5 361.5
c19 29 28.499 74.167 28.499 135.5c0 60 -9.66699 104.5 -29 133.5s-48.666 43.5 -87.999 43.5c-40 0 -69.667 -14.5 -89 -43.5s-29 -73.5 -29 -133.5c0 -61.333 9.66699 -106.5 29 -135.5s49 -43.5 89 -43.5s69.5 14.5 88.5 43.5zM568.999 47c-28.667 36 -43 90 -43 162
s14.333 125.833 43 161.5s68.667 53.5 120 53.5s91.333 -17.833 120 -53.5s43 -89.5 43 -161.5s-14.333 -126 -43 -162s-68.667 -54 -120 -54s-91.333 18 -120 54zM777.499 74c19 28.667 28.5 73.667 28.5 135c0 60.667 -9.5 105.334 -28.5 134.001s-48.5 43 -88.5 43
s-69.667 -14.333 -89 -43s-29 -73.334 -29 -134.001c0 -61.333 9.66699 -106.333 29 -135s49 -43 89 -43s69.5 14.333 88.5 43z" />
    <glyph glyph-name="ampersand" unicode="&#x26;" horiz-adv-x="648" 
d="M637 12c0 -5.33301 -1.99805 -10.002 -5.99805 -14.002s-8.66699 -6 -14 -6s-10.333 2.33301 -15 7l-101 112c-28 -39.333 -61.333 -68.833 -100 -88.5s-80 -29.5 -124 -29.5c-62.667 0 -113.834 16 -153.501 48s-59.5 75 -59.5 129c0 42.667 13.167 80.834 39.5 114.501
s66.833 68.5 121.5 104.5l16 10c-32 35.333 -55.167 65 -69.5 89s-21.5 50.667 -21.5 80c0 46 14.833 81.5 44.5 106.5s66.834 37.5 111.501 37.5c43.333 0 77.833 -11.667 103.5 -35s38.5 -55.666 38.5 -96.999c0 -36 -11.333 -67.333 -34 -94s-60.334 -58 -113.001 -94
l193 -215c26.667 56 42 124.333 46 205c0.666992 7.33301 3.16699 13.333 7.5 18s9.16602 7 14.499 7c6 0 10.833 -2 14.5 -6s5.5 -10 5.5 -18c-4.66699 -94 -24.667 -173 -60 -237l110 -122c3.33301 -4.66699 5 -8.66699 5 -12zM214.002 499.498
c12.667 -20.333 33.001 -46.1689 61.001 -77.502c48 32.667 81.667 60 101 82s29 46 29 72c0 28.667 -9 51.834 -27 69.501s-42 26.5 -72 26.5c-32.667 0 -59.334 -9.5 -80.001 -28.5s-31 -44.167 -31 -75.5c0 -25.333 6.33301 -48.166 19 -68.499zM387.003 58.4951
c34 17.667 63.001 45.167 87.001 82.5l-206 228l-15 -10c-56.667 -36.667 -95.334 -69 -116.001 -97s-31 -59 -31 -93c0 -43.333 15.667 -77 47 -101s73 -36 125 -36c38.667 0 75 8.83301 109 26.5z" />
    <glyph glyph-name="quotesingle" unicode="'" horiz-adv-x="202" 
d="M92 439.5c-2.66699 3 -3.99805 6.83301 -3.99805 11.5l-13 228c-0.666992 10 1.66602 17.667 6.99902 23s11.666 8 18.999 8c8 0 14.5 -2.66699 19.5 -8s7.5 -13 7.5 -23l-12 -228c0 -4.66699 -1.33301 -8.5 -4 -11.5s-6 -4.5 -10 -4.5s-7.33301 1.5 -10 4.5z" />
    <glyph glyph-name="parenleft" unicode="(" horiz-adv-x="281" 
d="M106 263c0 151.333 34 299.001 102 443.001c2.66699 6.66699 7.66699 10 15 10c6 0 11 -2.5 15 -7.5s4.66699 -10.833 2 -17.5c-30.667 -70.667 -53.667 -142.334 -69 -215.001s-23 -143.667 -23 -213s7.66699 -140.333 23 -213s38.333 -144.667 69 -216
c1.33301 -4 2 -6.33301 2 -7c0 -4.66699 -2 -8.66699 -6 -12s-8.33301 -5 -13 -5c-7.33301 0 -12.333 3.33301 -15 10c-68 143.333 -102 291 -102 443z" />
    <glyph glyph-name="parenright" unicode=")" horiz-adv-x="281" 
d="M58 -190c-5.33301 0 -9.83301 1.49902 -13.5 4.49902s-5.5 6.83301 -5.5 11.5l2 8c30.667 71.333 53.5 143.5 68.5 216.5s22.5 143.833 22.5 212.5s-7.5 139.334 -22.5 212.001s-37.833 144.667 -68.5 216l-2 8c0 4.66699 1.83301 8.66699 5.5 12s8.16699 5 13.5 5
c7.33301 0 12.333 -3.33301 15 -10c68 -146 102 -293.667 102 -443c0 -150 -34 -297.667 -102 -443c-2.66699 -6.66699 -7.66699 -10 -15 -10z" />
    <glyph glyph-name="asterisk" unicode="*" horiz-adv-x="448" 
d="M410 553.5c4.66699 -4.33301 7 -9.16602 7 -14.499s-2.33301 -9.83301 -7 -13.5s-11.334 -5.5 -20.001 -5.5l-138 3l72 -117c3.33301 -4.66699 5 -10.334 5 -17.001c0 -5.33301 -1.66699 -9.83301 -5 -13.5s-7.33301 -5.5 -12 -5.5c-8.66699 0 -16 5.33301 -22 16
l-66 122l-67 -123c-5.33301 -10 -12.333 -15 -21 -15c-5.33301 0 -9.66602 1.66699 -12.999 5s-5 7.66602 -5 12.999c0 6 1.66699 11.333 5 16l73 119l-139 -3c-8 0 -14.333 2 -19 6s-7 8.66699 -7 14s2.33301 10 7 14s11 5.66699 19 5l139 -3l-73 119
c-3.33301 6.66699 -5 12 -5 16c0 5.33301 1.66699 9.83301 5 13.5s7.66602 5.5 12.999 5.5c8 0 15 -5 21 -15l67 -124l66 123c6 10.667 13.333 16 22 16c4.66699 0 8.66699 -1.83301 12 -5.5s5 -8.16699 5 -13.5c0 -6 -1.66699 -11.667 -5 -17l-73 -118l139 3
c8.66699 0.666992 15.334 -1.16602 20.001 -5.49902z" />
    <glyph glyph-name="plus" unicode="+" 
d="M537.5 297.5c4.33301 -3.66699 6.5 -8.16602 6.5 -13.499c0 -6 -2.16699 -11 -6.5 -15s-9.5 -6 -15.5 -6h-203v-202c0 -6 -1.83301 -11 -5.5 -15s-8.16699 -6 -13.5 -6s-9.83301 2 -13.5 6s-5.5 9 -5.5 15v202h-203c-6 0 -11.167 2.16699 -15.5 6.5
s-6.5 9.16602 -6.5 14.499s2.16699 9.83301 6.5 13.5s9.5 5.5 15.5 5.5h203v203c0 6 1.83301 11.167 5.5 15.5s8.16699 6.5 13.5 6.5s9.83301 -2.16699 13.5 -6.5s5.5 -9.5 5.5 -15.5v-203h203c6 0 11.167 -1.83301 15.5 -5.5z" />
    <glyph glyph-name="comma" unicode="," horiz-adv-x="212" 
d="M133.5 61c7 -9.33301 10.5 -24.335 10.5 -45.002c0 -42 -12.667 -77.333 -38 -106c-6 -6 -12 -9 -18 -9c-4.66699 0 -8.66699 1.83301 -12 5.5s-5 7.83398 -5 12.501c0 6 2 11 6 15c8 8.66699 13.833 17.834 17.5 27.501s6.16699 21.167 7.5 34.5
c-10 0.666992 -18.333 4.5 -25 11.5s-10 16.167 -10 27.5c0 12 3.5 21.667 10.5 29s16.167 11 27.5 11c12 0 21.5 -4.66699 28.5 -14z" />
    <glyph glyph-name="hyphen" unicode="-" horiz-adv-x="416" 
d="M77.5 251.5c-3.66699 3.66699 -5.5 8.16699 -5.5 13.5s1.83301 9.83301 5.5 13.5s8.5 5.5 14.5 5.5h233c6 0 10.667 -1.83301 14 -5.5s5 -8.16699 5 -13.5s-1.66699 -9.83301 -5 -13.5s-8 -5.5 -14 -5.5h-233c-6 0 -10.833 1.83301 -14.5 5.5z" />
    <glyph glyph-name="period" unicode="." horiz-adv-x="212" 
d="M78 6c-7.33301 7.33301 -11 17 -11 29s3.66699 21.667 11 29s16.666 11 27.999 11c10.667 0 19.667 -3.66699 27 -11s11 -17 11 -29s-3.66699 -21.667 -11 -29s-16.333 -11 -27 -11c-11.333 0 -20.666 3.66699 -27.999 11z" />
    <glyph glyph-name="slash" unicode="/" horiz-adv-x="256" 
d="M19 -51c-4 -3.33301 -8 -5 -12 -5c-6 0 -11.167 2.33301 -15.5 7s-6.5 10.334 -6.5 17.001c0 2 0.666992 5 2 9l240 748c4 12.667 11.333 19 22 19c6 0 11.167 -2.33301 15.5 -7s6.5 -10.334 6.5 -17.001c0 -2 -0.666992 -5 -2 -9l-241 -748c-2 -6 -5 -10.667 -9 -14z
" />
    <glyph glyph-name="zero" unicode="0" 
d="M123 83.5c-40.667 61 -61 150.501 -61 268.501c0 118.667 20.167 208.5 60.5 269.5s99.5 91.5 177.5 91.5s137.167 -30.333 177.5 -91s60.5 -150.334 60.5 -269.001c0 -118 -20.333 -207.667 -61 -269s-99.667 -92 -177 -92s-136.333 30.5 -177 91.5zM445.5 112.001
c31.667 52 47.5 132.333 47.5 241s-15.667 188.834 -47 240.501s-80 77.5 -146 77.5c-65.333 0 -113.833 -25.833 -145.5 -77.5s-47.5 -131.834 -47.5 -240.501c0 -108 15.833 -188.167 47.5 -240.5s80.167 -78.5 145.5 -78.5s113.833 26 145.5 78z" />
    <glyph glyph-name="one" unicode="1" 
d="M497.5 32.5c3.66699 -3.66699 5.5 -8.16699 5.5 -13.5c0 -6 -1.83301 -10.667 -5.5 -14s-8.16699 -5 -13.5 -5h-324c-5.33301 0 -9.83301 1.66699 -13.5 5s-5.5 8 -5.5 14c0 5.33301 1.83301 9.83301 5.5 13.5s8.16699 5.5 13.5 5.5h141v608l-121 -82
c-2.66699 -2 -5.66699 -3 -9 -3c-5.33301 0 -10.333 2.66699 -15 8s-7 11.333 -7 18c0 7.33301 3 13 9 17l149 101c4.66699 3.33301 9.66699 5 15 5s10 -2 14 -6s6 -9.66699 6 -17v-649h142c5.33301 0 9.83301 -1.83301 13.5 -5.5z" />
    <glyph glyph-name="two" unicode="2" 
d="M530.5 32.5c3.66699 -3.66699 5.5 -8.16797 5.5 -13.501c0 -6 -1.83301 -10.667 -5.5 -14s-8.16699 -5 -13.5 -5h-404c-6.66699 0 -12 1.83301 -16 5.5s-6 8.5 -6 14.5c0 5.33301 2 10 6 14l252 284c38 43.333 65.333 81.5 82 114.5s25 66.5 25 100.5
c0 44.667 -13 79.167 -39 103.5s-63 36.5 -111 36.5c-35.333 0 -69 -6.33301 -101 -19s-64.667 -34 -98 -64c-5.33301 -4.66699 -11 -7 -17 -7c-4 0 -7.33301 1.83301 -10 5.5s-4 8.16699 -4 13.5c0 8.66699 3.33301 16.334 10 23.001c26 26.667 58.667 48 98 64
s80 24 122 24c59.333 0 106.333 -16 141 -48s52 -75.667 52 -131c0 -40.667 -9.5 -80.5 -28.5 -119.5s-50.167 -82.5 -93.5 -130.5l-223 -246h363c5.33301 0 9.83301 -1.83301 13.5 -5.5z" />
    <glyph glyph-name="three" unicode="3" 
d="M479.5 301c22.333 -29.333 33.502 -66.3359 33.502 -111.003c0 -60.667 -19.333 -108.667 -58 -144s-91 -53 -157 -53c-43.333 0 -84.833 8 -124.5 24s-72.5 37.333 -98.5 64c-6.66699 6.66699 -10 14.334 -10 23.001c0 5.33301 1.33301 10 4 14s6 6 10 6
c5.33301 0 11 -2.66699 17 -8c33.333 -30 66.166 -51.333 98.499 -64s67.166 -19 104.499 -19c54 0 96 13.333 126 40s45 64.667 45 114c0 50 -15.667 87.833 -47 113.5s-77.333 38.5 -138 38.5h-50c-7.33301 0 -13 2 -17 6s-6 8.66699 -6 14c0 4.66699 2 9 6 13
s9.66699 6 17 6h35c58 0 103.333 14.167 136 42.5s49 67.833 49 118.5c0 42.667 -13 75.667 -39 99s-62.667 35 -110 35c-35.333 0 -69 -6.33301 -101 -19s-64.667 -34 -98 -64c-6 -5.33301 -11.667 -8 -17 -8c-4 0 -7.33301 2 -10 6s-4 8.66699 -4 14
c0 8.66699 3.33301 16.334 10 23.001c26 26.667 58.667 48 98 64s80 24 122 24c59.333 0 106.333 -15.667 141 -47s52 -74 52 -128c0 -42 -10.5 -78.667 -31.5 -110s-50.167 -53.333 -87.5 -66c44 -11.333 77.167 -31.666 99.5 -60.999z" />
    <glyph glyph-name="four" unicode="4" 
d="M553.5 199.5c3.66699 -3.66699 5.50195 -8.16699 5.50195 -13.5c0 -6 -1.83301 -10.833 -5.5 -14.5s-8.16699 -5.5 -13.5 -5.5h-96v-148c0 -6.66699 -1.83301 -12.167 -5.5 -16.5s-8.83398 -6.5 -15.501 -6.5s-11.834 2.16699 -15.501 6.5s-5.5 9.83301 -5.5 16.5v148
h-316l-1 -2v2h-8c-6.66699 0 -12 1.83301 -16 5.5s-6 8.16699 -6 13.5s2 11 6 17l344 499c4 6 10.333 9 19 9c5.33301 0 10 -2 14 -6s6 -9.66699 6 -17v-482h96c5.33301 0 9.83301 -1.83301 13.5 -5.5zM113.002 205h289v418z" />
    <glyph glyph-name="five" unicode="5" 
d="M436 407c33.333 -18.667 59.167 -44.667 77.5 -78s27.5 -72 27.5 -116c0 -42 -9.33301 -79.833 -28 -113.5s-44.834 -59.834 -78.501 -78.501s-72.167 -28 -115.5 -28c-41.333 0 -81.833 8 -121.5 24s-72.5 37.333 -98.5 64c-6.66699 6.66699 -10 14.334 -10 23.001
c0 5.33301 1.33301 10 4 14s6 6 10 6c6 0 12 -2.66699 18 -8c33.333 -30 66 -51.333 98 -64s65.667 -19 101 -19c54 0 96.833 16.5 128.5 49.5s47.5 76.833 47.5 131.5c0 54 -15.667 97.5 -47 130.5s-73.666 49.5 -126.999 49.5c-35.333 0 -66.833 -7.5 -94.5 -22.5
s-50.5 -36.833 -68.5 -65.5c-2.66699 -6 -6.5 -10.5 -11.5 -13.5s-10.167 -4.5 -15.5 -4.5c-6 0 -11 2 -15 6s-6 9.66699 -6 17v374c0 5.33301 1.83301 10 5.5 14s8.83398 6 15.501 6h369c5.33301 0 9.83301 -1.83301 13.5 -5.5s5.5 -8.5 5.5 -14.5
c0 -4.66699 -1.83301 -9 -5.5 -13s-8.16699 -6 -13.5 -6h-349v-310c19.333 25.333 43.333 44.833 72 58.5s60 20.5 94 20.5c45.333 0 84.666 -9.33301 117.999 -28z" />
    <glyph glyph-name="six" unicode="6" horiz-adv-x="599" 
d="M433.5 406.5c33.667 -18.333 59.832 -44.168 78.499 -77.501s28 -72 28 -116c0 -42 -9.33301 -79.833 -28 -113.5s-44.667 -60 -78 -79s-71 -28.5 -113 -28.5c-82 0 -145.167 29.333 -189.5 88s-66.5 142.334 -66.5 251.001c0 121.333 22.667 215.333 68 282
s109.333 100 192 100c38.667 0 76.5 -8 113.5 -24s68.5 -37.333 94.5 -64c7.33301 -7.33301 11 -15 11 -23c0 -5.33301 -1.5 -10 -4.5 -14s-6.16699 -6 -9.5 -6c-6 0 -12 2.66699 -18 8c-61.333 55.333 -124 83 -188 83c-68 0 -121 -30 -159 -90s-57 -144.333 -57 -253v-38
c14.667 44 40.834 78.667 78.501 104s81.167 38 130.5 38c44 0 82.833 -9.16699 116.5 -27.5zM446.998 81.998c32 33.333 47.999 77.332 47.999 131.999c0 54 -16.167 97.5 -48.5 130.5s-75.166 49.5 -128.499 49.5c-35.333 0 -67 -7.66699 -95 -23
s-49.833 -36.666 -65.5 -63.999s-23.5 -58.333 -23.5 -93c0 -54.667 17 -98.667 51 -132s78.667 -50 134 -50c53.333 0 96 16.667 128 50z" />
    <glyph glyph-name="seven" unicode="7" 
d="M519.5 700c3.66699 -3.33301 5.49805 -7.66797 5.49805 -13.001s-1.33301 -10.666 -4 -15.999l-345 -665c-3.33301 -8 -9.66602 -12 -18.999 -12c-5.33301 0 -10 1.83301 -14 5.5s-6 8.5 -6 14.5c0 4 1 8 3 12l333 641h-381c-4.66699 0 -8.66699 1.83301 -12 5.5
s-5 8.16699 -5 13.5c0 6 1.66699 10.667 5 14s7.33301 5 12 5h401l1 2v-2h10c6.66699 0 11.834 -1.66699 15.501 -5z" />
    <glyph glyph-name="eight" unicode="8" 
d="M507.5 295.5c23.667 -31 35.502 -68.166 35.502 -111.499c0 -60 -20.833 -106.833 -62.5 -140.5s-101.834 -50.5 -180.501 -50.5s-138.834 16.833 -180.501 50.5s-62.5 80.5 -62.5 140.5c0 43.333 11.833 80.666 35.5 111.999s56.167 53 97.5 65
c-36 13.333 -64.5 34.666 -85.5 63.999s-31.5 63.333 -31.5 102c0 57.333 19.667 102.666 59 135.999s95.333 50 168 50s128.667 -16.667 168 -50s59 -78.666 59 -135.999c0 -38.667 -10.667 -72.667 -32 -102s-50 -50.666 -86 -63.999c42 -12.667 74.833 -34.5 98.5 -65.5z
M164.502 417.501c31 -26.333 76.167 -39.5 135.5 -39.5s104.5 13.167 135.5 39.5s46.5 62.833 46.5 109.5c0 46 -15.5 81.833 -46.5 107.5s-76.167 38.5 -135.5 38.5s-104.5 -12.833 -135.5 -38.5s-46.5 -61.5 -46.5 -107.5c0 -46.667 15.5 -83.167 46.5 -109.5z
M498.002 185.001c0 101.333 -66 152 -198 152s-198 -50.667 -198 -152s66 -152 198 -152s198 50.667 198 152z" />
    <glyph glyph-name="nine" unicode="9" 
d="M468.5 625c44.333 -58.667 66.502 -142.332 66.502 -250.999c0 -121.333 -22.667 -215.333 -68 -282s-109.333 -100 -192 -100c-38.667 0 -76.5 8 -113.5 24s-68.5 37.333 -94.5 64c-7.33301 7.33301 -11 15 -11 23c0 5.33301 1.5 10 4.5 14s6.16699 6 9.5 6
c6 0 12 -2.66699 18 -8c61.333 -55.333 124 -83 188 -83c68 0 121 30 159 90s57 144.333 57 253v38c-14.667 -44 -40.834 -78.667 -78.501 -104s-81.167 -38 -130.5 -38c-44 0 -82.833 9.16699 -116.5 27.5s-59.834 44.166 -78.501 77.499s-28 72 -28 116
c0 42 9.33301 79.833 28 113.5s44.667 60 78 79s71 28.5 113 28.5c82 0 145.167 -29.333 189.5 -88zM377.002 334.002c28 15.333 49.834 36.667 65.501 64s23.5 58.333 23.5 93c0 54.667 -17 98.667 -51 132s-78.667 50 -134 50c-53.333 0 -96 -16.667 -128 -50
s-48 -77.333 -48 -132c0 -54 16.167 -97.5 48.5 -130.5s75.166 -49.5 128.499 -49.5c35.333 0 67 7.66699 95 23z" />
    <glyph glyph-name="colon" unicode=":" horiz-adv-x="212" 
d="M78 426.5c-7.33301 7 -11 16.5 -11 28.5s3.66699 21.667 11 29s16.666 11 27.999 11c10.667 0 19.667 -3.66699 27 -11s11 -17 11 -29s-3.66699 -21.5 -11 -28.5s-16.333 -10.5 -27 -10.5c-11.333 0 -20.666 3.5 -27.999 10.5zM78 6c-7.33301 7.33301 -11 17 -11 29
s3.66699 21.667 11 29s16.666 11 27.999 11c10.667 0 19.667 -3.66699 27 -11s11 -17 11 -29s-3.66699 -21.667 -11 -29s-16.333 -11 -27 -11c-11.333 0 -20.666 3.66699 -27.999 11z" />
    <glyph glyph-name="semicolon" unicode=";" horiz-adv-x="212" 
d="M78 426.5c-7.33301 7 -11 16.5 -11 28.5s3.66699 21.667 11 29s16.666 11 27.999 11c10.667 0 19.667 -3.66699 27 -11s11 -17 11 -29s-3.66699 -21.5 -11 -28.5s-16.333 -10.5 -27 -10.5c-11.333 0 -20.666 3.5 -27.999 10.5zM133.5 61
c7 -9.33301 10.5 -24.335 10.5 -45.002c0 -42 -12.667 -77.333 -38 -106c-6 -6 -12 -9 -18 -9c-4.66699 0 -8.66699 1.83301 -12 5.5s-5 7.83398 -5 12.501c0 6 2 11 6 15c8 8.66699 13.833 17.834 17.5 27.501s6.16699 21.167 7.5 34.5c-10 0.666992 -18.333 4.5 -25 11.5
s-10 16.167 -10 27.5c0 12 3.5 21.667 10.5 29s16.167 11 27.5 11c12 0 21.5 -4.66699 28.5 -14z" />
    <glyph glyph-name="less" unicode="&#x3c;" 
d="M544 64c0 -5.33301 -2.16699 -9.66797 -6.5 -13.001s-9.5 -5 -15.5 -5s-11.333 1.33301 -16 4l-433 205c-11.333 5.33301 -17 15 -17 29c0 12 5.66699 20.667 17 26l433 205c4.66699 2.66699 10 4 16 4s11.167 -1.66699 15.5 -5s6.5 -7.66602 6.5 -12.999
c0 -7.33301 -3.66699 -13 -11 -17l-427 -201l427 -202c7.33301 -4 11 -9.66699 11 -17z" />
    <glyph glyph-name="equal" unicode="=" 
d="M68.5 369.5c-4.33301 4.33301 -6.5 9.5 -6.5 15.5c0 4.66699 2.16699 8.83398 6.5 12.501s9.5 5.5 15.5 5.5h444c6 0 11.167 -2 15.5 -6s6.5 -9.33301 6.5 -16c0 -4.66699 -2.16699 -8.83398 -6.5 -12.501s-9.5 -5.5 -15.5 -5.5h-444c-6 0 -11.167 2.16699 -15.5 6.5z
M68.5 169.5c-4.33301 4.33301 -6.5 9.5 -6.5 15.5c0 4.66699 2.16699 8.83398 6.5 12.501s9.5 5.5 15.5 5.5h444c6 0 11.167 -2 15.5 -6s6.5 -9.33301 6.5 -16c0 -4.66699 -2.16699 -8.83398 -6.5 -12.501s-9.5 -5.5 -15.5 -5.5h-444c-6 0 -11.167 2.16699 -15.5 6.5z" />
    <glyph glyph-name="greater" unicode="&#x3e;" 
d="M544 284c0 -14 -5.66699 -23.665 -17 -28.998l-433 -205c-4.66699 -2.66699 -10 -4 -16 -4s-11.167 1.66699 -15.5 5s-6.5 7.66602 -6.5 12.999c0 7.33301 3.66699 13 11 17l427 202l-427 201c-7.33301 4 -11 9.66699 -11 17c0 5.33301 2.16699 9.66602 6.5 12.999
s9.5 5 15.5 5s11.333 -1.33301 16 -4l433 -205c11.333 -5.33301 17 -14 17 -26z" />
    <glyph glyph-name="question" unicode="?" horiz-adv-x="429" 
d="M187 161.5c-2.66699 3 -4.00098 6.83203 -4.00098 11.499c0 45.333 8.16699 84.5 24.5 117.5s39.833 69.167 70.5 108.5c25.333 33.333 44.166 61.666 56.499 84.999s18.5 49.333 18.5 78c0 34 -12.167 60.833 -36.5 80.5s-57.5 29.5 -99.5 29.5
c-34.667 0 -66.167 -6.5 -94.5 -19.5s-60.166 -33.833 -95.499 -62.5c-1.33301 -2 -3.83301 -4 -7.5 -6s-6.83398 -3 -9.50098 -3c-4 0 -7.33301 2 -10 6s-4 8.66699 -4 14c0 8.66699 3.33301 16.334 10 23.001c26 26.667 58 48 96 64s75.667 24 113 24
c54.667 0 98.667 -13.5 132 -40.5s50 -63.167 50 -108.5c0 -35.333 -7.16699 -66.166 -21.5 -92.499s-36.166 -57.5 -65.499 -93.5c-30 -36.667 -53.333 -70 -70 -100s-26.667 -65.333 -30 -106c-1.33301 -9.33301 -5.66602 -14 -12.999 -14c-4 0 -7.33301 1.5 -10 4.5z
M168.499 6.49902c-7 7.66699 -10.5 17.167 -10.5 28.5s3.5 20.833 10.5 28.5s16.167 11.5 27.5 11.5s20.5 -3.83301 27.5 -11.5s10.5 -17.167 10.5 -28.5s-3.5 -20.833 -10.5 -28.5s-16.167 -11.5 -27.5 -11.5s-20.5 3.83301 -27.5 11.5z" />
    <glyph glyph-name="at" unicode="@" horiz-adv-x="919" 
d="M249.5 -95c-63 35.333 -111.496 84.999 -145.496 148.999s-51 138.333 -51 223c0 85.333 18.167 160.833 54.5 226.5s86.166 116.5 149.499 152.5s134 54 212 54c84.667 0 156.834 -18 216.501 -54s104.5 -82 134.5 -138s45 -113.333 45 -172
c0 -69.333 -10.167 -125 -30.5 -167s-45.5 -71.667 -75.5 -89s-60.667 -26 -92 -26c-36 0 -63.5 7.83301 -82.5 23.5s-28.833 38.5 -29.5 68.5h-2c-16 -28 -37.5 -50.333 -64.5 -67s-56.833 -25 -89.5 -25c-40.667 0 -74.5 14.833 -101.5 44.5s-40.5 72.167 -40.5 127.5
c0 44.667 8.66699 87 26 127s42.166 72.5 74.499 97.5s69.5 37.5 111.5 37.5c34 0 63.5 -8.66699 88.5 -26s40.167 -38.666 45.5 -63.999h1l11 61c0.666992 5.33301 3 9.66602 7 12.999s8.66699 5 14 5c6.66699 0 11.667 -2 15 -6s4.66602 -9.66699 3.99902 -17l-47 -270
c-2 -12 -3 -22.667 -3 -32c0 -23.333 5.83301 -39.333 17.5 -48s29.167 -13 52.5 -13c22.667 0 45.167 8 67.5 24s41.333 42.333 57 79s23.5 84 23.5 142c0 50.667 -13 100.667 -39 150s-65.667 90.166 -119 122.499s-118.666 48.5 -195.999 48.5
c-70.667 0 -134.334 -16 -191.001 -48s-101.334 -77.5 -134.001 -136.5s-49 -127.5 -49 -205.5c0 -77.333 15 -144.666 45 -201.999s73.167 -101.666 129.5 -132.999s123.166 -47 200.499 -47c57.333 0 107.5 8.66699 150.5 26s77.5 41 103.5 71
c8.66699 10.667 17.667 16 27 16c6 0 10.833 -2.33301 14.5 -7s5.5 -10 5.5 -16c0 -7.33301 -2.33301 -13.666 -7 -18.999c-32.667 -36.667 -74.167 -64.834 -124.5 -84.501s-106.833 -29.5 -169.5 -29.5c-84 0 -157.5 17.667 -220.5 53zM503.004 133.999
c27.333 22 48.166 50.833 62.499 86.5s21.5 72.834 21.5 111.501c0 41.333 -10.5 73 -31.5 95s-49.167 33 -84.5 33s-66.166 -10.5 -92.499 -31.5s-46.666 -48.333 -60.999 -82s-21.5 -68.834 -21.5 -105.501c0 -46 10.667 -80.833 32 -104.5s47.666 -35.5 78.999 -35.5
c36.667 0 68.667 11 96 33z" />
    <glyph glyph-name="A" unicode="A" horiz-adv-x="714" 
d="M678 12c0 -5.33301 -1.83203 -9.5 -5.49902 -12.5s-8.16699 -4.5 -13.5 -4.5c-10 0 -17 4.66699 -21 14l-81 186h-399l-82 -186c-4 -9.33301 -10.667 -14 -20 -14c-7.33301 0 -13 2.33301 -17 7s-4.66699 10.667 -2 18l296 675c4 10.667 12 16 24 16
c5.33301 0 10.166 -1.5 14.499 -4.5s7.5 -6.83301 9.5 -11.5l295 -675c1.33301 -4 2 -6.66699 2 -8zM175.001 235h364l-182 416z" />
    <glyph glyph-name="B" unicode="B" horiz-adv-x="665" 
d="M561.5 301.5c22.333 -29.667 33.499 -66.5 33.499 -110.5c0 -62.667 -19.667 -110.167 -59 -142.5s-95.666 -48.5 -168.999 -48.5h-246c-6.66699 -0 -12.5 2.33301 -17.5 7s-7.5 9.66699 -7.5 15v661c0 6 2.5 11.167 7.5 15.5s10.833 6.5 17.5 6.5h235
c71.333 0 126.333 -15.833 165 -47.5s58 -77.5 58 -137.5c0 -38.667 -9.83301 -71.5 -29.5 -98.5s-47.167 -47.167 -82.5 -60.5c40.667 -10 72.167 -29.833 94.5 -59.5zM137.999 378h213c60 0 105.667 12.667 137 38s47 62 47 110c0 93.333 -61.333 140 -184 140h-213v-288z
M505.499 75c30.333 24 45.5 61 45.5 111s-15.5 87.833 -46.5 113.5s-77.167 38.5 -138.5 38.5h-228v-299h228c62.667 0 109.167 12 139.5 36z" />
    <glyph glyph-name="C" unicode="C" horiz-adv-x="677" 
d="M214 35.5c-47.333 29 -83.666 70.667 -108.999 125s-38 118.5 -38 192.5s12.667 138 38 192s61.666 95.5 108.999 124.5s103.333 43.5 168 43.5c44.667 0 87.5 -8 128.5 -24s75.167 -38 102.5 -66c6.66699 -6.66699 10 -14.667 10 -24
c0 -5.33301 -1.33301 -9.83301 -4 -13.5s-6 -5.5 -10 -5.5c-5.33301 0 -11 2.66699 -17 8c-38 32 -72.5 54 -103.5 66s-67.167 18 -108.5 18c-84.667 0 -150.5 -28 -197.5 -84s-70.5 -134.333 -70.5 -235c0 -101.333 23.333 -180 70 -236s112.667 -84 198 -84
c42 0 78.333 6 109 18s65 34 103 66c7.33301 5.33301 13 8 17 8s7.33301 -1.83301 10 -5.5s4 -8.16699 4 -13.5c0 -9.33301 -3.33301 -17.333 -10 -24c-27.333 -28 -61.5 -50 -102.5 -66s-83.833 -24 -128.5 -24c-64.667 0 -120.667 14.5 -168 43.5z" />
    <glyph glyph-name="D" unicode="D" horiz-adv-x="725" 
d="M103.5 7c-5 4.66699 -7.5 9.66699 -7.5 15v661c0 6 2.5 11.167 7.5 15.5s10.833 6.5 17.5 6.5h192c110 0 195 -30.167 255 -90.5s90 -147.5 90 -261.5c0 -113.333 -30 -200.5 -90 -261.5s-145 -91.5 -255 -91.5h-192c-6.66699 -0 -12.5 2.33301 -17.5 7zM312 38
c102.667 0 178.5 27 227.5 81s73.5 132 73.5 234c0 209.333 -100.333 314 -301 314h-175v-629h175z" />
    <glyph glyph-name="E" unicode="E" horiz-adv-x="576" 
d="M103.5 7c-5 4.66699 -7.5 9.66699 -7.5 15v661c0 6 2.5 11.167 7.5 15.5s10.833 6.5 17.5 6.5h385c5.33301 0 9.66602 -1.83301 12.999 -5.5s5 -8.5 5 -14.5c0 -5.33301 -1.66699 -9.83301 -5 -13.5s-7.66602 -5.5 -12.999 -5.5h-368v-289h348
c5.33301 0 9.66602 -1.66699 12.999 -5s5 -8 5 -14s-1.66699 -10.833 -5 -14.5s-7.66602 -5.5 -12.999 -5.5h-348v-299h368c5.33301 0 9.66602 -1.66699 12.999 -5s5 -8 5 -14s-1.66699 -10.833 -5 -14.5s-7.66602 -5.5 -12.999 -5.5h-385
c-6.66699 -0 -12.5 2.33301 -17.5 7z" />
    <glyph glyph-name="F" unicode="F" horiz-adv-x="548" 
d="M101.5 1.5c-3.66699 4.33301 -5.49902 9.83301 -5.49902 16.5v665c0 6 2.5 11.167 7.5 15.5s10.833 6.5 17.5 6.5h375c5.33301 0 9.66602 -1.83301 12.999 -5.5s5 -8.16699 5 -13.5c0 -6 -1.66699 -10.833 -5 -14.5s-7.66602 -5.5 -12.999 -5.5h-359v-289h339
c5.33301 0 9.66602 -1.66699 12.999 -5s5 -8 5 -14s-1.66699 -10.667 -5 -14s-7.66602 -5 -12.999 -5h-339v-321c0 -15.333 -6.66699 -23 -20 -23c-6.66699 0 -11.834 2.16699 -15.501 6.5z" />
    <glyph glyph-name="G" unicode="G" horiz-adv-x="716" 
d="M622.5 349.5c3.66699 -3.66699 5.49707 -8.83301 5.49707 -15.5v-279c0 -3.33301 -1.16699 -6.66602 -3.5 -9.99902s-5.16602 -6.33301 -8.49902 -9c-27.333 -13.333 -61.166 -24 -101.499 -32s-81.833 -12 -124.5 -12c-67.333 0 -125.166 14.167 -173.499 42.5
s-85.333 69.666 -111 123.999s-38.5 119.166 -38.5 194.499c0 74 12.667 138 38 192s61.833 95.5 109.5 124.5s103.834 43.5 168.501 43.5c46.667 0 90.667 -8 132 -24s75 -38 101 -66c6.66699 -8.66699 10 -16.667 10 -24c0 -5.33301 -1.33301 -9.83301 -4 -13.5
s-6.33398 -5.5 -11.001 -5.5c-5.33301 0 -11 2.66699 -17 8c-38 32 -72.333 54 -103 66s-66.667 18 -108 18c-86 0 -152.5 -27.833 -199.5 -83.5s-70.5 -134.167 -70.5 -235.5c0 -103.333 23.833 -182.666 71.5 -237.999s116.167 -83 205.5 -83
c36.667 0 72.5 3.33301 107.5 10s65.5 16 91.5 28v245h-176c-7.33301 0 -13 2 -17 6s-6 8.66699 -6 14c0 6 2 10.833 6 14.5s9.66699 5.5 17 5.5h195c6 0 10.833 -1.83301 14.5 -5.5z" />
    <glyph glyph-name="H" unicode="H" horiz-adv-x="751" 
d="M138 377h474v-38h-474v-321c0 -6.66699 -1.83301 -12.167 -5.5 -16.5s-8.83398 -6.5 -15.501 -6.5s-11.834 2.16699 -15.501 6.5s-5.5 9.83301 -5.5 16.5v669c0 6.66699 1.83301 12.167 5.5 16.5s8.83398 6.5 15.501 6.5s11.834 -2.16699 15.501 -6.5
s5.5 -9.83301 5.5 -16.5v-310zM649.5 703.5c3.66699 -4.33301 5.5 -9.83301 5.5 -16.5v-669c0 -6.66699 -1.83301 -12.167 -5.5 -16.5s-8.83398 -6.5 -15.501 -6.5s-11.834 2.16699 -15.501 6.5s-5.5 9.83301 -5.5 16.5v669c0 6.66699 1.83301 12.167 5.5 16.5
s8.83398 6.5 15.501 6.5s11.834 -2.16699 15.501 -6.5z" />
    <glyph glyph-name="I" unicode="I" horiz-adv-x="233" 
d="M101.5 1.5c-3.66699 4.33301 -5.5 9.83301 -5.5 16.5v669c0 6.66699 1.83301 12.167 5.5 16.5s8.83398 6.5 15.501 6.5c6 0 10.833 -2.16699 14.5 -6.5s5.5 -9.83301 5.5 -16.5v-669c0 -6.66699 -1.83301 -12.167 -5.5 -16.5s-8.5 -6.5 -14.5 -6.5
c-6.66699 0 -11.834 2.16699 -15.501 6.5z" />
    <glyph glyph-name="J" unicode="J" horiz-adv-x="297" 
d="M14 -5c-7.33301 0 -12.832 1.83008 -16.499 5.49707s-5.5 7.83398 -5.5 12.501c0 5.33301 2 9.83301 6 13.5s9.66699 5.83398 17 6.50098l28 2c40 2.66699 69.5 14.834 88.5 36.501s28.5 57.5 28.5 107.5v508c0 6 2.16699 11.333 6.5 16s9.16602 7 14.499 7
c13.333 0 20 -7.66699 20 -23v-510c0 -59.333 -12.5 -103.333 -37.5 -132s-63.5 -44.667 -115.5 -48l-29 -2h-5z" />
    <glyph glyph-name="K" unicode="K" horiz-adv-x="599" 
d="M577 15c0 -5.33301 -2 -9.99902 -6 -13.999s-8.66699 -6 -14 -6c-4 0 -7.33301 1.33301 -10 4l-410 341v-322c0 -6.66699 -1.83301 -12.167 -5.5 -16.5s-8.5 -6.5 -14.5 -6.5c-6.66699 0 -11.834 2.16699 -15.501 6.5s-5.5 9.83301 -5.5 16.5v669
c0 6.66699 1.83301 12.167 5.5 16.5s8.83398 6.5 15.501 6.5c6 0 10.833 -2.16699 14.5 -6.5s5.5 -9.83301 5.5 -16.5v-313l388 330c4.66699 3.33301 9 5 13 5c5.33301 0 9.83301 -1.83301 13.5 -5.5s5.5 -8.16699 5.5 -13.5c0 -6 -2.66699 -11 -8 -15l-372 -317l391 -326
c6 -4.66699 9 -10.334 9 -17.001z" />
    <glyph glyph-name="L" unicode="L" horiz-adv-x="527" 
d="M103 6c-4.66699 4 -7.00098 8.33301 -7.00098 13v668c0 6.66699 1.83301 12.167 5.5 16.5s8.83398 6.5 15.501 6.5c13.333 0 20 -7.66699 20 -23v-649h361c4.66699 0 8.83398 -1.66699 12.501 -5s5.5 -8 5.5 -14c0 -5.33301 -1.83301 -9.83301 -5.5 -13.5
s-7.83398 -5.5 -12.501 -5.5h-380c-5.33301 0 -10.333 2 -15 6z" />
    <glyph glyph-name="M" unicode="M" horiz-adv-x="840" 
d="M738.5 703.5c3.66699 -4.33301 5.5 -9.83301 5.5 -16.5v-668c0 -16 -7.33301 -24 -22 -24c-12 0 -18 8 -18 24v598l-258 -499c-2.66699 -5.33301 -6.16699 -9.5 -10.5 -12.5s-9.16602 -4.5 -14.499 -4.5c-11.333 0 -19.666 5.66699 -24.999 17l-260 495v-594
c0 -16 -6.66699 -24 -20 -24s-20 8 -20 24v668c0 6.66699 1.83301 12.167 5.5 16.5s9.16699 6.5 16.5 6.5c4 0 7.66699 -1.16699 11 -3.5s6.66602 -6.83301 9.99902 -13.5l282 -543l279 543c3.33301 6.66699 6.66602 11.167 9.99902 13.5s7.33301 3.5 12 3.5
c7.33301 0 12.833 -2.16699 16.5 -6.5z" />
    <glyph glyph-name="N" unicode="N" horiz-adv-x="732" 
d="M636 687l0.00195312 -668.999c0 -6.66699 -1.83301 -12.167 -5.5 -16.5s-8.83398 -6.5 -15.501 -6.5c-4.66699 0 -8.33398 1 -11.001 3s-5.66699 5.33301 -9 10l-460 626v-616c0 -6.66699 -1.83301 -12.167 -5.5 -16.5s-8.5 -6.5 -14.5 -6.5
c-12.667 0 -19 7.66699 -19 23v669c0 6.66699 1.83301 12.167 5.5 16.5s9.16699 6.5 16.5 6.5c4.66699 0 8.16699 -0.833008 10.5 -2.5s5.5 -4.83398 9.5 -9.50098l459 -626v615c0 6.66699 1.83301 12.167 5.5 16.5s8.5 6.5 14.5 6.5c12.667 0 19 -7.66699 19 -23z" />
    <glyph glyph-name="O" unicode="O" horiz-adv-x="751" 
d="M211.5 35.5c-46.333 29 -82.001 70.668 -107.001 125.001s-37.5 118.166 -37.5 191.499c0 74 12.333 138.167 37 192.5s60.167 96 106.5 125s101.166 43.5 164.499 43.5s118.333 -14.5 165 -43.5s82.334 -70.5 107.001 -124.5s37 -118 37 -192
s-12.5 -138.167 -37.5 -192.5s-60.667 -96 -107 -125s-101.166 -43.5 -164.499 -43.5c-62.667 0 -117.167 14.5 -163.5 43.5zM569.999 117.001c46 56 69.001 134.667 69.001 236s-22.833 179.833 -68.5 235.5s-110.834 83.5 -195.501 83.5
c-83.333 0 -148 -27.833 -194 -83.5s-69 -134.167 -69 -235.5s23 -180 69 -236s110.667 -84 194 -84c84 0 149 28 195 84z" />
    <glyph glyph-name="P" unicode="P" horiz-adv-x="632" 
d="M101.5 1c-3.66699 4 -5.49902 9.66699 -5.49902 17v665c0 6 2.5 11.167 7.5 15.5s10.833 6.5 17.5 6.5h229c72.667 0 129 -17.333 169 -52s60 -84 60 -148s-20.167 -113.667 -60.5 -149s-96.5 -53 -168.5 -53h-213v-285c0 -7.33301 -1.66699 -13 -5 -17
s-8.33301 -6 -15 -6s-11.834 2 -15.501 6zM349.001 343c62 0 108.5 13.668 139.5 41.001s46.5 67.666 46.5 120.999s-15.5 93.5 -46.5 120.5s-77.5 40.5 -139.5 40.5h-212v-323h212z" />
    <glyph glyph-name="Q" unicode="Q" horiz-adv-x="751" 
d="M599 -158c2 -4 3.00098 -7.66406 3.00098 -10.9971c0 -4.66699 -1.5 -8.33398 -4.5 -11.001s-6.83301 -4 -11.5 -4c-10.667 0 -20 6.33301 -28 19l-57 91c-12.667 21.333 -30 37.666 -52 48.999s-46.667 17 -74 17c-62.667 0 -117.167 14.5 -163.5 43.5
s-82 70.667 -107 125s-37.5 118.166 -37.5 191.499c0 74 12.333 138.167 37 192.5s60.167 96 106.5 125s101.166 43.5 164.499 43.5s118.166 -14.5 164.499 -43.5s82 -70.5 107 -124.5s37.5 -118 37.5 -192c0 -90.667 -18.667 -166.5 -56 -227.5
s-89.666 -101.5 -156.999 -121.5c14 -4.66699 26.5 -12.667 37.5 -24s22.833 -27.333 35.5 -48zM181.001 117.003c46 -56 110.668 -84 194.001 -84c84 0 149 28 195 84s69 134.667 69 236s-22.833 179.833 -68.5 235.5s-110.834 83.5 -195.501 83.5
c-83.333 0 -148 -27.833 -194 -83.5s-69 -134.167 -69 -235.5s23 -180 69 -236z" />
    <glyph glyph-name="R" unicode="R" horiz-adv-x="677" 
d="M615 13c0 -4.66699 -1.83301 -8.83203 -5.5 -12.499s-8.16699 -5.5 -13.5 -5.5c-6.66699 0 -12.334 3.33301 -17.001 10l-136 221c-20 33.333 -41.167 56 -63.5 68s-53.166 18 -92.499 18h-150v-294c0 -6.66699 -1.83301 -12.167 -5.5 -16.5s-8.5 -6.5 -14.5 -6.5
c-6.66699 0 -11.834 2 -15.501 6s-5.5 9.66699 -5.5 17v665c0 6 2.5 11.167 7.5 15.5s10.833 6.5 17.5 6.5h247c72.667 0 128.834 -16.5 168.501 -49.5s59.5 -81.5 59.5 -145.5c0 -57.333 -17.5 -102.333 -52.5 -135s-84.167 -51.334 -147.5 -56.001
c15.333 -5.33301 29.5 -14.333 42.5 -27s26.167 -29.667 39.5 -51l134 -217c2 -4 3 -7.66699 3 -11zM369 352.002c122 0 183 53 183 159c0 52 -15 90.833 -45 116.5s-76 38.5 -138 38.5h-231v-314h231z" />
    <glyph glyph-name="S" unicode="S" horiz-adv-x="598" 
d="M163.5 16.5c-45.667 16.333 -81.501 38.1621 -107.501 65.4951c-6 6 -9 14 -9 24c0 5.33301 1.33301 9.83301 4 13.5s6 5.5 10 5.5c4.66699 0 10.667 -2.66699 18 -8c66 -56 141.333 -84 226 -84c64.667 0 114.5 13.167 149.5 39.5s52.5 63.833 52.5 112.5
c0 28 -8.66699 50.667 -26 68s-38.666 30.5 -63.999 39.5s-59.333 18.5 -102 28.5c-58 14 -102.333 26.333 -133 37s-58.167 28.834 -82.5 54.501s-36.5 60.834 -36.5 105.501c0 38.667 10.167 72.834 30.5 102.501s49 52.5 86 68.5s79.5 24 127.5 24
c46 0 89.5 -8 130.5 -24s74.167 -38 99.5 -66c6.66699 -7.33301 10 -15.333 10 -24c0 -5.33301 -1.5 -9.83301 -4.5 -13.5s-6.5 -5.5 -10.5 -5.5c-6 0 -11.667 2.66699 -17 8c-38 32.667 -72 54.834 -102 66.501s-65.333 17.5 -106 17.5
c-63.333 0 -112.666 -13.667 -147.999 -41s-53 -65.666 -53 -114.999c0 -29.333 7.83301 -53.333 23.5 -72s35.667 -33.334 60 -44.001s54.833 -20.667 91.5 -30l43 -10c48 -10.667 87 -21.5 117 -32.5s55.5 -28.167 76.5 -51.5s31.5 -54.666 31.5 -93.999
c0 -37.333 -10.167 -70.333 -30.5 -99s-49 -51 -86 -67s-79.5 -24 -127.5 -24c-48.667 0 -95.834 8.16699 -141.501 24.5z" />
    <glyph glyph-name="T" unicode="T" horiz-adv-x="584" 
d="M276.5 1.5c-3.66699 4.33301 -5.49805 9.83301 -5.49805 16.5v649h-245c-5.33301 0 -9.66602 1.66699 -12.999 5s-5 8 -5 14c0 5.33301 1.66699 9.83301 5 13.5s7.66602 5.5 12.999 5.5h531c4.66699 0 9 -1.83301 13 -5.5s6 -8.16699 6 -13.5c0 -6 -2 -10.667 -6 -14
s-8.33301 -5 -13 -5h-244v-649c0 -6.66699 -1.83301 -12.167 -5.5 -16.5s-8.83398 -6.5 -15.501 -6.5s-11.834 2.16699 -15.501 6.5z" />
    <glyph glyph-name="U" unicode="U" horiz-adv-x="715" 
d="M158.5 61.5c-45 46.333 -67.501 114.833 -67.501 205.5v420c0 7.33301 1.83301 13 5.5 17s8.83398 6 15.501 6c6 0 10.833 -2.16699 14.5 -6.5s5.5 -9.83301 5.5 -16.5v-427c0 -151.333 75.333 -227 226 -227c74 0 130 19 168 57s57 94.667 57 170v427
c0 6.66699 2.16699 12.167 6.5 16.5s9.16602 6.5 14.499 6.5c6 0 11 -2.16699 15 -6.5s6 -9.83301 6 -16.5v-420c0 -90.667 -22.667 -159.167 -68 -205.5s-111.666 -69.5 -198.999 -69.5c-88 0 -154.5 23.167 -199.5 69.5z" />
    <glyph glyph-name="V" unicode="V" horiz-adv-x="670" 
d="M635 712c6.66699 0 12.1689 -2.5 16.502 -7.5s5.16602 -11.167 2.49902 -18.5l-296 -674c-4 -11.333 -11.667 -17 -23 -17c-4.66699 0 -9.16699 1.5 -13.5 4.5s-7.83301 7.16699 -10.5 12.5l-295 674c-1.33301 4 -2 6.33301 -2 7c0 5.33301 2.16699 9.83301 6.5 13.5
s9.16602 5.5 14.499 5.5c8 0 14 -4.33301 18 -13l282 -645l282 645c4 8.66699 10 13 18 13z" />
    <glyph glyph-name="W" unicode="W" horiz-adv-x="1093" 
d="M1030 710c6.66699 0 12.499 -2.5 17.499 -7.5s6.16699 -10.5 3.5 -16.5l-237 -674c-4 -11.333 -11.667 -17 -23 -17c-4.66699 0 -9 1.5 -13 4.5s-7 7.16699 -9 12.5l-222 627l-223 -627c-4 -11.333 -11.667 -17 -23 -17c-4.66699 0 -9 1.5 -13 4.5s-7 7.16699 -9 12.5
l-238 674c-0.666992 1.33301 -1 3 -1 5c0 5.33301 2.33301 9.83301 7 13.5s9.66699 5.5 15 5.5c8.66699 0 14.334 -4 17.001 -12l222 -638l221 629c2 6 5.16699 10.5 9.5 13.5s9.16602 4.5 14.499 4.5c11.333 0 19.333 -6.33301 24 -19l221 -628l222 638
c2.66699 8 8.33398 12 17.001 12z" />
    <glyph glyph-name="X" unicode="X" horiz-adv-x="630" 
d="M602 15c0 -5.33301 -1.99707 -9.83301 -5.99707 -13.5s-8.66699 -5.5 -14 -5.5c-6 0 -11.667 3 -17 9l-251 325l-250 -325c-4.66699 -6 -10.334 -9 -17.001 -9c-5.33301 0 -10 1.83301 -14 5.5s-6 8.16699 -6 13.5c0 4 1.66699 8.66699 5 14l259 333l-244 314
c-3.33301 4 -5 8.66699 -5 14s2 9.83301 6 13.5s8.33301 5.5 13 5.5c5.33301 0 10.666 -3 15.999 -9l237 -307l238 307c5.33301 6 10.666 9 15.999 9s10 -1.83301 14 -5.5s6 -8.16699 6 -13.5c0 -4 -1.66699 -8.66699 -5 -14l-244 -314l258 -333
c3.33301 -4 5 -8.66699 5 -14z" />
    <glyph glyph-name="Y" unicode="Y" horiz-adv-x="581" 
d="M554 709c4.66699 0 8.83496 -1.99902 12.502 -5.99902s5.5 -8.33301 5.5 -13c0 -4 -1.66699 -8.66699 -5 -14l-256 -334v-324c0 -6.66699 -1.83301 -12.167 -5.5 -16.5s-8.83398 -6.5 -15.501 -6.5s-11.834 2.16699 -15.501 6.5s-5.5 9.83301 -5.5 16.5v325l-256 333
c-2.66699 3.33301 -4 7.66602 -4 12.999s1.83301 10 5.5 14s7.83398 6 12.501 6c6 0 11.333 -3 16 -9l248 -323l247 323c5.33301 6 10.666 9 15.999 9z" />
    <glyph glyph-name="Z" unicode="Z" horiz-adv-x="579" 
d="M539.5 33.5c3.66699 -3.66699 5.50098 -8.50098 5.50098 -14.501c0 -5.33301 -1.83301 -9.83301 -5.5 -13.5s-8.16699 -5.5 -13.5 -5.5h-460l-1 -2v2h-5c-6.66699 0 -11.834 1.66699 -15.501 5s-5.5 7.66602 -5.5 12.999c0 6 2 12 6 18l436 630h-424
c-4.66699 0 -8.83398 1.83301 -12.501 5.5s-5.5 8.5 -5.5 14.5c0 5.33301 1.83301 9.83301 5.5 13.5s7.83398 5.5 12.501 5.5h451l1 2v-2h5c6.66699 0 12 -1.66699 16 -5s6 -7.66602 6 -12.999s-2 -10.666 -6 -15.999l-437 -632h433c5.33301 0 9.83301 -1.83301 13.5 -5.5z
" />
    <glyph glyph-name="bracketleft" unicode="[" horiz-adv-x="281" 
d="M112 -95v714.998c0 56.667 27.333 85 82 85h64c7.33301 0 13 -1.66699 17 -5s6 -7.66602 6 -12.999c0 -6 -2 -10.667 -6 -14s-9.66699 -5 -17 -5h-59c-30 0 -45 -15.333 -45 -46v-719c0 -30.667 15 -46 45 -46h59c7.33301 0 13 -1.66699 17 -5s6 -8 6 -14
c0 -5.33301 -2 -9.66602 -6 -12.999s-9.66699 -5 -17 -5h-64c-54.667 0 -82 28.333 -82 85z" />
    <glyph glyph-name="backslash" unicode="\" horiz-adv-x="256" 
d="M-13 711c-1.33301 4 -2 7.33301 -2 10c0 6.66699 2 12 6 16s9 6 15 6c10.667 0 18 -6 22 -18l241 -748c1.33301 -4 2 -7.33301 2 -10c0 -6.66699 -2 -12 -6 -16s-9 -6 -15 -6c-11.333 0 -19 6 -23 18z" />
    <glyph glyph-name="bracketright" unicode="]" horiz-adv-x="281" 
d="M6 -175c-4 3.33301 -6 7.66797 -6 13.001c0 6 2 10.667 6 14s9.66699 5 17 5h59c30 0 45 15.333 45 46v719c0 30.667 -15 46 -45 46h-59c-7.33301 0 -13 1.66699 -17 5s-6 8 -6 14c0 5.33301 2 9.66602 6 12.999s9.66699 5 17 5h64c26.667 0 47 -7.33301 61 -22
s21 -35.667 21 -63v-715c0 -27.333 -7 -48.333 -21 -63s-34.333 -22 -61 -22h-64c-7.33301 0 -13 1.66699 -17 5z" />
    <glyph glyph-name="asciicircum" unicode="^" 
d="M537 159c0 -6 -2.00098 -10.668 -6.00098 -14.001s-8.33301 -5 -13 -5c-6.66699 0 -11.667 3 -15 9l-203 427l-203 -427c-2.66699 -6 -7.33398 -9 -14.001 -9c-4.66699 0 -9 1.66699 -13 5s-6 8 -6 14c0 4.66699 0.666992 8.33398 2 11.001l209 442
c6 10.667 14.333 16 25 16c4.66699 0 9.33398 -1.5 14.001 -4.5s8.33398 -6.83301 11.001 -11.5l209 -442c2 -4 3 -7.66699 3 -11z" />
    <glyph glyph-name="underscore" unicode="_" horiz-adv-x="500" 
d="M5 -28c-3.33301 3.33301 -5 7 -5 11s1.83301 7.83301 5.5 11.5s8.16699 5.5 13.5 5.5h462c6 0 10.667 -1.83301 14 -5.5s5 -7.5 5 -11.5s-1.66699 -7.66699 -5 -11s-8 -5 -14 -5h-462c-6 0 -10.667 1.66699 -14 5z" />
    <glyph glyph-name="grave" unicode="`" horiz-adv-x="300" 
d="M-13 702c-9.33301 9.33301 -14.001 19 -14.001 29c0 7.33301 2.33301 13.333 7 18s10.334 7 17.001 7c10.667 0 20.667 -6 30 -18l133 -171c2.66699 -2.66699 4 -6 4 -10c0 -3.33301 -1.5 -6.33301 -4.5 -9s-6.16699 -4 -9.5 -4c-4 0 -7.66699 1.66699 -11 5z" />
    <glyph glyph-name="a" unicode="a" horiz-adv-x="521" 
d="M438 317l0.00195312 -298c0 -7.33301 -1.83301 -13 -5.5 -17s-8.83398 -6 -15.501 -6s-12 2.16699 -16 6.5s-6 9.83301 -6 16.5v70c-14.667 -30.667 -35.834 -54.334 -63.501 -71.001s-59.167 -25 -94.5 -25c-30.667 0 -58.834 6.33301 -84.501 19s-46 30.167 -61 52.5
s-22.5 46.833 -22.5 73.5c0 36 9.5 63.833 28.5 83.5s50.333 33.834 94 42.501s104.834 13 183.501 13h20v42c0 47.333 -9.5 81.833 -28.5 103.5s-48.833 32.5 -89.5 32.5c-32 0 -60.5 -4.16699 -85.5 -12.5s-44.833 -17.833 -59.5 -28.5
c-2.66699 -2 -8.16699 -5.83301 -16.5 -11.5s-15.166 -8.5 -20.499 -8.5c-4.66699 0 -8.83398 1.83301 -12.501 5.5s-5.5 8.16699 -5.5 13.5c0 12.667 11.667 26 35 40s48.833 24.667 76.5 32s55.167 11 82.5 11c111.333 0 167 -59.667 167 -179zM318.002 56.5
c24 14.333 42.833 34.1699 56.5 59.5029s20.5 54 20.5 86v36h-19c-70 0 -123.333 -2.83301 -160 -8.5s-62.334 -15.334 -77.001 -29.001s-22 -33.834 -22 -60.501c0 -30.667 11.333 -55.834 34 -75.501s51.334 -29.5 86.001 -29.5c30 0 57 7.16699 81 21.5z" />
    <glyph glyph-name="b" unicode="b" horiz-adv-x="565" 
d="M410 465c32.667 -20.667 58 -49.667 76 -87s27 -81 27 -131c0 -50.667 -9 -95.167 -27 -133.5s-43.333 -68 -76 -89s-70.334 -31.5 -113.001 -31.5c-40.667 0 -75.5 9 -104.5 27s-50.833 44 -65.5 78v-79c0 -15.333 -7 -23 -21 -23c-6.66699 0 -11.834 2 -15.501 6
s-5.5 9.66699 -5.5 17v668c0 15.333 7 23 21 23c6.66699 0 11.834 -2 15.501 -6s5.5 -9.66699 5.5 -17v-295c14.667 33.333 36.5 59 65.5 77s63.833 27 104.5 27c42.667 0 80.334 -10.333 113.001 -31zM422 90c30 37.333 45 89.668 45 157.001c0 66 -15 117.167 -45 153.5
s-72 54.5 -126 54.5s-95.667 -18.333 -125 -55s-44 -88.334 -44 -155.001c0 -67.333 14.667 -119.333 44 -156s71.333 -55 126 -55c53.333 0 95 18.667 125 56z" />
    <glyph glyph-name="c" unicode="c" horiz-adv-x="470" 
d="M157 24c-33.333 20.667 -59.1709 49.999 -77.5039 87.999s-27.5 81.667 -27.5 131c0 50 9.16699 94.167 27.5 132.5s44.333 68 78 89s72.167 31.5 115.5 31.5c24.667 0 48.667 -3.16699 72 -9.5s44 -16.166 62 -29.499c12.667 -10 21.5 -18.167 26.5 -24.5
s7.5 -13.166 7.5 -20.499c0 -4.66699 -1.66699 -8.83398 -5 -12.501s-7.33301 -5.5 -12 -5.5c-3.33301 0 -7.33301 1.5 -12 4.5s-9.66699 6.5 -15 10.5c-18 14 -36.167 25.333 -54.5 34s-41.166 13 -68.499 13c-55.333 0 -98.666 -19 -129.999 -57s-47 -90.333 -47 -157
c0 -65.333 15.5 -116.333 46.5 -153s74.167 -55 129.5 -55c28 0 51.833 4.33301 71.5 13s38.5 20 56.5 34c12.667 9.33301 21.334 14 26.001 14s8.66699 -1.66699 12 -5s5 -7.33301 5 -12c0 -6.66699 -2.33301 -12.667 -7 -18s-13.667 -13.333 -27 -24
c-17.333 -12.667 -38.666 -23 -63.999 -31s-50.333 -12 -75 -12c-42.667 0 -80.667 10.333 -114 31z" />
    <glyph glyph-name="d" unicode="d" horiz-adv-x="565" 
d="M474.5 704c3.66699 -4 5.5 -9.66699 5.5 -17v-668c0 -7.33301 -1.83301 -13 -5.5 -17s-8.83398 -6 -15.501 -6c-14 0 -21 7.66699 -21 23v79c-14.667 -34 -36.5 -60 -65.5 -78s-63.833 -27 -104.5 -27c-42.667 0 -80.334 10.5 -113.001 31.5s-58 50.667 -76 89
s-27 82.833 -27 133.5c0 50 9 93.667 27 131s43.333 66.333 76 87s70.334 31 113.001 31c40.667 0 75.5 -9 104.5 -27s50.833 -43.667 65.5 -77v295c0 15.333 7 23 21 23c6.66699 0 11.834 -2 15.501 -6zM393.5 89c29.667 36.667 44.501 88.667 44.501 156
c0 66.667 -14.667 118.334 -44 155.001s-71 55 -125 55s-96.167 -18.167 -126.5 -54.5s-45.5 -87.5 -45.5 -153.5c0 -66.667 15.167 -118.834 45.5 -156.501s72.166 -56.5 125.499 -56.5c54 0 95.833 18.333 125.5 55z" />
    <glyph glyph-name="e" unicode="e" horiz-adv-x="524" 
d="M464 89.5c3.33301 -3.66699 5.00195 -7.83398 5.00195 -12.501c0 -6.66699 -2.5 -13.167 -7.5 -19.5s-13.833 -13.5 -26.5 -21.5c-48 -28.667 -97.667 -43 -149 -43c-72.667 0 -129.834 22.333 -171.501 67s-62.5 106 -62.5 184c0 50 9.33301 94 28 132s45 67.5 79 88.5
s73 31.5 117 31.5c61.333 0 109.666 -20 144.999 -60s53 -94.667 53 -164c0 -12 -2.33301 -20.667 -7 -26s-13 -8 -25 -8h-344c0.666992 -65.333 17.167 -115.666 49.5 -150.999s77.833 -53 136.5 -53c32 0 58.5 4.33301 79.5 13s41.5 20 61.5 34c14 9.33301 23 14 27 14
c4.66699 0 8.66699 -1.83301 12 -5.5zM153.502 409.5c-31 -31.667 -49.1689 -75.833 -54.502 -132.5h335c-1.33301 58 -15.666 102.5 -42.999 133.5s-65.666 46.5 -114.999 46.5c-50.667 0 -91.5 -15.833 -122.5 -47.5z" />
    <glyph glyph-name="f" unicode="f" horiz-adv-x="302" 
d="M178.5 628.5c-21 -22.333 -31.499 -56.834 -31.499 -103.501v-41h133c4.66699 0 8.66699 -1.83301 12 -5.5s5 -8.16699 5 -13.5c0 -4.66699 -1.5 -8.66699 -4.5 -12s-7.16699 -5 -12.5 -5h-133v-430c0 -6.66699 -2 -12.167 -6 -16.5s-9 -6.5 -15 -6.5
c-6.66699 0 -11.834 2 -15.501 6s-5.5 9.66699 -5.5 17v430h-83c-4.66699 0 -8.66699 1.66699 -12 5s-5 7.33301 -5 12c0 5.33301 1.66699 9.83301 5 13.5s7.33301 5.5 12 5.5h83v29c0 58 13.5 103.333 40.5 136s66.833 51 119.5 55l26 2h8c13.333 0 20 -5.66699 20 -17
c0 -12 -7.66699 -18.667 -23 -20l-26 -2c-40 -3.33301 -70.5 -16.166 -91.5 -38.499z" />
    <glyph glyph-name="g" unicode="g" horiz-adv-x="569" 
d="M478 488c4 -4 6.00098 -9.33203 6.00098 -15.999v-449c0 -69.333 -16.333 -121.666 -49 -156.999s-81.334 -53 -146.001 -53c-36 0 -67.667 3.33301 -95 10s-53.666 17.667 -78.999 33c-12.667 8 -21.667 15.167 -27 21.5s-8 12.833 -8 19.5
c0 5.33301 1.66699 9.66602 5 12.999s7.66602 5 12.999 5c3.33301 0 12 -4 26 -12c23.333 -14 47.333 -25.667 72 -35s56.334 -14 95.001 -14c49.333 0 87 13.833 113 41.5s39 68.167 39 121.5v105c-14 -34.667 -35.833 -61.167 -65.5 -79.5s-65.5 -27.5 -107.5 -27.5
c-42.667 0 -80.5 10 -113.5 30s-58.667 48.333 -77 85s-27.5 78.667 -27.5 126s9.16699 89.166 27.5 125.499s44 64.5 77 84.5s70.833 30 113.5 30c41.333 0 76.666 -9 105.999 -27s51.333 -43.667 66 -77v79c0 15.333 7 23 21 23c6 0 11 -2 15 -6zM396.501 109.501
c30.333 35.667 45.5 84.5 45.5 146.5s-15.167 110.667 -45.5 146s-72.5 53 -126.5 53c-53.333 0 -95.5 -17.667 -126.5 -53s-46.5 -84 -46.5 -146c0 -62.667 15.5 -111.667 46.5 -147s73.167 -53 126.5 -53c54 0 96.167 17.833 126.5 53.5z" />
    <glyph glyph-name="h" unicode="h" horiz-adv-x="553" 
d="M425.5 449.5c29.667 -31 44.501 -76.832 44.501 -137.499v-294c0 -7.33301 -1.83301 -13 -5.5 -17s-8.83398 -6 -15.501 -6s-11.834 2 -15.501 6s-5.5 9.66699 -5.5 17v289c0 52 -10.333 89.833 -31 113.5s-54 35.5 -100 35.5c-51.333 0 -92.5 -15.833 -123.5 -47.5
s-46.5 -73.834 -46.5 -126.501v-264c0 -7.33301 -1.83301 -13 -5.5 -17s-8.83398 -6 -15.501 -6c-6 0 -11 2.16699 -15 6.5s-6 9.83301 -6 16.5v669c0 7.33301 1.83301 13 5.5 17s8.83398 6 15.501 6s11.834 -2 15.501 -6s5.5 -9.66699 5.5 -17v-288
c14.667 31.333 36.667 55.333 66 72s63 25 101 25c58 0 101.833 -15.5 131.5 -46.5z" />
    <glyph glyph-name="i" unicode="i" horiz-adv-x="212" 
d="M90.5 1c-3.66699 4 -5.5 9.66699 -5.5 17v454c0 6.66699 1.83301 12 5.5 16s8.83398 6 15.501 6s11.834 -2 15.501 -6s5.5 -9.33301 5.5 -16v-454c0 -7.33301 -1.83301 -13 -5.5 -17s-8.83398 -6 -15.501 -6s-11.834 2 -15.501 6zM80 624
c-7.33301 6.66699 -11 15.334 -11 26.001c0 11.333 3.5 20.333 10.5 27s15.833 10 26.5 10s19.5 -3.33301 26.5 -10s10.5 -15.667 10.5 -27c0 -10.667 -3.66699 -19.334 -11 -26.001s-16 -10 -26 -10s-18.667 3.33301 -26 10z" />
    <glyph glyph-name="j" unicode="j" horiz-adv-x="212" 
d="M-50 -182c-14.667 0 -22.001 6 -22.001 18c0 11.333 7.33301 17.666 22 18.999l27 2c37.333 2.66699 64.666 13.667 81.999 33s26 52 26 98v484c0 6.66699 1.83301 12 5.5 16s8.83398 6 15.501 6s11.834 -2 15.501 -6s5.5 -9.33301 5.5 -16v-484
c0 -56 -11.5 -97.167 -34.5 -123.5s-59.5 -41.166 -109.5 -44.499l-27 -2h-6zM79.999 624c-7.33301 6.66699 -11 15.334 -11 26.001c0 11.333 3.5 20.333 10.5 27s15.833 10 26.5 10s19.5 -3.33301 26.5 -10s10.5 -15.667 10.5 -27c0 -10.667 -3.66699 -19.334 -11 -26.001
s-16 -10 -26 -10s-18.667 3.33301 -26 10z" />
    <glyph glyph-name="k" unicode="k" horiz-adv-x="468" 
d="M444 13c0 -4.66699 -1.66797 -8.83301 -5.00098 -12.5s-7.66602 -5.5 -12.999 -5.5c-4.66699 0 -10 2 -16 6l-283 238v-221c0 -6.66699 -2 -12.167 -6 -16.5s-9 -6.5 -15 -6.5c-6.66699 0 -11.834 2 -15.501 6s-5.5 9.66699 -5.5 17v669c0 7.33301 1.83301 13 5.5 17
s8.83398 6 15.501 6c6 0 11 -2.16699 15 -6.5s6 -9.83301 6 -16.5v-429l260 228c5.33301 4 10.333 6 15 6c5.33301 0 10 -2 14 -6s6 -8.66699 6 -14c0 -6 -3.33301 -12 -10 -18l-234 -205l254 -215c8 -6.66699 12 -13.667 12 -21z" />
    <glyph glyph-name="l" unicode="l" horiz-adv-x="212" 
d="M90.5 1c-3.66699 4 -5.5 9.66699 -5.5 17v669c0 7.33301 1.83301 13 5.5 17s8.83398 6 15.501 6c6 0 11 -2.16699 15 -6.5s6 -9.83301 6 -16.5v-669c0 -6.66699 -2 -12.167 -6 -16.5s-9 -6.5 -15 -6.5c-6.66699 0 -11.834 2 -15.501 6z" />
    <glyph glyph-name="m" unicode="m" horiz-adv-x="834" 
d="M751 312l0.00878906 -294.002c0 -6.66699 -1.83301 -12.167 -5.5 -16.5s-8.83398 -6.5 -15.501 -6.5s-11.834 2.16699 -15.501 6.5s-5.5 9.83301 -5.5 16.5v289c0 52 -9.33301 89.833 -28 113.5s-48.334 35.5 -89.001 35.5c-46.667 0 -83.834 -15.667 -111.501 -47
s-41.5 -73.666 -41.5 -126.999v-264c0 -6.66699 -1.83301 -12.167 -5.5 -16.5s-8.83398 -6.5 -15.501 -6.5s-11.834 2.16699 -15.501 6.5s-5.5 9.83301 -5.5 16.5v289c0 52 -9.33301 89.833 -28 113.5s-48.334 35.5 -89.001 35.5c-47.333 0 -84.666 -15.667 -111.999 -47
s-41 -73.666 -41 -126.999v-264c0 -6.66699 -1.83301 -12.167 -5.5 -16.5s-8.83398 -6.5 -15.501 -6.5s-11.834 2.16699 -15.501 6.5s-5.5 9.83301 -5.5 16.5v453c0 15.333 7 23 21 23c6.66699 0 11.667 -2 15 -6s5 -9.66699 5 -17v-72
c13.333 31.333 33.166 55.333 59.499 72s57.5 25 93.5 25c78 0 128 -32.333 150 -97c13.333 30 34.333 53.667 63 71s61.667 26 99 26c106.667 0 160 -61.333 160 -184z" />
    <glyph glyph-name="n" unicode="n" horiz-adv-x="553" 
d="M470 312l0.00195312 -293.999c0 -15.333 -7 -23 -21 -23c-6.66699 0 -11.834 2 -15.501 6s-5.5 9.66699 -5.5 17v290c0 51.333 -10.333 88.833 -31 112.5s-54 35.5 -100 35.5c-51.333 0 -92.5 -15.833 -123.5 -47.5s-46.5 -73.834 -46.5 -126.501v-264
c0 -7.33301 -1.83301 -13 -5.5 -17s-8.83398 -6 -15.501 -6s-11.834 2 -15.501 6s-5.5 9.66699 -5.5 17v453c0 15.333 7 23 21 23c6.66699 0 11.667 -2 15 -6s5 -9.66699 5 -17v-74c14.667 32 36.834 56.5 66.501 73.5s63.5 25.5 101.5 25.5c117.333 0 176 -61.333 176 -184
z" />
    <glyph glyph-name="o" unicode="o" horiz-adv-x="536" 
d="M155 24c-32.667 20.667 -58 50 -76 88s-27 82.333 -27 133c0 50 9 94 27 132s43.333 67.333 76 88s70.334 31 113.001 31s80.334 -10.333 113.001 -31s58 -50 76 -88s27 -82 27 -132c0 -50.667 -9 -95 -27 -133s-43.333 -67.333 -76 -88s-70.334 -31 -113.001 -31
s-80.334 10.333 -113.001 31zM394.5 88.5c29.667 36.333 44.498 88.5 44.498 156.5c0 66 -15.167 117.5 -45.5 154.5s-72.166 55.5 -125.499 55.5s-95.166 -18.5 -125.499 -55.5s-45.5 -88.5 -45.5 -154.5c0 -68 14.833 -120.167 44.5 -156.5s71.5 -54.5 125.5 -54.5
c55.333 0 97.833 18.167 127.5 54.5z" />
    <glyph glyph-name="p" unicode="p" horiz-adv-x="565" 
d="M410 464.5c32.667 -21 57.999 -50.499 75.999 -88.499s27 -82.333 27 -133c0 -50 -9 -93.833 -27 -131.5s-43.333 -66.834 -76 -87.501s-70.334 -31 -113.001 -31c-40.667 0 -75.5 9 -104.5 27s-50.833 44 -65.5 78v-260c0 -7.33301 -1.83301 -13 -5.5 -17
s-8.83398 -6 -15.501 -6c-14 0 -21 7.66699 -21 23v634c0 6.66699 1.83301 12 5.5 16s8.83398 6 15.501 6s11.834 -2 15.501 -6s5.5 -9.33301 5.5 -16v-79c14.667 33.333 36.5 58.833 65.5 76.5s63.833 26.5 104.5 26.5c42.667 0 80.334 -10.5 113.001 -31.5z
M421.999 88.501c30 36.333 45 87.832 45 154.499s-15 118.667 -45 156s-71.667 56 -125 56c-54.667 0 -96.667 -18.167 -126 -54.5s-44 -88.166 -44 -155.499s14.667 -119.333 44 -156s71 -55 125 -55s96 18.167 126 54.5z" />
    <glyph glyph-name="q" unicode="q" horiz-adv-x="565" 
d="M474.5 488c3.66699 -4 5.49902 -9.33398 5.49902 -16.001v-634c0 -7.33301 -1.83301 -13 -5.5 -17s-8.83398 -6 -15.501 -6c-14 0 -21 7.66699 -21 23v260c-14.667 -34 -36.5 -60 -65.5 -78s-63.833 -27 -104.5 -27c-42.667 0 -80.334 10.333 -113.001 31
s-58 49.834 -76 87.501s-27 81.5 -27 131.5c0 50.667 9 95 27 133s43.333 67.5 76 88.5s70.334 31.5 113.001 31.5c40.667 0 75.5 -8.83301 104.5 -26.5s50.833 -43.167 65.5 -76.5v79c0 6.66699 1.83301 12 5.5 16s8.83398 6 15.501 6s11.834 -2 15.501 -6zM393.999 88.999
c29.333 36.667 43.999 88.668 43.999 156.001s-14.667 119.166 -44 155.499s-71.333 54.5 -126 54.5c-53.333 0 -95.166 -18.667 -125.499 -56s-45.5 -89.333 -45.5 -156c0 -66 15.167 -117.333 45.5 -154s72.5 -55 126.5 -55s95.667 18.333 125 55z" />
    <glyph glyph-name="r" unicode="r" horiz-adv-x="326" 
d="M304 494c8 0 13.5029 -1.49902 16.5029 -4.49902s4.5 -7.5 4.5 -13.5c0 -11.333 -7 -18 -21 -20l-30 -3c-48.667 -4.66699 -85.334 -22.667 -110.001 -54s-37 -67.333 -37 -108v-273c0 -7.33301 -1.83301 -13 -5.5 -17s-8.83398 -6 -15.501 -6s-11.834 2 -15.501 6
s-5.5 9.66699 -5.5 17v453c0 15.333 7 23 21 23c6 0 11 -2 15 -6s6 -9.66699 6 -17v-72c28.667 57.333 80.667 88.666 156 93.999l14 1h7z" />
    <glyph glyph-name="s" unicode="s" horiz-adv-x="476" 
d="M158 4.5c-26 7.66699 -49.334 18.168 -70.001 31.501c-13.333 8.66699 -22.333 15.834 -27 21.501s-7 12.167 -7 19.5c0 4.66699 1.66699 8.83398 5 12.501s7.33301 5.5 12 5.5c3.33301 0 7.83301 -1.83301 13.5 -5.5l11.5 -7.5c19.333 -14 39.5 -25.5 60.5 -34.5
s47.5 -13.5 79.5 -13.5c43.333 0 76.666 8 99.999 24s35 38.667 35 68c0 17.333 -4.16699 31.666 -12.5 42.999s-22 21.166 -41 29.499s-46.167 16.5 -81.5 24.5c-58.667 13.333 -100.667 30.333 -126 51s-38 48 -38 82c0 41.333 16.167 75 48.5 101s74.166 39 125.499 39
c24.667 0 48.334 -3.33301 71.001 -10s42.667 -16 60 -28c12.667 -9.33301 21.834 -17.5 27.501 -24.5s8.5 -14.167 8.5 -21.5c0 -4.66699 -1.66699 -8.83398 -5 -12.501s-7.33301 -5.5 -12 -5.5c-5.33301 0 -14 5 -26 15c-17.333 13.333 -35.5 24.333 -54.5 33
s-42.833 13 -71.5 13c-37.333 0 -67.5 -8.83301 -90.5 -26.5s-34.5 -40.834 -34.5 -69.501c0 -17.333 3.66699 -31.5 11 -42.5s19.833 -20.5 37.5 -28.5s42.834 -15.667 75.501 -23c46 -11.333 81.333 -22.833 106 -34.5s42.167 -25.667 52.5 -42s15.5 -37.166 15.5 -62.499
c0 -40 -16.5 -72.167 -49.5 -96.5s-76.833 -36.5 -131.5 -36.5c-26 0 -52 3.83301 -78 11.5z" />
    <glyph glyph-name="t" unicode="t" horiz-adv-x="314" 
d="M305 14c0 -14.667 -9.66699 -21.002 -29 -19.002l-26 2c-50 3.33301 -86.667 18.5 -110 45.5s-35 68.833 -35 125.5v280h-83c-4.66699 0 -8.66699 1.66699 -12 5s-5 7.33301 -5 12c0 5.33301 1.66699 9.83301 5 13.5s7.33301 5.5 12 5.5h83v133c0 7.33301 2 13 6 17
s9 6 15 6s11 -2 15 -6s6 -9.66699 6 -17v-133h133c4.66699 0 8.66699 -1.83301 12 -5.5s5 -8.16699 5 -13.5c0 -4.66699 -1.5 -8.66699 -4.5 -12s-7.16699 -5 -12.5 -5h-133v-281c0 -45.333 8.83301 -77.666 26.5 -96.999s45.167 -30.666 82.5 -33.999l27 -2
c14.667 -1.33301 22 -8 22 -20z" />
    <glyph glyph-name="u" unicode="u" horiz-adv-x="545" 
d="M454.5 488c3.66699 -4 5.49609 -9.33398 5.49609 -16.001v-454c0 -15.333 -7 -23 -21 -23c-6 0 -10.833 2.16699 -14.5 6.5s-5.5 9.83301 -5.5 16.5v73c-15.333 -31.333 -37.5 -55.5 -66.5 -72.5s-61.833 -25.5 -98.5 -25.5c-56 0 -98.5 15.667 -127.5 47
s-43.5 77.333 -43.5 138v294c0 6.66699 1.83301 12 5.5 16s8.83398 6 15.501 6s11.834 -2 15.501 -6s5.5 -9.33301 5.5 -16v-290c0 -50.667 10.333 -88 31 -112s52.667 -36 96 -36c50 0 90.167 15.833 120.5 47.5s45.5 73.834 45.5 126.501v264c0 6.66699 1.83301 12 5.5 16
s8.83398 6 15.501 6s11.834 -2 15.501 -6z" />
    <glyph glyph-name="v" unicode="v" horiz-adv-x="504" 
d="M464 494c5.33301 0 10 -1.83301 14 -5.5s6 -8.5 6 -14.5c0 -2 -0.666992 -5 -2 -9l-203 -448c-6 -12 -15.333 -18 -28 -18c-6 0 -11.333 1.5 -16 4.5s-8.33398 7.5 -11.001 13.5l-202 448l-2 8c0 6 2.33301 11.167 7 15.5s10 6.5 16 6.5c8.66699 0 14.334 -4 17.001 -12
l192 -434l193 431c4 9.33301 10.333 14 19 14z" />
    <glyph glyph-name="w" unicode="w" horiz-adv-x="830" 
d="M772 493c6.66699 0 12.3359 -2.66699 17.0029 -8s5.66699 -11.333 3 -18l-168 -450c-4.66699 -12 -13.334 -18 -26.001 -18c-6 0 -11.333 1.5 -16 4.5s-8 7.5 -10 13.5l-157 409l-155 -409c-2.66699 -6 -6.33398 -10.5 -11.001 -13.5s-10 -4.5 -16 -4.5
s-11.333 1.5 -16 4.5s-8.33398 7.5 -11.001 13.5l-168 448c-2.66699 7.33301 -1.16699 14 4.5 20s12.167 9 19.5 9c8.66699 0 14.334 -4.33301 17.001 -13l154 -423l159 418c2.66699 6 6.16699 10.5 10.5 13.5s8.83301 4.5 13.5 4.5c5.33301 0 10.166 -1.5 14.499 -4.5
s7.5 -7.5 9.5 -13.5l157 -417l157 419c4 10 10 15 18 15z" />
    <glyph glyph-name="x" unicode="x" horiz-adv-x="506" 
d="M470 18c0 -6 -1.99902 -11 -5.99902 -15s-8.66699 -6 -14 -6c-6 0 -11.667 3 -17 9l-180 211l-179 -211c-6 -6 -12 -9 -18 -9c-5.33301 0 -10 2 -14 6s-6 9 -6 15s2.33301 11.667 7 17l183 213l-177 208c-4.66699 5.33301 -7 11 -7 17s2 11 6 15s8.66699 6 14 6
c6 0 11.667 -3 17 -9l174 -206l174 206c5.33301 6 11 9 17 9c5.33301 0 10.166 -2 14.499 -6s6.5 -9 6.5 -15s-2.33301 -11.667 -7 -17l-178 -208l183 -213c4.66699 -5.33301 7 -11 7 -17z" />
    <glyph glyph-name="y" unicode="y" horiz-adv-x="504" 
d="M464 494c5.33301 0 10 -1.83203 14 -5.49902s6 -8.5 6 -14.5c0 -2 -0.666992 -5 -2 -9l-287 -636c-4 -8 -10 -12 -18 -12c-5.33301 0 -9.83301 1.66699 -13.5 5s-5.5 7.66602 -5.5 12.999l2 8l72 158l-210 464c-1.33301 4 -2 7 -2 9c0 6 2.33301 11 7 15s10 6 16 6
c7.33301 0 13 -4 17 -12l193 -435l2 5l190 427c4 9.33301 10.333 14 19 14z" />
    <glyph glyph-name="z" unicode="z" horiz-adv-x="496" 
d="M448 32c3.33301 -3.33301 5 -7.66602 5 -12.999s-1.66699 -9.83301 -5 -13.5s-7.33301 -5.5 -12 -5.5h-363c-8 0 -14.167 2 -18.5 6s-6.5 9 -6.5 15c0 5.33301 2.66699 11.666 8 18.999l329 408h-318c-5.33301 0 -9.66602 1.66699 -12.999 5s-5 7.33301 -5 12
c0 5.33301 1.66699 9.83301 5 13.5s7.66602 5.5 12.999 5.5h353c8 0 14.167 -1.83301 18.5 -5.5s6.5 -8.5 6.5 -14.5c0 -6.66699 -2.33301 -12.667 -7 -18l-330 -409h328c4.66699 0 8.66699 -1.66699 12 -5z" />
    <glyph glyph-name="braceleft" unicode="{" horiz-adv-x="318" 
d="M312 -148c4 -3.33301 6 -8.00098 6 -14.001c0 -5.33301 -2 -9.66602 -6 -12.999s-9.66699 -5 -17 -5h-64c-54.667 0 -82 28.333 -82 85v257c0 28 -5.66699 48.5 -17 61.5s-31 19.833 -59 20.5c-8 0.666992 -13.833 2.66699 -17.5 6s-5.5 7.66602 -5.5 12.999
c0 12 7.66699 18.333 23 19c28 1.33301 47.667 8.5 59 21.5s17 33.167 17 60.5v256c0 56.667 27.333 85 82 85h64c7.33301 0 13 -1.66699 17 -5s6 -7.66602 6 -12.999c0 -6 -2 -10.667 -6 -14s-9.66699 -5 -17 -5h-59c-30 0 -45 -15.333 -45 -46v-261
c0 -28.667 -6.5 -51.167 -19.5 -67.5s-29.167 -26.5 -48.5 -30.5c19.333 -4 35.5 -14.167 48.5 -30.5s19.5 -38.833 19.5 -67.5v-262c0 -30.667 15 -46 45 -46h59c7.33301 0 13 -1.66699 17 -5z" />
    <glyph glyph-name="bar" unicode="|" horiz-adv-x="245" 
d="M107.5 -178.5c-4.33301 4.33301 -6.49902 9.83301 -6.49902 16.5v849c0 6.66699 2.16699 12.167 6.5 16.5s9.5 6.5 15.5 6.5c5.33301 0 10.166 -2.16699 14.499 -6.5s6.5 -9.83301 6.5 -16.5v-849c0 -6.66699 -2 -12.167 -6 -16.5s-9 -6.5 -15 -6.5
s-11.167 2.16699 -15.5 6.5z" />
    <glyph glyph-name="braceright" unicode="}" horiz-adv-x="318" 
d="M268 263c0 -4.66699 -2 -8.83008 -6 -12.4971s-9.66699 -5.83398 -17 -6.50098c-28 -0.666992 -47.333 -7.5 -58 -20.5s-16 -33.5 -16 -61.5l-2 -257c0 -27.333 -7 -48.333 -21 -63s-34.333 -22 -61 -22h-64c-7.33301 0 -13 1.66699 -17 5s-6 7.66602 -6 12.999
c0 6 2 10.667 6 14s9.66699 5 17 5h59c30 0 45 15.333 45 46v262c0 28.667 6.5 51.167 19.5 67.5s29.167 26.5 48.5 30.5c-19.333 4 -35.5 14.167 -48.5 30.5s-19.5 38.833 -19.5 67.5v261c0 30.667 -15 46 -45 46h-59c-7.33301 0 -13 1.66699 -17 5s-6 8 -6 14
c0 5.33301 2 9.66602 6 12.999s9.66699 5 17 5h64c26.667 0 47 -7.33301 61 -22s21 -35.667 21 -63v-256c0 -28 5.66699 -48.333 17 -61s31 -19.667 59 -21c15.333 -0.666992 23 -7 23 -19z" />
    <glyph glyph-name="asciitilde" unicode="~" 
d="M354 234c-21.333 8.66699 -45.666 20.668 -72.999 36.001c-25.333 13.333 -44.666 22.833 -57.999 28.5s-26.666 8.5 -39.999 8.5c-35.333 0 -62.666 -16.667 -81.999 -50c-4 -8.66699 -10.333 -13 -19 -13c-2.66699 0 -6 0.666992 -10 2
c-6 3.33301 -9 8.66602 -9 15.999c0 4 1 8 3 12c26 47.333 64.333 71 115 71c22 0 43.667 -4.33301 65 -13s45.666 -20.667 72.999 -36c25.333 -13.333 44.666 -22.833 57.999 -28.5s26.666 -8.5 39.999 -8.5c35.333 0 62.666 16.667 81.999 50c4 8.66699 10.333 13 19 13
c2.66699 0 6 -0.666992 10 -2c6 -2 9 -7 9 -15c0 -4 -1.33301 -8.33301 -4 -13c-26 -47.333 -64 -71 -114 -71c-22 0 -43.667 4.33301 -65 13z" />
    <glyph glyph-name="uni00A0" unicode="&#xa0;" horiz-adv-x="246" 
 />
    <glyph glyph-name="exclamdown" unicode="&#xa1;" horiz-adv-x="212" 
d="M78 425c-7.33301 7.33301 -11 17 -11 29s3.66699 21.667 11 29s16.333 11 27 11c11.333 0 20.666 -3.66699 27.999 -11s11 -17 11 -29s-3.66699 -21.667 -11 -29s-16.666 -11 -27.999 -11c-10.667 0 -19.667 3.66699 -27 11zM88 -178
c-4.66699 4.66699 -7 10.666 -7 17.999l12 475v2c0 4.66699 1.16699 8.33398 3.5 11.001s5.5 4 9.5 4s7.33301 -1.66699 10 -5s4 -7.33301 4 -12l12 -475c0 -7.33301 -2.5 -13.333 -7.5 -18s-11.167 -7 -18.5 -7s-13.333 2.33301 -18 7z" />
    <glyph glyph-name="cent" unicode="&#xa2;" 
d="M487 90c3.33301 -3.33301 4.99707 -7.33789 4.99707 -12.0049c0 -6.66699 -2.33301 -12.667 -7 -18s-14 -13.333 -28 -24c-15.333 -11.333 -33.666 -20.833 -54.999 -28.5s-43 -12.167 -65 -13.5v-90c0 -7.33301 -1.83301 -13.166 -5.5 -17.499
s-8.83398 -6.5 -15.501 -6.5c-6 0 -11 2.33301 -15 7s-6 10.334 -6 17.001v90c-58.667 6 -106 31.5 -142 76.5s-54 102.5 -54 172.5c0 46.667 8.16699 88.334 24.5 125.001s39.333 66 69 88s63.834 35 102.501 39v90c0 6.66699 2 12.334 6 17.001s9 7 15 7
c6.66699 0 11.834 -2.16699 15.501 -6.5s5.5 -10.166 5.5 -17.499v-90c47.333 -2 86.333 -14.667 117 -38c13.333 -10 22.333 -18.167 27 -24.5s7 -13.166 7 -20.499c0 -4.66699 -1.66699 -8.83398 -5 -12.501s-7.33301 -5.5 -12 -5.5c-5.33301 0 -14 5 -26 15
c-19.333 14.667 -37.833 26.167 -55.5 34.5s-40.5 12.5 -68.5 12.5c-55.333 0 -98.666 -19 -129.999 -57s-47 -90.333 -47 -157c0 -65.333 15.5 -116.333 46.5 -153s74.167 -55 129.5 -55c28 0 51.667 4.33301 71 13s38.333 19.667 57 33c5.33301 4 10.333 7.5 15 10.5
s8.66699 4.5 12 4.5c4.66699 0 8.66699 -1.66699 12 -5z" />
    <glyph glyph-name="sterling" unicode="&#xa3;" 
d="M553.5 32.5c3.66699 -3.66699 5.50195 -8.16699 5.50195 -13.5s-1.83301 -9.83301 -5.5 -13.5s-8.16699 -5.5 -13.5 -5.5h-474c-5.33301 -0 -9.83301 1.83301 -13.5 5.5s-5.5 8.16699 -5.5 13.5s1.83301 9.83301 5.5 13.5s8.16699 5.5 13.5 5.5h97v295h-96
c-6 0 -10.833 2 -14.5 6s-5.5 8.66699 -5.5 14s1.83301 10 5.5 14s8.5 6 14.5 6h96v152c0 58 15.5 103.833 46.5 137.5s74.5 50.5 130.5 50.5c79.333 0 149 -30 209 -90c6.66699 -6.66699 10 -14.667 10 -24c0 -5.33301 -1.33301 -9.83301 -4 -13.5s-6 -5.5 -10 -5.5
c-4.66699 0 -10.334 2.66699 -17.001 8c-38.667 33.333 -71.834 55.833 -99.501 67.5s-57.5 17.5 -89.5 17.5c-40.667 0 -73.167 -12 -97.5 -36s-36.5 -62.667 -36.5 -116v-148h175c6 0 10.833 -1.83301 14.5 -5.5s5.5 -8.5 5.5 -14.5s-1.83301 -10.833 -5.5 -14.5
s-8.5 -5.5 -14.5 -5.5h-175v-295h335c5.33301 0 9.83301 -1.83301 13.5 -5.5z" />
    <glyph glyph-name="currency" unicode="&#xa4;" 
d="M95.5 43c-4.33301 4 -6.49805 9 -6.49805 15c0 5.33301 2.66699 10.666 8 15.999l42 42c-15.333 18 -26.666 38.667 -33.999 62s-11 47.333 -11 72c0 51.333 14.667 95 44 131l-42 44c-4.66699 4 -7 8.66699 -7 14c0 6 2.16699 11 6.5 15s9.5 6 15.5 6
c5.33301 0 9.66602 -2 12.999 -6l43 -43c35.333 28.667 79.666 43 132.999 43c52 0 96.667 -14.333 134 -43l43 43c3.33301 4 7.66602 6 12.999 6c6 0 11.167 -2 15.5 -6s6.5 -9.33301 6.5 -16c0 -4.66699 -2 -9 -6 -13l-44 -44c30 -38 45 -81.667 45 -131
c0 -24 -3.83301 -47.667 -11.5 -71s-18.834 -44.333 -33.501 -63l45 -44c3.33301 -3.33301 5 -7.66602 5 -12.999c0 -6 -2.33301 -11.167 -7 -15.5s-10 -6.5 -16 -6.5c-4 0 -8 2 -12 6l-45 44c-34 -28 -78 -42 -132 -42c-50.667 0 -94.667 13.667 -132 41l-44 -44
c-3.33301 -3.33301 -8 -5 -14 -5c-5.33301 0 -10.166 2 -14.499 6zM383.502 113c23 15.333 40.333 35.168 52 59.501s17.5 50.166 17.5 77.499s-5.83301 53.166 -17.5 77.499s-29 44.166 -52 59.499s-50.833 23 -83.5 23c-32 0 -59.667 -7.66699 -83 -23
s-41 -35.166 -53 -59.499s-18 -50.166 -18 -77.499s6 -53.333 18 -78s29.667 -44.5 53 -59.5s51 -22.5 83 -22.5c32.667 0 60.5 7.66699 83.5 23z" />
    <glyph glyph-name="yen" unicode="&#xa5;" 
d="M566 709c4.66699 0 8.83594 -1.83203 12.5029 -5.49902s5.5 -8.16699 5.5 -13.5c0 -4.66699 -1.33301 -9.33398 -4 -14.001l-231 -301h159c6 0 10.833 -2 14.5 -6s5.5 -8.66699 5.5 -14s-1.83301 -10 -5.5 -14s-8.5 -6 -14.5 -6h-187v-110h187c6 0 10.833 -2 14.5 -6
s5.5 -8.66699 5.5 -14s-1.83301 -10 -5.5 -14s-8.5 -6 -14.5 -6h-187v-167c0 -6.66699 -1.83301 -12.167 -5.5 -16.5s-8.83398 -6.5 -15.501 -6.5s-11.834 2.16699 -15.501 6.5s-5.5 9.83301 -5.5 16.5v167h-187c-6 0 -10.833 2 -14.5 6s-5.5 8.66699 -5.5 14
s1.83301 10 5.5 14s8.5 6 14.5 6h187v110h-187c-6 0 -10.833 2 -14.5 6s-5.5 8.66699 -5.5 14s1.83301 10 5.5 14s8.5 6 14.5 6h160l-232 301c-3.33301 4.66699 -5 9 -5 13c0 5.33301 1.83301 10 5.5 14s8.16699 6 13.5 6c6 0 11.333 -3 16 -9l250 -325h1l249 325
c5.33301 6 10.666 9 15.999 9z" />
    <glyph glyph-name="brokenbar" unicode="&#xa6;" horiz-adv-x="245" 
d="M107.5 372.5c-4.33301 4.33301 -6.49902 9.83301 -6.49902 16.5v298c0 6.66699 2.16699 12.167 6.5 16.5s9.5 6.5 15.5 6.5c5.33301 0 10.166 -2.16699 14.499 -6.5s6.5 -9.83301 6.5 -16.5v-298c0 -6.66699 -2 -12.167 -6 -16.5s-9 -6.5 -15 -6.5
s-11.167 2.16699 -15.5 6.5zM107.501 -178.5c-4.33301 4.33301 -6.5 9.83301 -6.5 16.5v298c0 6.66699 2 12.167 6 16.5s9.33301 6.5 16 6.5c5.33301 0 10.166 -2.16699 14.499 -6.5s6.5 -9.83301 6.5 -16.5v-298c0 -6.66699 -2.16699 -12.167 -6.5 -16.5
s-9.16602 -6.5 -14.499 -6.5c-6 0 -11.167 2.16699 -15.5 6.5z" />
    <glyph glyph-name="section" unicode="&#xa7;" horiz-adv-x="513" 
d="M451.5 111.5c-9.66699 -21.667 -22.5 -39.835 -38.5 -54.502c9.33301 -21.333 14 -47.333 14 -78c0 -49.333 -16.167 -89.333 -48.5 -120s-74.833 -46 -127.5 -46c-28.667 0 -56.5 3.83301 -83.5 11.5s-50.167 18.167 -69.5 31.5
c-13.333 9.33301 -22.333 16.833 -27 22.5s-7 11.834 -7 18.501c0 4.66699 1.66699 8.83398 5 12.501s7.33301 5.5 12 5.5s13 -4.33301 25 -13c19.333 -14 40 -25.5 62 -34.5s49.667 -13.5 83 -13.5c42.667 0 75.5 11 98.5 33s34.5 53.333 34.5 94c0 32.667 -8 60 -24 82
s-43 42.667 -81 62l-77 40c-56.667 28.667 -96.667 56.834 -120 84.501s-35 60.834 -35 99.501c0 22.667 4.83301 45.167 14.5 67.5s22.167 40.5 37.5 54.5c-8 19.333 -12 44.333 -12 75c0 50.667 16.167 91 48.5 121s75.166 45 128.499 45c56 0 101.333 -13 136 -39
c12.667 -9.33301 21.667 -17.5 27 -24.5s8 -14.167 8 -21.5c0 -4.66699 -1.66699 -8.66699 -5 -12s-7.33301 -5 -12 -5c-4 0 -8.83301 2 -14.5 6s-9.16699 6.66699 -10.5 8c-18.667 14 -37.667 25.333 -57 34s-44 13 -74 13c-42.667 0 -75.5 -11 -98.5 -33
s-34.5 -53.333 -34.5 -94c0 -32.667 7.83301 -59.5 23.5 -80.5s42.834 -41.833 81.501 -62.5l77 -41c56.667 -29.333 96.667 -57.833 120 -85.5s35 -60.834 35 -99.501c0 -20.667 -4.83301 -41.834 -14.5 -63.501zM390 91.999c21.333 24.667 32 54.667 32 90
c0 25.333 -8.66699 47.666 -26 66.999s-48.666 41.333 -93.999 66l-71 39c-53.333 28.667 -89.666 55 -108.999 79c-20.667 -24.667 -31 -54.667 -31 -90c0 -24.667 8.66699 -46.667 26 -66s48.666 -41.666 93.999 -66.999l70 -39c53.333 -30 89.666 -56.333 108.999 -79z
" />
    <glyph glyph-name="dieresis" unicode="&#xa8;" horiz-adv-x="300" 
d="M44.5 625c-7 6.66699 -10.5 15 -10.5 25s3.5 18.333 10.5 25s15.5 10 25.5 10s18.333 -3.33301 25 -10s10 -15 10 -25s-3.5 -18.333 -10.5 -25s-15.167 -10 -24.5 -10c-10 0 -18.5 3.33301 -25.5 10zM205.5 625c-7 6.66699 -10.5 15 -10.5 25s3.33301 18.333 10 25
s15 10 25 10s18.5 -3.33301 25.5 -10s10.5 -15 10.5 -25s-3.5 -18.333 -10.5 -25s-15.5 -10 -25.5 -10c-9.33301 0 -17.5 3.33301 -24.5 10z" />
    <glyph glyph-name="copyright" unicode="&#xa9;" horiz-adv-x="815" 
d="M226 42.5c-54.667 31.667 -97.666 74.667 -128.999 129s-47 114.833 -47 181.5s15.667 127.167 47 181.5s74.333 97.166 129 128.499s115.334 47 182.001 47s127.167 -15.667 181.5 -47s97.166 -74.166 128.499 -128.499s47 -114.833 47 -181.5
s-15.667 -127.167 -47 -181.5s-74.333 -97.333 -129 -129s-115 -47.5 -181 -47.5c-66.667 0 -127.334 15.833 -182.001 47.5zM570.501 73c49 28.667 87.5 67.667 115.5 117s42 103.666 42 162.999s-14 113.666 -42 162.999s-66.5 88.166 -115.5 116.499
s-103.167 42.5 -162.5 42.5c-60 0 -114.5 -14.167 -163.5 -42.5s-87.5 -67.166 -115.5 -116.499s-42 -103.666 -42 -162.999s14.167 -113.666 42.5 -162.999s66.833 -88.333 115.5 -117s103 -43 163 -43c59.333 0 113.5 14.333 162.5 43zM270.001 195
c-35.333 38.667 -53.001 91.335 -53.001 158.002s17.667 119.167 53 157.5s82.666 57.5 141.999 57.5c48.667 0 94.667 -17 138 -51c6 -4 9 -10 9 -18c0 -4.66699 -1.33301 -9 -4 -13s-6 -6 -10 -6c-2.66699 0 -7.33398 2 -14.001 6c-24 16.667 -44 28.5 -60 35.5
s-35.667 10.5 -59 10.5c-48 0 -85 -15.833 -111 -47.5s-39 -75.5 -39 -131.5c0 -56.667 13 -100.834 39 -132.501s63 -47.5 111 -47.5c23.333 0 43 3.5 59 10.5s36 18.833 60 35.5c6.66699 4 11.334 6 14.001 6c4 0 7.33301 -2 10 -6s4 -8.33301 4 -13c0 -6 -3 -12 -9 -18
c-16 -16.667 -36.167 -29.334 -60.5 -38.001s-50.166 -13 -77.499 -13c-59.333 0 -106.666 19.333 -141.999 58z" />
    <glyph glyph-name="ordfeminine" unicode="&#xaa;" horiz-adv-x="325" 
d="M272 598l0.00292969 -166.999c0 -6.66699 -2 -11.834 -6 -15.501s-9 -5.5 -15 -5.5s-11 1.83301 -15 5.5s-6 8.83398 -6 15.501v28c-8.66699 -15.333 -20.834 -27.333 -36.501 -36s-32.834 -13 -51.501 -13c-30 0 -55 8.33301 -75 25s-30 37 -30 61
c0 22 5.66699 39.167 17 51.5s29.833 21.166 55.5 26.499s61.5 8 107.5 8h13v20c0 26 -5.33301 44.667 -16 56s-27 17 -49 17c-30.667 0 -58.334 -7.66699 -83.001 -23c-2.66699 -1.33301 -6.5 -3.66602 -11.5 -6.99902s-8.83301 -5 -11.5 -5c-4 0 -7.33301 1.66699 -10 5
s-4 7.66602 -4 12.999c0 10.667 7 19.667 21 27c31.333 16.667 64.333 25 99 25c71.333 0 107 -37.333 107 -112zM205.503 470.001c16.333 16.667 24.5 38.6689 24.5 66.002v18h-11c-38 0 -66.833 -1.83301 -86.5 -5.5s-33 -9.33398 -40 -17.001
s-10.5 -17.834 -10.5 -30.501c0 -16 6 -29.333 18 -40s27 -16 45 -16c24 0 44.167 8.33301 60.5 25z" />
    <glyph glyph-name="guillemotleft" unicode="&#xab;" horiz-adv-x="394" 
d="M61 251c-2.66699 6.66699 -4 11.335 -4 14.002c0 3.33301 1.33301 7.66602 4 12.999l83 144c4.66699 8.66699 11.334 13 20.001 13c4.66699 0 8.66699 -1.5 12 -4.5s5 -6.83301 5 -11.5c0 -4 -0.666992 -7 -2 -9l-75 -145l75 -146c1.33301 -2 2 -5 2 -9
c0 -4.66699 -1.66699 -8.33398 -5 -11.001s-7.33301 -4 -12 -4c-8.66699 0 -15.334 4.33301 -20.001 13zM219 251.001c-2.66699 6.66699 -4 11.335 -4 14.002c0 3.33301 1.33301 7.66602 4 12.999l83 144c4.66699 8.66699 11.334 13 20.001 13
c4.66699 0 8.66699 -1.5 12 -4.5s5 -6.83301 5 -11.5c0 -4 -0.666992 -7 -2 -9l-75 -145l75 -146c1.33301 -2 2 -5 2 -9c0 -4.66699 -1.66699 -8.33398 -5 -11.001s-7.33301 -4 -12 -4c-8.66699 0 -15.334 4.33301 -20.001 13z" />
    <glyph glyph-name="logicalnot" unicode="&#xac;" 
d="M512 163.5c-2.66699 4.33301 -4 9.49902 -4 15.499v191h-430c-6 0 -11.167 2 -15.5 6s-6.5 9 -6.5 15c0 4.66699 2.16699 8.83398 6.5 12.501s9.5 5.5 15.5 5.5h444c6 0 11.167 -2.16699 15.5 -6.5s6.5 -9.5 6.5 -15.5v-208c0 -6 -2.16699 -11.167 -6.5 -15.5
s-9.5 -6.5 -15.5 -6.5c-4 0 -7.33301 2.16699 -10 6.5z" />
    <glyph glyph-name="uni00AD" unicode="&#xad;" horiz-adv-x="416" 
d="M77.5 251.5c-3.66699 3.66699 -5.5 8.16699 -5.5 13.5s1.83301 9.83301 5.5 13.5s8.5 5.5 14.5 5.5h233c6 0 10.667 -1.83301 14 -5.5s5 -8.16699 5 -13.5s-1.66699 -9.83301 -5 -13.5s-8 -5.5 -14 -5.5h-233c-6 0 -10.833 1.83301 -14.5 5.5z" />
    <glyph glyph-name="registered" unicode="&#xae;" horiz-adv-x="815" 
d="M589.5 663c54.333 -31.333 97.167 -74.166 128.5 -128.499s47 -114.833 47 -181.5s-15.667 -127.167 -47 -181.5s-74.333 -97.333 -129 -129s-115 -47.5 -181 -47.5c-66.667 0 -127.334 15.833 -182.001 47.5s-97.667 74.667 -129 129s-47 114.833 -47 181.5
s15.667 127.167 47 181.5s74.333 97.166 129 128.499s115.334 47 182.001 47s127.167 -15.667 181.5 -47zM570.501 73c49 28.667 87.5 67.667 115.5 117s42 103.666 42 162.999s-14 113.666 -42 162.999s-66.5 88.166 -115.5 116.499s-103.167 42.5 -162.5 42.5
c-60 0 -114.5 -14.167 -163.5 -42.5s-87.5 -67.166 -115.5 -116.499s-42 -103.666 -42 -162.999s14.167 -113.666 42.5 -162.999s66.833 -88.333 115.5 -117s103 -43 163 -43c59.333 0 113.5 14.333 162.5 43zM582.001 163c2 -4 2.99902 -8.00195 2.99902 -12.002
c0 -4.66699 -1.66699 -8.5 -5 -11.5s-7.66602 -4.5 -12.999 -4.5c-10 0 -17.667 5 -23 15l-78 126c-10.667 17.333 -22 29.166 -34 35.499s-28.667 9.5 -50 9.5h-69v-163c0 -14 -7 -21 -21 -21c-6 0 -11 1.83301 -15 5.5s-6 8.83398 -6 15.501v383
c0 6.66699 2.16699 12 6.5 16s9.5 6 15.5 6h142c42 0 75.333 -10.167 100 -30.5s37 -50.166 37 -89.499c0 -34.667 -10.167 -62 -30.5 -82s-47.833 -31.667 -82.5 -35c10 -3.33301 18.833 -8.66602 26.5 -15.999s15.5 -17.333 23.5 -30zM430 358.998
c32.667 0 57.5 6.5 74.5 19.5s25.5 34.5 25.5 64.5s-8.5 51.5 -25.5 64.5s-41.833 19.5 -74.5 19.5h-117v-168h117z" />
    <glyph glyph-name="macron" unicode="&#xaf;" horiz-adv-x="300" 
d="M8 634.5c-5.33301 3.66699 -8 8.83398 -8 15.501c0 14.667 9.66699 22 29 22h242c19.333 0 29 -7.33301 29 -22c0 -6.66699 -2.66699 -11.834 -8 -15.501s-12.333 -5.5 -21 -5.5h-242c-8.66699 0 -15.667 1.83301 -21 5.5z" />
    <glyph glyph-name="degree" unicode="&#xb0;" horiz-adv-x="364" 
d="M110.5 444.5c-21.667 12.333 -38.667 29.333 -51 51s-18.5 45.834 -18.5 72.501s6.16699 50.834 18.5 72.501s29.333 38.667 51 51s45.5 18.5 71.5 18.5s49.667 -6.16699 71 -18.5s38.166 -29.333 50.499 -51s18.5 -45.834 18.5 -72.501s-6.16699 -50.834 -18.5 -72.501
s-29.166 -38.667 -50.499 -51s-45 -18.5 -71 -18.5s-49.833 6.16699 -71.5 18.5zM252.5 494.5c18.333 19 27.5 43.5 27.5 73.5s-9.16699 54.5 -27.5 73.5s-41.833 28.5 -70.5 28.5s-52.167 -9.5 -70.5 -28.5s-27.5 -43.5 -27.5 -73.5s9.16699 -54.5 27.5 -73.5
s41.833 -28.5 70.5 -28.5s52.167 9.5 70.5 28.5z" />
    <glyph glyph-name="plusminus" unicode="&#xb1;" 
d="M78 301c-6 0 -11.167 1.99902 -15.5 5.99902s-6.5 9 -6.5 15c0 4.66699 2.16699 8.83398 6.5 12.501s9.5 5.5 15.5 5.5h203v166c0 6 2 11.167 6 15.5s9 6.5 15 6.5c4.66699 0 8.66699 -2.16699 12 -6.5s5 -9.5 5 -15.5v-166h203c6 0 11.167 -2.16699 15.5 -6.5
s6.5 -9.5 6.5 -15.5c0 -4.66699 -2.16699 -8.66699 -6.5 -12s-9.5 -5 -15.5 -5h-203v-165c0 -6.66699 -2 -12.167 -6 -16.5s-9 -6.5 -15 -6.5c-4.66699 0 -8.66699 2 -12 6s-5 9 -5 15v167h-203zM543.5 33.999c4.33301 -4 6.5 -9.33301 6.5 -16
c0 -4.66699 -2.16699 -8.83398 -6.5 -12.501s-9.5 -5.5 -15.5 -5.5h-444c-6 0 -11.167 2.16699 -15.5 6.5s-6.5 9.5 -6.5 15.5c0 4.66699 2.16699 8.83398 6.5 12.501s9.5 5.5 15.5 5.5h444c6 0 11.167 -2 15.5 -6z" />
    <glyph glyph-name="uni00B2" unicode="&#xb2;" horiz-adv-x="380" 
d="M331 300c0 -12 -6.33496 -18.002 -19.002 -18.002h-238c-6 0 -10.667 1.83301 -14 5.5s-5 8.16699 -5 13.5c0 6.66699 2.33301 12.334 7 17.001l145 162c21.333 23.333 36.666 44 45.999 62s14 36.667 14 56c0 24 -7.16699 42.333 -21.5 55s-34.166 19 -59.499 19
c-18 0 -35.667 -4 -53 -12s-36.333 -19 -57 -33c-5.33301 -4.66699 -10.666 -7 -15.999 -7c-4 0 -7.33301 2 -10 6s-4 8.66699 -4 14c0 6.66699 2.66699 12.667 8 18c17.333 14.667 38 26.834 62 36.501s47.667 14.5 71 14.5c38.667 0 68.834 -10.167 90.501 -30.5
s32.5 -46.833 32.5 -79.5c0 -24 -5.66699 -47.5 -17 -70.5s-29.333 -47.833 -54 -74.5l-124 -135h197c12.667 0 19 -6.33301 19 -19z" />
    <glyph glyph-name="uni00B3" unicode="&#xb3;" horiz-adv-x="380" 
d="M297 463c13.333 -17.333 19.998 -39.3359 19.998 -66.0029c0 -37.333 -12.333 -66.333 -37 -87s-57.334 -31 -98.001 -31c-24 0 -48.167 4.83301 -72.5 14.5s-45.166 21.834 -62.499 36.501c-5.33301 5.33301 -8 11.333 -8 18c0 5.33301 1.33301 9.83301 4 13.5
s6 5.5 10 5.5c6 0 11.333 -2 16 -6c40 -29.333 77.333 -44 112 -44c29.333 0 52.5 6.5 69.5 19.5s25.5 33.5 25.5 61.5c0 54 -33.667 81 -101 81h-31c-6 0 -10.667 1.83301 -14 5.5s-5 7.83398 -5 12.501s1.66699 8.83398 5 12.501s8 5.5 14 5.5h21
c31.333 0 55.833 7 73.5 21s26.5 34.667 26.5 62c0 24 -7.16699 42.333 -21.5 55s-33.833 19 -58.5 19c-18 0 -35.833 -4 -53.5 -12s-36.5 -19 -56.5 -33c-5.33301 -4.66699 -10.666 -7 -15.999 -7c-4 0 -7.33301 2 -10 6s-4 8.66699 -4 14c0 7.33301 2.66699 13.333 8 18
c16.667 14.667 37.167 26.834 61.5 36.501s47.833 14.5 70.5 14.5c38.667 0 68.834 -10 90.501 -30s32.5 -46 32.5 -78c0 -24.667 -6.33301 -45.834 -19 -63.501s-28.667 -30.5 -48 -38.5c24 -6.66699 42.667 -18.667 56 -36z" />
    <glyph glyph-name="acute" unicode="&#xb4;" horiz-adv-x="300" 
d="M150 544c-3.33301 0 -6.50098 1.33301 -9.50098 4s-4.5 6 -4.5 10c0 3.33301 1.33301 6.33301 4 9l133 171c8 12 18 18 30 18c6.66699 0 12.334 -2.33301 17.001 -7s7 -10.667 7 -18c0 -10 -4.66699 -19.667 -14 -29l-152 -153c-3.33301 -3.33301 -7 -5 -11 -5z" />
    <glyph glyph-name="uni00B5" unicode="&#xb5;" horiz-adv-x="545" 
d="M454 488c4 -4 6 -9.33203 6 -15.999v-454c0 -15.333 -7 -23 -21 -23c-6 0 -10.833 2 -14.5 6s-5.5 9.66699 -5.5 17v73c-15.333 -31.333 -37.5 -55.5 -66.5 -72.5s-61.833 -25.5 -98.5 -25.5c-54.667 0 -97.667 14.667 -129 44v-199c0 -15.333 -7 -23 -21 -23
c-6 0 -11 2 -15 6s-6 9.66699 -6 17v634c0 6.66699 2 12 6 16s9 6 15 6s11 -2 15 -6s6 -9.33301 6 -16v-290c0 -53.333 10.833 -91.333 32.5 -114s53.167 -34 94.5 -34c48 0 87.667 15.167 119 45.5s47 73.166 47 128.499v264c0 6.66699 2 12 6 16s9 6 15 6s11 -2 15 -6z
" />
    <glyph glyph-name="paragraph" unicode="&#xb6;" horiz-adv-x="556" 
d="M246 -178c-4.66699 4.66699 -6.99512 10.667 -6.99512 18v495c-36.667 0 -69.167 8 -97.5 24s-50.166 38 -65.499 66s-23 59.667 -23 95s7.66699 67 23 95s37.166 50 65.499 66s61.166 24 98.499 24h195c7.33301 0 13.333 -2.33301 18 -7s7 -10.667 7 -18v-840
c0 -6.66699 -2.33301 -12.5 -7 -17.5s-10.334 -7.5 -17.001 -7.5s-12.334 2.5 -17.001 7.5s-7 10.833 -7 17.5v820h-125v-820c0 -6.66699 -2.33301 -12.5 -7 -17.5s-10.334 -7.5 -17.001 -7.5s-12.334 2.33301 -17.001 7z" />
    <glyph glyph-name="periodcentered" unicode="&#xb7;" horiz-adv-x="212" 
d="M78 236c-7.33301 7.33301 -11 17 -11 29s3.66699 21.667 11 29s16.666 11 27.999 11c10.667 0 19.667 -3.66699 27 -11s11 -17 11 -29s-3.66699 -21.667 -11 -29s-16.333 -11 -27 -11c-11.333 0 -20.666 3.66699 -27.999 11z" />
    <glyph glyph-name="cedilla" unicode="&#xb8;" horiz-adv-x="300" 
d="M243 -58c14.667 -11.333 22 -28.666 22 -51.999s-9.66699 -42.5 -29 -57.5s-46 -22.5 -80 -22.5c-24.667 0 -46.667 4 -66 12c-5.33301 2 -9.33301 4.83301 -12 8.5s-4 7.5 -4 11.5c0 4.66699 1.83301 8.5 5.5 11.5s8.5 4.5 14.5 4.5c4 0 7.33301 -0.333008 10 -1
c19.333 -5.33301 38 -8 56 -8c21.333 0 37.166 3.66699 47.499 11s15.5 17.333 15.5 30c0 9.33301 -3 16.833 -9 22.5s-14.333 8.5 -25 8.5c-8.66699 0 -18.834 -1.83301 -30.501 -5.5s-19.167 -5.5 -22.5 -5.5c-4.66699 0 -9.16699 1.66699 -13.5 5
s-6.16602 7.66602 -5.49902 12.999l10 92h42l-7 -66c8.66699 3.33301 18.334 5 29.001 5c20 0 37.333 -5.66699 52 -17z" />
    <glyph glyph-name="uni00B9" unicode="&#xb9;" horiz-adv-x="380" 
d="M307.5 314c3.66699 -3.33301 5.50098 -7.99902 5.50098 -13.999c0 -5.33301 -1.83301 -9.66602 -5.5 -12.999s-8.5 -5 -14.5 -5h-157c-6 0 -10.833 1.66699 -14.5 5s-5.5 7.66602 -5.5 12.999c0 6 1.83301 10.667 5.5 14s8.5 5 14.5 5h59v336l-61 -41
c-3.33301 -2 -6 -3 -8 -3c-4.66699 0 -8.83398 2.33301 -12.501 7s-5.5 10 -5.5 16s2.33301 11 7 15l82 54c4 3.33301 9.66699 5 17 5c6 0 11 -1.83301 15 -5.5s6 -8.83398 6 -15.501v-368h58c6 0 10.833 -1.66699 14.5 -5z" />
    <glyph glyph-name="ordmasculine" unicode="&#xba;" horiz-adv-x="325" 
d="M63 450.5c-24.667 27 -37 63.5 -37 109.5s12.333 82.5 37 109.5s57.334 40.5 98.001 40.5s73.667 -13.5 99 -40.5s38 -63.5 38 -109.5s-12.667 -82.5 -38 -109.5s-58.333 -40.5 -99 -40.5s-73.334 13.5 -98.001 40.5zM254 560c0 36.667 -7.83203 65 -23.499 85
s-38.834 30 -69.501 30c-30 0 -52.833 -10.167 -68.5 -30.5s-23.5 -48.5 -23.5 -84.5c0 -37.333 7.83301 -65.833 23.5 -85.5s38.5 -29.5 68.5 -29.5c62 0 93 38.333 93 115z" />
    <glyph glyph-name="guillemotright" unicode="&#xbb;" horiz-adv-x="394" 
d="M71 96c-4.66699 0 -8.5 1.16699 -11.5 3.5s-4.5 5.83301 -4.5 10.5c0 4 0.666992 7 2 9l74 146l-74 145c-2 3.33301 -3 6.66602 -3 9.99902c0 4.66699 1.66699 8.33398 5 11.001s7.33301 4 12 4c8.66699 0 15.334 -4.33301 20.001 -13l84 -144
c2.66699 -3.33301 4 -7.66602 4 -12.999c0 -4.66699 -1.33301 -9.33398 -4 -14.001l-84 -143c-4.66699 -8 -11.334 -12 -20.001 -12zM229 96c-4.66699 0 -8.5 1.16699 -11.5 3.5s-4.5 5.83301 -4.5 10.5c0 4 0.666992 7 2 9l74 146l-74 145
c-2 3.33301 -3 6.66602 -3 9.99902c0 4.66699 1.66699 8.33398 5 11.001s7.33301 4 12 4c8.66699 0 15.334 -4.33301 20.001 -13l84 -144c2.66699 -3.33301 4 -7.66602 4 -12.999c0 -4.66699 -1.33301 -9.33398 -4 -14.001l-84 -143c-4.66699 -8 -11.334 -12 -20.001 -12z
" />
    <glyph glyph-name="onequarter" unicode="&#xbc;" horiz-adv-x="918" 
d="M307.5 314c3.66699 -3.33301 5.50195 -7.99902 5.50195 -13.999c0 -5.33301 -1.83301 -9.66602 -5.5 -12.999s-8.5 -5 -14.5 -5h-157c-6 0 -10.833 1.66699 -14.5 5s-5.5 7.66602 -5.5 12.999c0 6 1.83301 10.667 5.5 14s8.5 5 14.5 5h59v336l-61 -41
c-2.66699 -2 -5.33398 -3 -8.00098 -3c-4.66699 0 -8.83398 2.33301 -12.501 7s-5.5 10 -5.5 16s2.33301 11 7 15l82 54c4 3.33301 9.66699 5 17 5c6 0 11 -1.83301 15 -5.5s6 -8.83398 6 -15.501v-368h58c6 0 10.833 -1.66699 14.5 -5zM258.002 -15.999
c-5.33301 0 -9.99902 2 -13.999 6s-6 9 -6 15c0 4.66699 1.33301 9.33398 4 14.001l397 688c4.66699 9.33301 11.667 14 21 14c5.33301 0 10.166 -2 14.499 -6s6.5 -9 6.5 -15c0 -4.66699 -1.33301 -9.33398 -4 -14.001l-398 -688c-4.66699 -9.33301 -11.667 -14 -21 -14z
M891.003 112.001c0 -12 -6.99902 -17.9971 -20.999 -17.9971h-47v-75c0 -6.66699 -2.16699 -12 -6.5 -16s-9.5 -6 -15.5 -6c-7.33301 0 -13 2 -17 6s-6 9.33301 -6 16v75h-180c-6 0 -10.833 1.66699 -14.5 5s-5.5 7.66602 -5.5 12.999s1.66699 10.666 5 15.999l200 289
c4 6 10.333 9 19 9c5.33301 0 10.166 -1.83301 14.499 -5.5s6.5 -8.83398 6.5 -15.501v-274h47c14 0 21 -6.33301 21 -19zM630.004 131.004h148v214z" />
    <glyph glyph-name="onehalf" unicode="&#xbd;" horiz-adv-x="918" 
d="M307.5 314c3.66699 -3.33301 5.50195 -7.99902 5.50195 -13.999c0 -5.33301 -1.83301 -9.66602 -5.5 -12.999s-8.5 -5 -14.5 -5h-157c-6 0 -10.833 1.66699 -14.5 5s-5.5 7.66602 -5.5 12.999c0 6 1.83301 10.667 5.5 14s8.5 5 14.5 5h59v336l-61 -41
c-2.66699 -2 -5.33398 -3 -8.00098 -3c-4.66699 0 -8.83398 2.33301 -12.501 7s-5.5 10 -5.5 16s2.33301 11 7 15l82 54c4 3.33301 9.66699 5 17 5c6 0 11 -1.83301 15 -5.5s6 -8.83398 6 -15.501v-368h58c6 0 10.833 -1.66699 14.5 -5zM258.002 -15.999
c-5.33301 0 -9.99902 2 -13.999 6s-6 9 -6 15c0 4.66699 1.33301 9.33398 4 14.001l397 688c4.66699 9.33301 11.667 14 21 14c5.33301 0 10.166 -2 14.499 -6s6.5 -9 6.5 -15c0 -4.66699 -1.33301 -9.33398 -4 -14.001l-398 -688c-4.66699 -9.33301 -11.667 -14 -21 -14z
M869.003 18.001c0 -12 -6.33496 -18.002 -19.002 -18.002h-238c-6 0 -10.667 1.83301 -14 5.5s-5 8.16699 -5 13.5c0 6.66699 2.33301 12.334 7 17.001l145 162c21.333 23.333 36.666 44 45.999 62s14 36.667 14 56c0 24 -7.16699 42.333 -21.5 55s-34.166 19 -59.499 19
c-18 0 -35.667 -4 -53 -12s-36.333 -19 -57 -33c-5.33301 -4.66699 -10.666 -7 -15.999 -7c-4 0 -7.33301 2 -10 6s-4 8.66699 -4 14c0 6.66699 2.66699 12.667 8 18c17.333 14.667 38 26.834 62 36.501s47.667 14.5 71 14.5c38.667 0 68.834 -10.167 90.501 -30.5
s32.5 -46.833 32.5 -79.5c0 -24 -5.66699 -47.5 -17 -70.5s-29.333 -47.833 -54 -74.5l-124 -135h197c12.667 0 19 -6.33301 19 -19z" />
    <glyph glyph-name="threequarters" unicode="&#xbe;" horiz-adv-x="918" 
d="M297 463c13.333 -17.333 19.998 -39.3359 19.998 -66.0029c0 -37.333 -12.333 -66.333 -37 -87s-57.334 -31 -98.001 -31c-24 0 -48.167 4.83301 -72.5 14.5s-45.166 21.834 -62.499 36.501c-5.33301 5.33301 -8 11.333 -8 18c0 5.33301 1.33301 9.83301 4 13.5
s6 5.5 10 5.5c6 0 11.333 -2 16 -6c40 -29.333 77.333 -44 112 -44c29.333 0 52.5 6.5 69.5 19.5s25.5 33.5 25.5 61.5c0 54 -33.667 81 -101 81h-31c-6 0 -10.667 1.83301 -14 5.5s-5 7.83398 -5 12.501s1.66699 8.83398 5 12.501s8 5.5 14 5.5h21
c31.333 0 55.833 7 73.5 21s26.5 34.667 26.5 62c0 24 -7.16699 42.333 -21.5 55s-33.833 19 -58.5 19c-18 0 -35.833 -4 -53.5 -12s-36.5 -19 -56.5 -33c-5.33301 -4.66699 -10.666 -7 -15.999 -7c-4 0 -7.33301 2 -10 6s-4 8.66699 -4 14c0 7.33301 2.66699 13.333 8 18
c16.667 14.667 37.167 26.834 61.5 36.501s47.833 14.5 70.5 14.5c38.667 0 68.834 -10 90.501 -30s32.5 -46 32.5 -78c0 -24.667 -6.33301 -45.834 -19 -63.501s-28.667 -30.5 -48 -38.5c24 -6.66699 42.667 -18.667 56 -36zM257.998 -16.0029
c-5.33301 0 -9.99902 2 -13.999 6s-6 9 -6 15c0 4.66699 1.33301 9.33398 4 14.001l397 688c4.66699 9.33301 11.667 14 21 14c5.33301 0 10.166 -2 14.499 -6s6.5 -9 6.5 -15c0 -4.66699 -1.33301 -9.33398 -4 -14.001l-398 -688c-4.66699 -9.33301 -11.667 -14 -21 -14z
M890.999 111.997c0 -12 -6.99902 -17.9971 -20.999 -17.9971h-47v-75c0 -6.66699 -2.16699 -12 -6.5 -16s-9.5 -6 -15.5 -6c-7.33301 0 -13 2 -17 6s-6 9.33301 -6 16v75h-180c-6 0 -10.833 1.66699 -14.5 5s-5.5 7.66602 -5.5 12.999s1.66699 10.666 5 15.999l200 289
c4 6 10.333 9 19 9c5.33301 0 10.166 -1.83301 14.499 -5.5s6.5 -8.83398 6.5 -15.501v-274h47c14 0 21 -6.33301 21 -19zM630 131h148v214z" />
    <glyph glyph-name="questiondown" unicode="&#xbf;" horiz-adv-x="429" 
d="M205 425.5c-7.33301 7.66699 -11 17.167 -11 28.5c0 12 3.5 21.667 10.5 29s16.167 11 27.5 11s20.666 -3.66699 27.999 -11s11 -17 11 -29c0 -11.333 -3.66699 -20.833 -11 -28.5s-16.666 -11.5 -27.999 -11.5c-10.667 0 -19.667 3.83301 -27 11.5zM81 -147
c-33.333 26.667 -50.002 61.999 -50.002 105.999c0 35.333 7.33301 65.166 22 89.499s36.334 51.166 65.001 80.499c30.667 32 54.334 61.333 71.001 88s26.667 60.334 30 101.001c0 4 1.33301 7.33301 4 10s5.66699 4 9 4c8.66699 0 13 -5.33301 13 -16
c0 -31.333 -4.33301 -59.166 -13 -83.499s-19.334 -45.166 -32.001 -62.499s-29 -37.333 -49 -60c-26 -29.333 -45.167 -54.5 -57.5 -75.5s-18.5 -46.167 -18.5 -75.5c0 -32 12.5 -57.667 37.5 -77s58.167 -29 99.5 -29c34.667 0 66 6.5 94 19.5s59.667 34.167 95 63.5
c2 2 4.83301 3.83301 8.5 5.5s6.83398 2.5 9.50098 2.5c4 0 7.33301 -2 10 -6s4 -8.66699 4 -14c0 -8 -3.33301 -15.667 -10 -23c-26.667 -26.667 -58.834 -48 -96.501 -64s-75.167 -24 -112.5 -24c-55.333 0 -99.666 13.333 -132.999 40z" />
    <glyph glyph-name="Agrave" unicode="&#xc0;" horiz-adv-x="714" 
d="M678 12c0 -5.33301 -1.83203 -9.5 -5.49902 -12.5s-8.16699 -4.5 -13.5 -4.5c-10 0 -17 4.66699 -21 14l-81 186h-399l-82 -186c-4 -9.33301 -10.667 -14 -20 -14c-7.33301 0 -13 2.33301 -17 7s-4.66699 10.667 -2 18l296 675c4 10.667 12 16 24 16
c5.33301 0 10.166 -1.5 14.499 -4.5s7.5 -6.83301 9.5 -11.5l295 -675c1.33301 -4 2 -6.66699 2 -8zM175.001 235h364l-182 416zM223.001 867c-10 9.33301 -15 18.666 -15 27.999c0 6.66699 2.33301 12.334 7 17.001s10.667 7 18 7c10.667 0 19.667 -4.66699 27 -14
l106 -121c2.66699 -3.33301 4 -7 4 -11c0 -3.33301 -1.33301 -6.33301 -4 -9s-6 -4 -10 -4s-7.33301 1.33301 -10 4z" />
    <glyph glyph-name="Aacute" unicode="&#xc1;" horiz-adv-x="714" 
d="M678 12c0 -5.33301 -1.83203 -9.5 -5.49902 -12.5s-8.16699 -4.5 -13.5 -4.5c-10 0 -17 4.66699 -21 14l-81 186h-399l-82 -186c-4 -9.33301 -10.667 -14 -20 -14c-7.33301 0 -13 2.33301 -17 7s-4.66699 10.667 -2 18l296 675c4 10.667 12 16 24 16
c5.33301 0 10.166 -1.5 14.499 -4.5s7.5 -6.83301 9.5 -11.5l295 -675c1.33301 -4 2 -6.66699 2 -8zM175.001 235h364l-182 416zM358.001 760c-4 0 -7.33301 1.33398 -10 4.00098s-4 6 -4 10s1.33301 7.33301 4 10l106 121c7.33301 9.33301 16 14 26 14
c7.33301 0 13.333 -2.33301 18 -7s7 -10.334 7 -17.001c0 -10 -4.66699 -19.333 -14 -28l-123 -103c-2.66699 -2.66699 -6 -4 -10 -4z" />
    <glyph glyph-name="Acircumflex" unicode="&#xc2;" horiz-adv-x="714" 
d="M678 12c0 -5.33301 -1.83203 -9.5 -5.49902 -12.5s-8.16699 -4.5 -13.5 -4.5c-10 0 -17 4.66699 -21 14l-81 186h-399l-82 -186c-4 -9.33301 -10.667 -14 -20 -14c-7.33301 0 -13 2.33301 -17 7s-4.66699 10.667 -2 18l296 675c4 10.667 12 16 24 16
c5.33301 0 10.166 -1.5 14.499 -4.5s7.5 -6.83301 9.5 -11.5l295 -675c1.33301 -4 2 -6.66699 2 -8zM175.001 235h364l-182 416zM248.001 760c-6 0 -11.002 2.16699 -15.002 6.5s-6 9.5 -6 15.5c0 6.66699 2.33301 12.667 7 18l94 105c8.66699 9.33301 18.334 14 29.001 14
c10 0 19.667 -4.66699 29 -14l94 -105c4.66699 -5.33301 7 -11.333 7 -18c0 -6 -2.16699 -11.167 -6.5 -15.5s-9.16602 -6.5 -14.499 -6.5c-6 0 -11.333 2.66699 -16 8l-93 109l-93 -109c-4.66699 -5.33301 -10 -8 -16 -8z" />
    <glyph glyph-name="Atilde" unicode="&#xc3;" horiz-adv-x="714" 
d="M678 12c0 -5.33301 -1.83203 -9.5 -5.49902 -12.5s-8.16699 -4.5 -13.5 -4.5c-10 0 -17 4.66699 -21 14l-81 186h-399l-82 -186c-4 -9.33301 -10.667 -14 -20 -14c-7.33301 0 -13 2.33301 -17 7s-4.66699 10.667 -2 18l296 675c4 10.667 12 16 24 16
c5.33301 0 10.166 -1.5 14.499 -4.5s7.5 -6.83301 9.5 -11.5l295 -675c1.33301 -4 2 -6.66699 2 -8zM175.001 235h364l-182 416zM389.501 803c-12.333 4.66699 -27.168 11.335 -44.501 20.002c-26.667 14 -45.334 21 -56.001 21c-13.333 0 -23.5 -2.83301 -30.5 -8.5
s-13.833 -13.5 -20.5 -23.5c-6 -9.33301 -11 -14 -15 -14c-4.66699 0 -8.66699 1.83301 -12 5.5s-5 7.83398 -5 12.501c0 10 3.33301 20.667 10 32s16.334 20.666 29.001 27.999s27.334 11 44.001 11c11.333 0 23.166 -2.33301 35.499 -7s27.166 -11.334 44.499 -20.001
c26.667 -14 45.334 -21 56.001 -21c13.333 0 23.5 2.66699 30.5 8s13.833 13 20.5 23c6 9.33301 11 14 15 14c4.66699 0 8.66699 -1.83301 12 -5.5s5 -7.83398 5 -12.501c0 -16.667 -7.66699 -32.5 -23 -47.5s-35.333 -22.5 -60 -22.5c-11.333 0 -23.166 2.33301 -35.499 7z
" />
    <glyph glyph-name="Adieresis" unicode="&#xc4;" horiz-adv-x="714" 
d="M678 12c0 -5.33301 -1.83203 -9.5 -5.49902 -12.5s-8.16699 -4.5 -13.5 -4.5c-10 0 -17 4.66699 -21 14l-81 186h-399l-82 -186c-4 -9.33301 -10.667 -14 -20 -14c-7.33301 0 -13 2.33301 -17 7s-4.66699 10.667 -2 18l296 675c4 10.667 12 16 24 16
c5.33301 0 10.166 -1.5 14.499 -4.5s7.5 -6.83301 9.5 -11.5l295 -675c1.33301 -4 2 -6.66699 2 -8zM175.001 235h364l-182 416zM251.501 816c-7 6.66699 -10.5 15 -10.5 25s3.5 18.333 10.5 25s15.5 10 25.5 10c9.33301 0 17.5 -3.33301 24.5 -10s10.5 -15 10.5 -25
s-3.33301 -18.333 -10 -25s-15 -10 -25 -10s-18.5 3.33301 -25.5 10zM412.001 816c-6.66699 6.66699 -10 15 -10 25s3.5 18.333 10.5 25s15.167 10 24.5 10c10 0 18.5 -3.33301 25.5 -10s10.5 -15 10.5 -25s-3.5 -18.333 -10.5 -25s-15.5 -10 -25.5 -10
s-18.333 3.33301 -25 10z" />
    <glyph glyph-name="Aring" unicode="&#xc5;" horiz-adv-x="714" 
d="M678 13c0 -5.33301 -2.00293 -9.66699 -6.00293 -13s-8.66699 -5 -14 -5c-9.33301 0 -16 4.66699 -20 14l-81 186h-399l-82 -186c-4 -9.33301 -10.667 -14 -20 -14c-6.66699 0 -12.167 2.5 -16.5 7.5s-5.16602 10.833 -2.49902 17.5l290 661c-20 6 -36.167 17 -48.5 33
s-18.5 34.667 -18.5 56c0 26.667 9.5 49.167 28.5 67.5s41.833 27.5 68.5 27.5s49.334 -9.16699 68.001 -27.5s28 -40.833 28 -67.5c0 -20.667 -6.16699 -39.167 -18.5 -55.5s-28.166 -27.5 -47.499 -33.5l289 -661c1.33301 -4 2 -6.33301 2 -7zM320.497 732.499
c9.66699 -10.333 21.834 -15.5 36.501 -15.5s26.834 5.16699 36.501 15.5s14.5 22.833 14.5 37.5c0 15.333 -4.83301 28 -14.5 38s-21.834 15 -36.501 15s-26.834 -5 -36.501 -15s-14.5 -22.667 -14.5 -38c0 -14.667 4.83301 -27.167 14.5 -37.5zM174.997 234.999h364
l-182 416z" />
    <glyph glyph-name="AE" unicode="&#xc6;" horiz-adv-x="986" 
d="M929 34.5c3.33301 -3.66699 4.99805 -8.50098 4.99805 -14.501s-1.66699 -10.833 -5 -14.5s-7.66602 -5.5 -12.999 -5.5h-318c-11.333 0 -19.666 9.33301 -24.999 28l-35 167h-369l-112 -186c-5.33301 -9.33301 -13 -14 -23 -14c-5.33301 0 -9.66602 1.33301 -12.999 4
s-5 6.33398 -5 11.001c0 2.66699 1 6 3 10l409 675c3.33301 4.66699 6.83301 7.5 10.5 8.5s8.5 1.5 14.5 1.5h463c5.33301 0 9.66602 -1.83301 12.999 -5.5s5 -8.5 5 -14.5s-1.66699 -10.833 -5 -14.5s-7.66602 -5.5 -12.999 -5.5h-438l61 -288h357
c5.33301 0 9.66602 -1.66699 12.999 -5s5 -8 5 -14s-1.66699 -10.833 -5 -14.5s-7.66602 -5.5 -12.999 -5.5h-349l63 -298h306c5.33301 0 9.66602 -1.83301 12.999 -5.5zM192.998 234.999h337l-87 414z" />
    <glyph glyph-name="Ccedilla" unicode="&#xc7;" horiz-adv-x="677" 
d="M619 119.5c2.66699 -3.66699 4.00098 -8.16602 4.00098 -13.499c0 -9.33301 -3.33301 -17.333 -10 -24c-26 -27.333 -58.5 -48.833 -97.5 -64.5s-80.167 -24.167 -123.5 -25.5l-4 -38c8.66699 3.33301 18.334 5 29.001 5c20 0 37.333 -5.66699 52 -17
s22 -28.666 22 -51.999s-9.66699 -42.5 -29 -57.5s-46 -22.5 -80 -22.5c-24.667 0 -46.667 4 -66 12c-5.33301 2 -9.33301 4.83301 -12 8.5s-4 7.5 -4 11.5c0 4.66699 1.83301 8.5 5.5 11.5s8.5 4.5 14.5 4.5c4 0 7.33301 -0.333008 10 -1c19.333 -5.33301 38 -8 56 -8
c21.333 0 37.166 3.66699 47.499 11s15.5 17.333 15.5 30c0 9.33301 -3 16.833 -9 22.5s-14.333 8.5 -25 8.5c-8.66699 0 -18.834 -1.83301 -30.501 -5.5s-19.167 -5.5 -22.5 -5.5c-4.66699 0 -9.16699 1.66699 -13.5 5s-6.16602 7.66602 -5.49902 12.999l7 65
c-88.667 7.33301 -158 42.666 -208 105.999s-75 148 -75 254c0 74 12.667 138 38 192s61.666 95.5 108.999 124.5s103.333 43.5 168 43.5c44.667 0 87.5 -8 128.5 -24s75.167 -38 102.5 -66c6.66699 -6.66699 10 -14.667 10 -24c0 -5.33301 -1.33301 -9.83301 -4 -13.5
s-6 -5.5 -10 -5.5c-5.33301 0 -11 2.66699 -17 8c-38 32 -72.5 54 -103.5 66s-67.167 18 -108.5 18c-84.667 0 -150.5 -28 -197.5 -84s-70.5 -134.333 -70.5 -235c0 -101.333 23.333 -180 70 -236s112.667 -84 198 -84c42 0 78.333 6 109 18s65 34 103 66
c7.33301 5.33301 13 8 17 8s7.33301 -1.83301 10 -5.5z" />
    <glyph glyph-name="Egrave" unicode="&#xc8;" horiz-adv-x="576" 
d="M103.5 7c-5 4.66699 -7.5 9.66699 -7.5 15v661c0 6 2.5 11.167 7.5 15.5s10.833 6.5 17.5 6.5h385c5.33301 0 9.66602 -1.83301 12.999 -5.5s5 -8.5 5 -14.5c0 -5.33301 -1.66699 -9.83301 -5 -13.5s-7.66602 -5.5 -12.999 -5.5h-368v-289h348
c5.33301 0 9.66602 -1.66699 12.999 -5s5 -8 5 -14s-1.66699 -10.833 -5 -14.5s-7.66602 -5.5 -12.999 -5.5h-348v-299h368c5.33301 0 9.66602 -1.66699 12.999 -5s5 -8 5 -14s-1.66699 -10.833 -5 -14.5s-7.66602 -5.5 -12.999 -5.5h-385
c-6.66699 -0 -12.5 2.33301 -17.5 7zM186 867c-10 9.33301 -15 18.666 -15 27.999c0 6.66699 2.33301 12.334 7 17.001s10.667 7 18 7c10.667 0 19.667 -4.66699 27 -14l106 -121c2.66699 -3.33301 4 -7 4 -11c0 -3.33301 -1.33301 -6.33301 -4 -9s-6 -4 -10 -4
s-7.33301 1.33301 -10 4z" />
    <glyph glyph-name="Eacute" unicode="&#xc9;" horiz-adv-x="576" 
d="M103.5 7c-5 4.66699 -7.5 9.66699 -7.5 15v661c0 6 2.5 11.167 7.5 15.5s10.833 6.5 17.5 6.5h385c5.33301 0 9.66602 -1.83301 12.999 -5.5s5 -8.5 5 -14.5c0 -5.33301 -1.66699 -9.83301 -5 -13.5s-7.66602 -5.5 -12.999 -5.5h-368v-289h348
c5.33301 0 9.66602 -1.66699 12.999 -5s5 -8 5 -14s-1.66699 -10.833 -5 -14.5s-7.66602 -5.5 -12.999 -5.5h-348v-299h368c5.33301 0 9.66602 -1.66699 12.999 -5s5 -8 5 -14s-1.66699 -10.833 -5 -14.5s-7.66602 -5.5 -12.999 -5.5h-385
c-6.66699 -0 -12.5 2.33301 -17.5 7zM321 760c-4 0 -7.33301 1.33398 -10 4.00098s-4 6 -4 10s1.33301 7.33301 4 10l106 121c7.33301 9.33301 16 14 26 14c7.33301 0 13.333 -2.33301 18 -7s7 -10.334 7 -17.001c0 -10 -4.66699 -19.333 -14 -28l-123 -103
c-2.66699 -2.66699 -6 -4 -10 -4z" />
    <glyph glyph-name="Ecircumflex" unicode="&#xca;" horiz-adv-x="576" 
d="M103.5 7c-5 4.66699 -7.5 9.66699 -7.5 15v661c0 6 2.5 11.167 7.5 15.5s10.833 6.5 17.5 6.5h385c5.33301 0 9.66602 -1.83301 12.999 -5.5s5 -8.5 5 -14.5c0 -5.33301 -1.66699 -9.83301 -5 -13.5s-7.66602 -5.5 -12.999 -5.5h-368v-289h348
c5.33301 0 9.66602 -1.66699 12.999 -5s5 -8 5 -14s-1.66699 -10.833 -5 -14.5s-7.66602 -5.5 -12.999 -5.5h-348v-299h368c5.33301 0 9.66602 -1.66699 12.999 -5s5 -8 5 -14s-1.66699 -10.833 -5 -14.5s-7.66602 -5.5 -12.999 -5.5h-385
c-6.66699 -0 -12.5 2.33301 -17.5 7zM211 760c-6 0 -11.002 2.16699 -15.002 6.5s-6 9.5 -6 15.5c0 6.66699 2.33301 12.667 7 18l94 105c8.66699 9.33301 18.334 14 29.001 14c10 0 19.667 -4.66699 29 -14l94 -105c4.66699 -5.33301 7 -11.333 7 -18
c0 -6 -2.16699 -11.167 -6.5 -15.5s-9.16602 -6.5 -14.499 -6.5c-6 0 -11.333 2.66699 -16 8l-93 109l-93 -109c-4.66699 -5.33301 -10 -8 -16 -8z" />
    <glyph glyph-name="Edieresis" unicode="&#xcb;" horiz-adv-x="576" 
d="M103.5 7c-5 4.66699 -7.5 9.66699 -7.5 15v661c0 6 2.5 11.167 7.5 15.5s10.833 6.5 17.5 6.5h385c5.33301 0 9.66602 -1.83301 12.999 -5.5s5 -8.5 5 -14.5c0 -5.33301 -1.66699 -9.83301 -5 -13.5s-7.66602 -5.5 -12.999 -5.5h-368v-289h348
c5.33301 0 9.66602 -1.66699 12.999 -5s5 -8 5 -14s-1.66699 -10.833 -5 -14.5s-7.66602 -5.5 -12.999 -5.5h-348v-299h368c5.33301 0 9.66602 -1.66699 12.999 -5s5 -8 5 -14s-1.66699 -10.833 -5 -14.5s-7.66602 -5.5 -12.999 -5.5h-385
c-6.66699 -0 -12.5 2.33301 -17.5 7zM214.5 816c-7 6.66699 -10.5 15 -10.5 25s3.5 18.333 10.5 25s15.5 10 25.5 10c9.33301 0 17.5 -3.33301 24.5 -10s10.5 -15 10.5 -25s-3.33301 -18.333 -10 -25s-15 -10 -25 -10s-18.5 3.33301 -25.5 10zM375 816
c-6.66699 6.66699 -10 15 -10 25s3.5 18.333 10.5 25s15.167 10 24.5 10c10 0 18.5 -3.33301 25.5 -10s10.5 -15 10.5 -25s-3.5 -18.333 -10.5 -25s-15.5 -10 -25.5 -10s-18.333 3.33301 -25 10z" />
    <glyph glyph-name="Igrave" unicode="&#xcc;" horiz-adv-x="233" 
d="M101.5 1.5c-3.66699 4.33301 -5.5 9.83301 -5.5 16.5v669c0 6.66699 1.83301 12.167 5.5 16.5s8.83398 6.5 15.501 6.5c6 0 10.833 -2.16699 14.5 -6.5s5.5 -9.83301 5.5 -16.5v-669c0 -6.66699 -1.83301 -12.167 -5.5 -16.5s-8.5 -6.5 -14.5 -6.5
c-6.66699 0 -11.834 2.16699 -15.501 6.5zM-17 867c-10 9.33301 -15 18.666 -15 27.999c0 6.66699 2.33301 12.334 7 17.001s10.667 7 18 7c10.667 0 19.667 -4.66699 27 -14l106 -121c2.66699 -3.33301 4 -7 4 -11c0 -3.33301 -1.33301 -6.33301 -4 -9s-6 -4 -10 -4
s-7.33301 1.33301 -10 4z" />
    <glyph glyph-name="Iacute" unicode="&#xcd;" horiz-adv-x="233" 
d="M101.5 1.5c-3.66699 4.33301 -5.5 9.83301 -5.5 16.5v669c0 6.66699 1.83301 12.167 5.5 16.5s8.83398 6.5 15.501 6.5c6 0 10.833 -2.16699 14.5 -6.5s5.5 -9.83301 5.5 -16.5v-669c0 -6.66699 -1.83301 -12.167 -5.5 -16.5s-8.5 -6.5 -14.5 -6.5
c-6.66699 0 -11.834 2.16699 -15.501 6.5zM118 760c-4 0 -7.33301 1.33398 -10 4.00098s-4 6 -4 10s1.33301 7.33301 4 10l106 121c7.33301 9.33301 16 14 26 14c7.33301 0 13.333 -2.33301 18 -7s7 -10.334 7 -17.001c0 -10 -4.66699 -19.333 -14 -28l-123 -103
c-2.66699 -2.66699 -6 -4 -10 -4z" />
    <glyph glyph-name="Icircumflex" unicode="&#xce;" horiz-adv-x="233" 
d="M101.5 1.5c-3.66699 4.33301 -5.5 9.83301 -5.5 16.5v669c0 6.66699 1.83301 12.167 5.5 16.5s8.83398 6.5 15.501 6.5c6 0 10.833 -2.16699 14.5 -6.5s5.5 -9.83301 5.5 -16.5v-669c0 -6.66699 -1.83301 -12.167 -5.5 -16.5s-8.5 -6.5 -14.5 -6.5
c-6.66699 0 -11.834 2.16699 -15.501 6.5zM8 760c-6 0 -11.002 2.16699 -15.002 6.5s-6 9.5 -6 15.5c0 6.66699 2.33301 12.667 7 18l94 105c8.66699 9.33301 18.334 14 29.001 14c10 0 19.667 -4.66699 29 -14l94 -105c4.66699 -5.33301 7 -11.333 7 -18
c0 -6 -2.16699 -11.167 -6.5 -15.5s-9.16602 -6.5 -14.499 -6.5c-6 0 -11.333 2.66699 -16 8l-93 109l-93 -109c-4.66699 -5.33301 -10 -8 -16 -8z" />
    <glyph glyph-name="Idieresis" unicode="&#xcf;" horiz-adv-x="233" 
d="M101.5 1.5c-3.66699 4.33301 -5.5 9.83301 -5.5 16.5v669c0 6.66699 1.83301 12.167 5.5 16.5s8.83398 6.5 15.501 6.5c6 0 10.833 -2.16699 14.5 -6.5s5.5 -9.83301 5.5 -16.5v-669c0 -6.66699 -1.83301 -12.167 -5.5 -16.5s-8.5 -6.5 -14.5 -6.5
c-6.66699 0 -11.834 2.16699 -15.501 6.5zM11.5 816c-7 6.66699 -10.5 15 -10.5 25s3.5 18.333 10.5 25s15.5 10 25.5 10c9.33301 0 17.5 -3.33301 24.5 -10s10.5 -15 10.5 -25s-3.33301 -18.333 -10 -25s-15 -10 -25 -10s-18.5 3.33301 -25.5 10zM172 816
c-6.66699 6.66699 -10 15 -10 25s3.5 18.333 10.5 25s15.167 10 24.5 10c10 0 18.5 -3.33301 25.5 -10s10.5 -15 10.5 -25s-3.5 -18.333 -10.5 -25s-15.5 -10 -25.5 -10s-18.333 3.33301 -25 10z" />
    <glyph glyph-name="Eth" unicode="&#xd0;" horiz-adv-x="729" 
d="M572 614.5c60 -60.333 90 -147.5 90 -261.5c0 -113.333 -30 -200.5 -90 -261.5s-145 -91.5 -255 -91.5h-192c-6.66699 -0 -12.5 2.33301 -17.5 7s-7.5 9.66699 -7.5 15v318h-81c-5.33301 0 -9.83301 1.5 -13.5 4.5s-5.5 7.5 -5.5 13.5s1.83301 10.667 5.5 14
s8.16699 5 13.5 5h81v306c0 6 2.5 11.167 7.5 15.5s10.833 6.5 17.5 6.5h192c110 0 195 -30.167 255 -90.5zM543.5 119c49 54 73.5 132 73.5 234c0 209.333 -100.333 314 -301 314h-175v-290h183c5.33301 0 9.5 -1.66699 12.5 -5s4.5 -8 4.5 -14c0 -12 -5.66699 -18 -17 -18
h-183v-302h175c102.667 0 178.5 27 227.5 81z" />
    <glyph glyph-name="Ntilde" unicode="&#xd1;" horiz-adv-x="732" 
d="M636 687l0.00195312 -668.999c0 -6.66699 -1.83301 -12.167 -5.5 -16.5s-8.83398 -6.5 -15.501 -6.5c-4.66699 0 -8.33398 1 -11.001 3s-5.66699 5.33301 -9 10l-460 626v-616c0 -6.66699 -1.83301 -12.167 -5.5 -16.5s-8.5 -6.5 -14.5 -6.5
c-12.667 0 -19 7.66699 -19 23v669c0 6.66699 1.83301 12.167 5.5 16.5s9.16699 6.5 16.5 6.5c4.66699 0 8.16699 -0.833008 10.5 -2.5s5.5 -4.83398 9.5 -9.50098l459 -626v615c0 6.66699 1.83301 12.167 5.5 16.5s8.5 6.5 14.5 6.5c12.667 0 19 -7.66699 19 -23z
M398.502 803.001c-12.333 4.66699 -27.168 11.335 -44.501 20.002c-26.667 14 -45.334 21 -56.001 21c-13.333 0 -23.5 -2.83301 -30.5 -8.5s-13.833 -13.5 -20.5 -23.5c-6 -9.33301 -11 -14 -15 -14c-4.66699 0 -8.66699 1.83301 -12 5.5s-5 7.83398 -5 12.501
c0 10 3.33301 20.667 10 32s16.334 20.666 29.001 27.999s27.334 11 44.001 11c11.333 0 23.166 -2.33301 35.499 -7s27.166 -11.334 44.499 -20.001c26.667 -14 45.334 -21 56.001 -21c13.333 0 23.5 2.66699 30.5 8s13.833 13 20.5 23c6 9.33301 11 14 15 14
c4.66699 0 8.66699 -1.83301 12 -5.5s5 -7.83398 5 -12.501c0 -16.667 -7.66699 -32.5 -23 -47.5s-35.333 -22.5 -60 -22.5c-11.333 0 -23.166 2.33301 -35.499 7z" />
    <glyph glyph-name="Ograve" unicode="&#xd2;" horiz-adv-x="751" 
d="M211.5 35.5c-46.333 29 -82.001 70.668 -107.001 125.001s-37.5 118.166 -37.5 191.499c0 74 12.333 138.167 37 192.5s60.167 96 106.5 125s101.166 43.5 164.499 43.5s118.333 -14.5 165 -43.5s82.334 -70.5 107.001 -124.5s37 -118 37 -192
s-12.5 -138.167 -37.5 -192.5s-60.667 -96 -107 -125s-101.166 -43.5 -164.499 -43.5c-62.667 0 -117.167 14.5 -163.5 43.5zM569.999 117.001c46 56 69.001 134.667 69.001 236s-22.833 179.833 -68.5 235.5s-110.834 83.5 -195.501 83.5
c-83.333 0 -148 -27.833 -194 -83.5s-69 -134.167 -69 -235.5s23 -180 69 -236s110.667 -84 194 -84c84 0 149 28 195 84zM241 867.001c-10 9.33301 -15 18.666 -15 27.999c0 6.66699 2.33301 12.334 7 17.001s10.667 7 18 7c10.667 0 19.667 -4.66699 27 -14l106 -121
c2.66699 -3.33301 4 -7 4 -11c0 -3.33301 -1.33301 -6.33301 -4 -9s-6 -4 -10 -4s-7.33301 1.33301 -10 4z" />
    <glyph glyph-name="Oacute" unicode="&#xd3;" horiz-adv-x="751" 
d="M211.5 35.5c-46.333 29 -82.001 70.668 -107.001 125.001s-37.5 118.166 -37.5 191.499c0 74 12.333 138.167 37 192.5s60.167 96 106.5 125s101.166 43.5 164.499 43.5s118.333 -14.5 165 -43.5s82.334 -70.5 107.001 -124.5s37 -118 37 -192
s-12.5 -138.167 -37.5 -192.5s-60.667 -96 -107 -125s-101.166 -43.5 -164.499 -43.5c-62.667 0 -117.167 14.5 -163.5 43.5zM569.999 117.001c46 56 69.001 134.667 69.001 236s-22.833 179.833 -68.5 235.5s-110.834 83.5 -195.501 83.5
c-83.333 0 -148 -27.833 -194 -83.5s-69 -134.167 -69 -235.5s23 -180 69 -236s110.667 -84 194 -84c84 0 149 28 195 84zM376 760.001c-4 0 -7.33301 1.33398 -10 4.00098s-4 6 -4 10s1.33301 7.33301 4 10l106 121c7.33301 9.33301 16 14 26 14
c7.33301 0 13.333 -2.33301 18 -7s7 -10.334 7 -17.001c0 -10 -4.66699 -19.333 -14 -28l-123 -103c-2.66699 -2.66699 -6 -4 -10 -4z" />
    <glyph glyph-name="Ocircumflex" unicode="&#xd4;" horiz-adv-x="751" 
d="M211.5 35.5c-46.333 29 -82.001 70.668 -107.001 125.001s-37.5 118.166 -37.5 191.499c0 74 12.333 138.167 37 192.5s60.167 96 106.5 125s101.166 43.5 164.499 43.5s118.333 -14.5 165 -43.5s82.334 -70.5 107.001 -124.5s37 -118 37 -192
s-12.5 -138.167 -37.5 -192.5s-60.667 -96 -107 -125s-101.166 -43.5 -164.499 -43.5c-62.667 0 -117.167 14.5 -163.5 43.5zM569.999 117.001c46 56 69.001 134.667 69.001 236s-22.833 179.833 -68.5 235.5s-110.834 83.5 -195.501 83.5
c-83.333 0 -148 -27.833 -194 -83.5s-69 -134.167 -69 -235.5s23 -180 69 -236s110.667 -84 194 -84c84 0 149 28 195 84zM266 760.001c-6 0 -11.002 2.16699 -15.002 6.5s-6 9.5 -6 15.5c0 6.66699 2.33301 12.667 7 18l94 105c8.66699 9.33301 18.334 14 29.001 14
c10 0 19.667 -4.66699 29 -14l94 -105c4.66699 -5.33301 7 -11.333 7 -18c0 -6 -2.16699 -11.167 -6.5 -15.5s-9.16602 -6.5 -14.499 -6.5c-6 0 -11.333 2.66699 -16 8l-93 109l-93 -109c-4.66699 -5.33301 -10 -8 -16 -8z" />
    <glyph glyph-name="Otilde" unicode="&#xd5;" horiz-adv-x="751" 
d="M211.5 35.5c-46.333 29 -82.001 70.668 -107.001 125.001s-37.5 118.166 -37.5 191.499c0 74 12.333 138.167 37 192.5s60.167 96 106.5 125s101.166 43.5 164.499 43.5s118.333 -14.5 165 -43.5s82.334 -70.5 107.001 -124.5s37 -118 37 -192
s-12.5 -138.167 -37.5 -192.5s-60.667 -96 -107 -125s-101.166 -43.5 -164.499 -43.5c-62.667 0 -117.167 14.5 -163.5 43.5zM569.999 117.001c46 56 69.001 134.667 69.001 236s-22.833 179.833 -68.5 235.5s-110.834 83.5 -195.501 83.5
c-83.333 0 -148 -27.833 -194 -83.5s-69 -134.167 -69 -235.5s23 -180 69 -236s110.667 -84 194 -84c84 0 149 28 195 84zM407.5 803.001c-12.333 4.66699 -27.168 11.335 -44.501 20.002c-26.667 14 -45.334 21 -56.001 21c-13.333 0 -23.5 -2.83301 -30.5 -8.5
s-13.833 -13.5 -20.5 -23.5c-6 -9.33301 -11 -14 -15 -14c-4.66699 0 -8.66699 1.83301 -12 5.5s-5 7.83398 -5 12.501c0 10 3.33301 20.667 10 32s16.334 20.666 29.001 27.999s27.334 11 44.001 11c11.333 0 23.166 -2.33301 35.499 -7s27.166 -11.334 44.499 -20.001
c26.667 -14 45.334 -21 56.001 -21c13.333 0 23.5 2.66699 30.5 8s13.833 13 20.5 23c6 9.33301 11 14 15 14c4.66699 0 8.66699 -1.83301 12 -5.5s5 -7.83398 5 -12.501c0 -16.667 -7.66699 -32.5 -23 -47.5s-35.333 -22.5 -60 -22.5c-11.333 0 -23.166 2.33301 -35.499 7z
" />
    <glyph glyph-name="Odieresis" unicode="&#xd6;" horiz-adv-x="751" 
d="M211.5 35.5c-46.333 29 -82.001 70.668 -107.001 125.001s-37.5 118.166 -37.5 191.499c0 74 12.333 138.167 37 192.5s60.167 96 106.5 125s101.166 43.5 164.499 43.5s118.333 -14.5 165 -43.5s82.334 -70.5 107.001 -124.5s37 -118 37 -192
s-12.5 -138.167 -37.5 -192.5s-60.667 -96 -107 -125s-101.166 -43.5 -164.499 -43.5c-62.667 0 -117.167 14.5 -163.5 43.5zM569.999 117.001c46 56 69.001 134.667 69.001 236s-22.833 179.833 -68.5 235.5s-110.834 83.5 -195.501 83.5
c-83.333 0 -148 -27.833 -194 -83.5s-69 -134.167 -69 -235.5s23 -180 69 -236s110.667 -84 194 -84c84 0 149 28 195 84zM269.5 816.001c-7 6.66699 -10.5 15 -10.5 25s3.5 18.333 10.5 25s15.5 10 25.5 10c9.33301 0 17.5 -3.33301 24.5 -10s10.5 -15 10.5 -25
s-3.33301 -18.333 -10 -25s-15 -10 -25 -10s-18.5 3.33301 -25.5 10zM430 816.001c-6.66699 6.66699 -10 15 -10 25s3.5 18.333 10.5 25s15.167 10 24.5 10c10 0 18.5 -3.33301 25.5 -10s10.5 -15 10.5 -25s-3.5 -18.333 -10.5 -25s-15.5 -10 -25.5 -10
s-18.333 3.33301 -25 10z" />
    <glyph glyph-name="multiply" unicode="&#xd7;" 
d="M525 78c0 -6 -2.66895 -11.666 -8.00195 -16.999c-3.33301 -3.33301 -6.66602 -5 -9.99902 -5c-5.33301 0 -11 3 -17 9l-190 190l-190 -190c-6 -4.66699 -12 -7 -18 -7c-5.33301 0 -10 2 -14 6c-2.66699 4 -4 7.66699 -4 11c0 6 2.66699 11.667 8 17l190 191l-190 191
c-4.66699 4.66699 -7 10 -7 16c0 5.33301 2 10 6 14c2.66699 3.33301 6.66699 5 12 5c6.66699 0 12.334 -2.33301 17.001 -7l190 -191l190 191c4.66699 4.66699 10 7 16 7c6.66699 0 12 -2.33301 16 -7c2.66699 -2.66699 4 -6 4 -10c0 -6.66699 -2.66699 -12.667 -8 -18
l-190 -191l190 -191c4.66699 -4.66699 7 -9.33398 7 -14.001z" />
    <glyph glyph-name="Oslash" unicode="&#xd8;" horiz-adv-x="751" 
d="M654.5 526.5c19.667 -50.333 29.498 -108.166 29.498 -173.499c0 -74 -12.5 -138.167 -37.5 -192.5s-60.667 -96 -107 -125s-101.166 -43.5 -164.499 -43.5c-61.333 0 -115.666 14.333 -162.999 43l-32 -55c-4 -6.66699 -9.33301 -10 -16 -10
c-5.33301 0 -10 1.83301 -14 5.5s-6 7.83398 -6 12.501c0 3.33301 1 6.66602 3 9.99902l35 59c-37.333 31.333 -65.833 72 -85.5 122s-29.5 107.667 -29.5 173c0 74 12.333 138.167 37 192.5s60.167 96 106.5 125s101.166 43.5 164.499 43.5c62 0 116.667 -14.333 164 -43
l33 57c3.33301 5.33301 8.33301 8 15 8c5.33301 0 10 -1.83301 14 -5.5s6 -7.83398 6 -12.501c0 -4 -0.666992 -7 -2 -9l-35 -60c36.667 -30.667 64.834 -71.167 84.501 -121.5zM135.498 200.5c15.667 -43.667 38.167 -79.167 67.5 -106.5l315 541
c-40 24.667 -87.667 37 -143 37c-83.333 0 -148 -27.833 -194 -83.5s-69 -134.167 -69 -235.5c0 -58 7.83301 -108.833 23.5 -152.5zM569.998 117c46 56 69 134.667 69 236c0 58.667 -7.66699 109.667 -23 153s-37.666 78.333 -66.999 105l-316 -540
c39.333 -25.333 86.666 -38 141.999 -38c84 0 149 28 195 84z" />
    <glyph glyph-name="Ugrave" unicode="&#xd9;" horiz-adv-x="715" 
d="M158.5 61.5c-45 46.333 -67.501 114.833 -67.501 205.5v420c0 7.33301 1.83301 13 5.5 17s8.83398 6 15.501 6c6 0 10.833 -2.16699 14.5 -6.5s5.5 -9.83301 5.5 -16.5v-427c0 -151.333 75.333 -227 226 -227c74 0 130 19 168 57s57 94.667 57 170v427
c0 6.66699 2.16699 12.167 6.5 16.5s9.16602 6.5 14.499 6.5c6 0 11 -2.16699 15 -6.5s6 -9.83301 6 -16.5v-420c0 -90.667 -22.667 -159.167 -68 -205.5s-111.666 -69.5 -198.999 -69.5c-88 0 -154.5 23.167 -199.5 69.5zM223.999 867c-10 9.33301 -15 18.666 -15 27.999
c0 6.66699 2.33301 12.334 7 17.001s10.667 7 18 7c10.667 0 19.667 -4.66699 27 -14l106 -121c2.66699 -3.33301 4 -7 4 -11c0 -3.33301 -1.33301 -6.33301 -4 -9s-6 -4 -10 -4s-7.33301 1.33301 -10 4z" />
    <glyph glyph-name="Uacute" unicode="&#xda;" horiz-adv-x="715" 
d="M158.5 61.5c-45 46.333 -67.501 114.833 -67.501 205.5v420c0 7.33301 1.83301 13 5.5 17s8.83398 6 15.501 6c6 0 10.833 -2.16699 14.5 -6.5s5.5 -9.83301 5.5 -16.5v-427c0 -151.333 75.333 -227 226 -227c74 0 130 19 168 57s57 94.667 57 170v427
c0 6.66699 2.16699 12.167 6.5 16.5s9.16602 6.5 14.499 6.5c6 0 11 -2.16699 15 -6.5s6 -9.83301 6 -16.5v-420c0 -90.667 -22.667 -159.167 -68 -205.5s-111.666 -69.5 -198.999 -69.5c-88 0 -154.5 23.167 -199.5 69.5zM358.999 760c-4 0 -7.33301 1.33398 -10 4.00098
s-4 6 -4 10s1.33301 7.33301 4 10l106 121c7.33301 9.33301 16 14 26 14c7.33301 0 13.333 -2.33301 18 -7s7 -10.334 7 -17.001c0 -10 -4.66699 -19.333 -14 -28l-123 -103c-2.66699 -2.66699 -6 -4 -10 -4z" />
    <glyph glyph-name="Ucircumflex" unicode="&#xdb;" horiz-adv-x="715" 
d="M158.5 61.5c-45 46.333 -67.501 114.833 -67.501 205.5v420c0 7.33301 1.83301 13 5.5 17s8.83398 6 15.501 6c6 0 10.833 -2.16699 14.5 -6.5s5.5 -9.83301 5.5 -16.5v-427c0 -151.333 75.333 -227 226 -227c74 0 130 19 168 57s57 94.667 57 170v427
c0 6.66699 2.16699 12.167 6.5 16.5s9.16602 6.5 14.499 6.5c6 0 11 -2.16699 15 -6.5s6 -9.83301 6 -16.5v-420c0 -90.667 -22.667 -159.167 -68 -205.5s-111.666 -69.5 -198.999 -69.5c-88 0 -154.5 23.167 -199.5 69.5zM248.999 760c-6 0 -11.002 2.16699 -15.002 6.5
s-6 9.5 -6 15.5c0 6.66699 2.33301 12.667 7 18l94 105c8.66699 9.33301 18.334 14 29.001 14c10 0 19.667 -4.66699 29 -14l94 -105c4.66699 -5.33301 7 -11.333 7 -18c0 -6 -2.16699 -11.167 -6.5 -15.5s-9.16602 -6.5 -14.499 -6.5c-6 0 -11.333 2.66699 -16 8l-93 109
l-93 -109c-4.66699 -5.33301 -10 -8 -16 -8z" />
    <glyph glyph-name="Udieresis" unicode="&#xdc;" horiz-adv-x="715" 
d="M158.5 61.5c-45 46.333 -67.501 114.833 -67.501 205.5v420c0 7.33301 1.83301 13 5.5 17s8.83398 6 15.501 6c6 0 10.833 -2.16699 14.5 -6.5s5.5 -9.83301 5.5 -16.5v-427c0 -151.333 75.333 -227 226 -227c74 0 130 19 168 57s57 94.667 57 170v427
c0 6.66699 2.16699 12.167 6.5 16.5s9.16602 6.5 14.499 6.5c6 0 11 -2.16699 15 -6.5s6 -9.83301 6 -16.5v-420c0 -90.667 -22.667 -159.167 -68 -205.5s-111.666 -69.5 -198.999 -69.5c-88 0 -154.5 23.167 -199.5 69.5zM252.499 816c-7 6.66699 -10.5 15 -10.5 25
s3.5 18.333 10.5 25s15.5 10 25.5 10c9.33301 0 17.5 -3.33301 24.5 -10s10.5 -15 10.5 -25s-3.33301 -18.333 -10 -25s-15 -10 -25 -10s-18.5 3.33301 -25.5 10zM412.999 816c-6.66699 6.66699 -10 15 -10 25s3.5 18.333 10.5 25s15.167 10 24.5 10
c10 0 18.5 -3.33301 25.5 -10s10.5 -15 10.5 -25s-3.5 -18.333 -10.5 -25s-15.5 -10 -25.5 -10s-18.333 3.33301 -25 10z" />
    <glyph glyph-name="Yacute" unicode="&#xdd;" horiz-adv-x="581" 
d="M554 709c4.66699 0 8.83496 -1.99902 12.502 -5.99902s5.5 -8.33301 5.5 -13c0 -4 -1.66699 -8.66699 -5 -14l-256 -334v-324c0 -6.66699 -1.83301 -12.167 -5.5 -16.5s-8.83398 -6.5 -15.501 -6.5s-11.834 2.16699 -15.501 6.5s-5.5 9.83301 -5.5 16.5v325l-256 333
c-2.66699 3.33301 -4 7.66602 -4 12.999s1.83301 10 5.5 14s7.83398 6 12.501 6c6 0 11.333 -3 16 -9l248 -323l247 323c5.33301 6 10.666 9 15.999 9zM291.001 760.001c-4 0 -7.33301 1.33398 -10 4.00098s-4 6 -4 10s1.33301 7.33301 4 10l106 121
c7.33301 9.33301 16 14 26 14c7.33301 0 13.333 -2.33301 18 -7s7 -10.334 7 -17.001c0 -10 -4.66699 -19.333 -14 -28l-123 -103c-2.66699 -2.66699 -6 -4 -10 -4z" />
    <glyph glyph-name="Thorn" unicode="&#xde;" horiz-adv-x="632" 
d="M522.5 495.5c37.667 -31.667 56.5 -76.832 56.5 -135.499s-19 -104.334 -57 -137.001s-91.667 -49 -161 -49h-223v-156c0 -6.66699 -2 -12.167 -6 -16.5s-9 -6.5 -15 -6.5c-6.66699 0 -11.834 2 -15.501 6s-5.5 9.66699 -5.5 17v669c0 7.33301 1.83301 13 5.5 17
s8.83398 6 15.501 6c6 0 11 -2.16699 15 -6.5s6 -9.83301 6 -16.5v-144h223c70 0 123.833 -15.833 161.5 -47.5zM492 250.002c28.667 24 43 60.666 43 109.999c0 48.667 -14.333 84.834 -43 108.501s-72.334 35.5 -131.001 35.5h-223v-290h223
c58.667 0 102.334 12 131.001 36z" />
    <glyph glyph-name="germandbls" unicode="&#xdf;" horiz-adv-x="581" 
d="M302 5c-25.333 8 -47.6582 18.3311 -66.9912 30.998c-13.333 9.33301 -22.333 16.833 -27 22.5s-7 11.834 -7 18.501c0 4.66699 1.66699 8.83398 5 12.501s7.33301 5.5 12 5.5c3.33301 0 8.16602 -2 14.499 -6s10.166 -6.66699 11.499 -8
c19.333 -14 38.666 -25.333 57.999 -34s43.333 -13 72 -13c39.333 0 70.166 8.16699 92.499 24.5s33.5 38.833 33.5 67.5c0 19.333 -5.33301 35.333 -16 48s-24 22.667 -40 30s-37.667 15.666 -65 24.999c-31.333 10.667 -56.333 20.667 -75 30s-34.5 22.333 -47.5 39
s-19.5 38.334 -19.5 65.001c0 24.667 6.66699 45.667 20 63s32.666 36 57.999 56c24.667 20 42.834 37.5 54.501 52.5s17.5 33.167 17.5 54.5c0 24.667 -9 44 -27 58s-43 21 -75 21c-50.667 0 -89.667 -14.833 -117 -44.5s-41 -72.167 -41 -127.5v-478
c0 -7.33301 -1.83301 -13 -5.5 -17s-8.83398 -6 -15.501 -6s-11.834 2 -15.501 6s-5.5 9.66699 -5.5 17v477c0 66.667 17.5 119 52.5 157s83.5 57 145.5 57c45.333 0 81.166 -11 107.499 -33s39.5 -51.667 39.5 -89c0 -28 -7.16699 -51.5 -21.5 -70.5
s-35.5 -40.5 -63.5 -64.5c-21.333 -18 -37 -33 -47 -45s-15 -25.667 -15 -41c0 -18 5.16699 -33 15.5 -45s23.166 -21.667 38.499 -29s36.333 -16 63 -26c31.333 -11.333 56.666 -22 75.999 -32s35.833 -24 49.5 -42s20.5 -40.667 20.5 -68c0 -38.667 -16 -70.167 -48 -94.5
s-73.333 -36.5 -124 -36.5c-22.667 0 -46.667 4 -72 12z" />
    <glyph glyph-name="agrave" unicode="&#xe0;" horiz-adv-x="521" 
d="M438 317l0.00195312 -298c0 -7.33301 -1.83301 -13 -5.5 -17s-8.83398 -6 -15.501 -6s-12 2.16699 -16 6.5s-6 9.83301 -6 16.5v70c-14.667 -30.667 -35.834 -54.334 -63.501 -71.001s-59.167 -25 -94.5 -25c-30.667 0 -58.834 6.33301 -84.501 19s-46 30.167 -61 52.5
s-22.5 46.833 -22.5 73.5c0 36 9.5 63.833 28.5 83.5s50.333 33.834 94 42.501s104.834 13 183.501 13h20v42c0 47.333 -9.5 81.833 -28.5 103.5s-48.833 32.5 -89.5 32.5c-32 0 -60.5 -4.16699 -85.5 -12.5s-44.833 -17.833 -59.5 -28.5
c-2.66699 -2 -8.16699 -5.83301 -16.5 -11.5s-15.166 -8.5 -20.499 -8.5c-4.66699 0 -8.83398 1.83301 -12.501 5.5s-5.5 8.16699 -5.5 13.5c0 12.667 11.667 26 35 40s48.833 24.667 76.5 32s55.167 11 82.5 11c111.333 0 167 -59.667 167 -179zM318.002 56.5
c24 14.333 42.833 34.1699 56.5 59.5029s20.5 54 20.5 86v36h-19c-70 0 -123.333 -2.83301 -160 -8.5s-62.334 -15.334 -77.001 -29.001s-22 -33.834 -22 -60.501c0 -30.667 11.333 -55.834 34 -75.501s51.334 -29.5 86.001 -29.5c30 0 57 7.16699 81 21.5zM108.002 702.004
c-9.33301 9.33301 -14.001 19 -14.001 29c0 7.33301 2.33301 13.333 7 18s10.334 7 17.001 7c10.667 0 20.667 -6 30 -18l133 -171c2.66699 -2.66699 4 -6 4 -10c0 -3.33301 -1.5 -6.33301 -4.5 -9s-6.16699 -4 -9.5 -4c-4 0 -7.66699 1.66699 -11 5z" />
    <glyph glyph-name="aacute" unicode="&#xe1;" horiz-adv-x="521" 
d="M438 317l0.00195312 -298c0 -7.33301 -1.83301 -13 -5.5 -17s-8.83398 -6 -15.501 -6s-12 2.16699 -16 6.5s-6 9.83301 -6 16.5v70c-14.667 -30.667 -35.834 -54.334 -63.501 -71.001s-59.167 -25 -94.5 -25c-30.667 0 -58.834 6.33301 -84.501 19s-46 30.167 -61 52.5
s-22.5 46.833 -22.5 73.5c0 36 9.5 63.833 28.5 83.5s50.333 33.834 94 42.501s104.834 13 183.501 13h20v42c0 47.333 -9.5 81.833 -28.5 103.5s-48.833 32.5 -89.5 32.5c-32 0 -60.5 -4.16699 -85.5 -12.5s-44.833 -17.833 -59.5 -28.5
c-2.66699 -2 -8.16699 -5.83301 -16.5 -11.5s-15.166 -8.5 -20.499 -8.5c-4.66699 0 -8.83398 1.83301 -12.501 5.5s-5.5 8.16699 -5.5 13.5c0 12.667 11.667 26 35 40s48.833 24.667 76.5 32s55.167 11 82.5 11c111.333 0 167 -59.667 167 -179zM318.002 56.5
c24 14.333 42.833 34.1699 56.5 59.5029s20.5 54 20.5 86v36h-19c-70 0 -123.333 -2.83301 -160 -8.5s-62.334 -15.334 -77.001 -29.001s-22 -33.834 -22 -60.501c0 -30.667 11.333 -55.834 34 -75.501s51.334 -29.5 86.001 -29.5c30 0 57 7.16699 81 21.5zM271.002 544.004
c-3.33301 0 -6.50098 1.33301 -9.50098 4s-4.5 6 -4.5 10c0 3.33301 1.33301 6.33301 4 9l133 171c8 12 18 18 30 18c6.66699 0 12.334 -2.33301 17.001 -7s7 -10.667 7 -18c0 -10 -4.66699 -19.667 -14 -29l-152 -153c-3.33301 -3.33301 -7 -5 -11 -5z" />
    <glyph glyph-name="acircumflex" unicode="&#xe2;" horiz-adv-x="521" 
d="M438 317l0.00195312 -298c0 -7.33301 -1.83301 -13 -5.5 -17s-8.83398 -6 -15.501 -6s-12 2.16699 -16 6.5s-6 9.83301 -6 16.5v70c-14.667 -30.667 -35.834 -54.334 -63.501 -71.001s-59.167 -25 -94.5 -25c-30.667 0 -58.834 6.33301 -84.501 19s-46 30.167 -61 52.5
s-22.5 46.833 -22.5 73.5c0 36 9.5 63.833 28.5 83.5s50.333 33.834 94 42.501s104.834 13 183.501 13h20v42c0 47.333 -9.5 81.833 -28.5 103.5s-48.833 32.5 -89.5 32.5c-32 0 -60.5 -4.16699 -85.5 -12.5s-44.833 -17.833 -59.5 -28.5
c-2.66699 -2 -8.16699 -5.83301 -16.5 -11.5s-15.166 -8.5 -20.499 -8.5c-4.66699 0 -8.83398 1.83301 -12.501 5.5s-5.5 8.16699 -5.5 13.5c0 12.667 11.667 26 35 40s48.833 24.667 76.5 32s55.167 11 82.5 11c111.333 0 167 -59.667 167 -179zM318.002 56.5
c24 14.333 42.833 34.1699 56.5 59.5029s20.5 54 20.5 86v36h-19c-70 0 -123.333 -2.83301 -160 -8.5s-62.334 -15.334 -77.001 -29.001s-22 -33.834 -22 -60.501c0 -30.667 11.333 -55.834 34 -75.501s51.334 -29.5 86.001 -29.5c30 0 57 7.16699 81 21.5zM164.002 545.004
c-6 0 -11.165 2.16699 -15.498 6.5s-6.5 9.5 -6.5 15.5c0 4 1.66699 8.66699 5 14l96 153c8 12.667 17.333 19 28 19s20 -6.33301 28 -19l96 -153c3.33301 -5.33301 5 -10.333 5 -15c0 -6 -2.33301 -11.167 -7 -15.5s-9.66699 -6.5 -15 -6.5
c-8.66699 0 -15.334 4.33301 -20.001 13l-87 148l-87 -148c-4.66699 -8 -11.334 -12 -20.001 -12z" />
    <glyph glyph-name="atilde" unicode="&#xe3;" horiz-adv-x="521" 
d="M438 317l0.00195312 -298c0 -7.33301 -1.83301 -13 -5.5 -17s-8.83398 -6 -15.501 -6s-12 2.16699 -16 6.5s-6 9.83301 -6 16.5v70c-14.667 -30.667 -35.834 -54.334 -63.501 -71.001s-59.167 -25 -94.5 -25c-30.667 0 -58.834 6.33301 -84.501 19s-46 30.167 -61 52.5
s-22.5 46.833 -22.5 73.5c0 36 9.5 63.833 28.5 83.5s50.333 33.834 94 42.501s104.834 13 183.501 13h20v42c0 47.333 -9.5 81.833 -28.5 103.5s-48.833 32.5 -89.5 32.5c-32 0 -60.5 -4.16699 -85.5 -12.5s-44.833 -17.833 -59.5 -28.5
c-2.66699 -2 -8.16699 -5.83301 -16.5 -11.5s-15.166 -8.5 -20.499 -8.5c-4.66699 0 -8.83398 1.83301 -12.501 5.5s-5.5 8.16699 -5.5 13.5c0 12.667 11.667 26 35 40s48.833 24.667 76.5 32s55.167 11 82.5 11c111.333 0 167 -59.667 167 -179zM318.002 56.5
c24 14.333 42.833 34.1699 56.5 59.5029s20.5 54 20.5 86v36h-19c-70 0 -123.333 -2.83301 -160 -8.5s-62.334 -15.334 -77.001 -29.001s-22 -33.834 -22 -60.501c0 -30.667 11.333 -55.834 34 -75.501s51.334 -29.5 86.001 -29.5c30 0 57 7.16699 81 21.5zM303.002 605.504
c-12 6.33301 -26.333 15.5 -43 27.5c-14.667 10 -26.334 17.333 -35.001 22s-16.667 7 -24 7c-12 0 -21.333 -3.5 -28 -10.5s-12.667 -16.5 -18 -28.5c-2.66699 -5.33301 -5.5 -10 -8.5 -14s-6.16699 -6 -9.5 -6c-4.66699 0 -8.66699 1.83301 -12 5.5s-5 7.83398 -5 12.501
c0 10.667 3.5 22.667 10.5 36s16.667 24.833 29 34.5s26.833 14.5 43.5 14.5c12 0 24 -3.16699 36 -9.5s26.333 -15.5 43 -27.5c14.667 -10 26.334 -17.333 35.001 -22s16.667 -7 24 -7c12 0 21.333 3.5 28 10.5s12.667 16.5 18 28.5c2.66699 5.33301 5.5 10 8.5 14
s6.16699 6 9.5 6c4.66699 0 8.66699 -1.83301 12 -5.5s5 -7.83398 5 -12.501c0 -10.667 -3.5 -22.667 -10.5 -36s-16.667 -24.833 -29 -34.5s-26.833 -14.5 -43.5 -14.5c-12 0 -24 3.16699 -36 9.5z" />
    <glyph glyph-name="adieresis" unicode="&#xe4;" horiz-adv-x="521" 
d="M438 317l0.00195312 -298c0 -7.33301 -1.83301 -13 -5.5 -17s-8.83398 -6 -15.501 -6s-12 2.16699 -16 6.5s-6 9.83301 -6 16.5v70c-14.667 -30.667 -35.834 -54.334 -63.501 -71.001s-59.167 -25 -94.5 -25c-30.667 0 -58.834 6.33301 -84.501 19s-46 30.167 -61 52.5
s-22.5 46.833 -22.5 73.5c0 36 9.5 63.833 28.5 83.5s50.333 33.834 94 42.501s104.834 13 183.501 13h20v42c0 47.333 -9.5 81.833 -28.5 103.5s-48.833 32.5 -89.5 32.5c-32 0 -60.5 -4.16699 -85.5 -12.5s-44.833 -17.833 -59.5 -28.5
c-2.66699 -2 -8.16699 -5.83301 -16.5 -11.5s-15.166 -8.5 -20.499 -8.5c-4.66699 0 -8.83398 1.83301 -12.501 5.5s-5.5 8.16699 -5.5 13.5c0 12.667 11.667 26 35 40s48.833 24.667 76.5 32s55.167 11 82.5 11c111.333 0 167 -59.667 167 -179zM318.002 56.5
c24 14.333 42.833 34.1699 56.5 59.5029s20.5 54 20.5 86v36h-19c-70 0 -123.333 -2.83301 -160 -8.5s-62.334 -15.334 -77.001 -29.001s-22 -33.834 -22 -60.501c0 -30.667 11.333 -55.834 34 -75.501s51.334 -29.5 86.001 -29.5c30 0 57 7.16699 81 21.5zM165.502 625.004
c-7 6.66699 -10.5 15 -10.5 25s3.5 18.333 10.5 25s15.5 10 25.5 10s18.333 -3.33301 25 -10s10 -15 10 -25s-3.5 -18.333 -10.5 -25s-15.167 -10 -24.5 -10c-10 0 -18.5 3.33301 -25.5 10zM326.502 625.004c-7 6.66699 -10.5 15 -10.5 25s3.33301 18.333 10 25s15 10 25 10
s18.5 -3.33301 25.5 -10s10.5 -15 10.5 -25s-3.5 -18.333 -10.5 -25s-15.5 -10 -25.5 -10c-9.33301 0 -17.5 3.33301 -24.5 10z" />
    <glyph glyph-name="aring" unicode="&#xe5;" horiz-adv-x="521" 
d="M438 317l0.00195312 -298c0 -7.33301 -1.83301 -13 -5.5 -17s-8.83398 -6 -15.501 -6s-12 2.16699 -16 6.5s-6 9.83301 -6 16.5v70c-14.667 -30.667 -35.834 -54.334 -63.501 -71.001s-59.167 -25 -94.5 -25c-30.667 0 -58.834 6.33301 -84.501 19s-46 30.167 -61 52.5
s-22.5 46.833 -22.5 73.5c0 36 9.5 63.833 28.5 83.5s50.333 33.834 94 42.501s104.834 13 183.501 13h20v42c0 47.333 -9.5 81.833 -28.5 103.5s-48.833 32.5 -89.5 32.5c-32 0 -60.5 -4.16699 -85.5 -12.5s-44.833 -17.833 -59.5 -28.5
c-2.66699 -2 -8.16699 -5.83301 -16.5 -11.5s-15.166 -8.5 -20.499 -8.5c-4.66699 0 -8.83398 1.83301 -12.501 5.5s-5.5 8.16699 -5.5 13.5c0 12.667 11.667 26 35 40s48.833 24.667 76.5 32s55.167 11 82.5 11c111.333 0 167 -59.667 167 -179zM318.002 56.5
c24 14.333 42.833 34.1699 56.5 59.5029s20.5 54 20.5 86v36h-19c-70 0 -123.333 -2.83301 -160 -8.5s-62.334 -15.334 -77.001 -29.001s-22 -33.834 -22 -60.501c0 -30.667 11.333 -55.834 34 -75.501s51.334 -29.5 86.001 -29.5c30 0 57 7.16699 81 21.5zM202.502 583.504
c-19 18.333 -28.5 40.5 -28.5 66.5c0 26.667 9.5 49.167 28.5 67.5s41.833 27.5 68.5 27.5s49.5 -9.16699 68.5 -27.5s28.5 -40.833 28.5 -67.5c0 -26 -9.5 -48.167 -28.5 -66.5s-41.833 -27.5 -68.5 -27.5s-49.5 9.16699 -68.5 27.5zM307.502 612.504
c9.66699 10.333 14.5 22.833 14.5 37.5c0 15.333 -4.83301 28 -14.5 38s-21.834 15 -36.501 15s-26.834 -5 -36.501 -15s-14.5 -22.667 -14.5 -38c0 -14.667 4.83301 -27.167 14.5 -37.5s21.834 -15.5 36.501 -15.5s26.834 5.16699 36.501 15.5z" />
    <glyph glyph-name="ae" unicode="&#xe6;" horiz-adv-x="862" 
d="M803 89.5c3.33301 -3.66699 5.00098 -7.83203 5.00098 -12.499c0 -14 -11.333 -27.667 -34 -41c-48 -28.667 -96.333 -43 -145 -43c-51.333 0 -94.666 12.333 -129.999 37s-61 60 -77 106c-11.333 -44.667 -32.666 -79.667 -63.999 -105s-70.333 -38 -117 -38
c-32 0 -61.167 6.33301 -87.5 19s-47 30 -62 52s-22.5 46.667 -22.5 74c0 36 9.5 64 28.5 84s50.833 34.167 95.5 42.5s107 12.5 187 12.5h20v37c0 49.333 -9.33301 85.166 -28 107.499s-49 33.5 -91 33.5c-38 0 -68.833 -4.5 -92.5 -13.5s-46.5 -20.5 -68.5 -34.5
c-12.667 -8.66699 -21.334 -13 -26.001 -13s-8.66699 1.83301 -12 5.5s-5 8.16699 -5 13.5c0 13.333 11.667 26.666 35 39.999c48.667 28.667 102.667 43 162 43c88 0 142 -35.667 162 -107c18 34 42.667 60.333 74 79s67 28 107 28c59.333 0 106.666 -20.167 141.999 -60.5
s53 -94.833 53 -163.5c0 -12 -2.5 -20.667 -7.5 -26s-13.167 -8 -24.5 -8h-336c0.666992 -65.333 17 -115.666 49 -150.999s76.667 -53 134 -53c30 0 55.333 4.33301 76 13s40.667 19.667 60 33c13.333 10 22.666 15 27.999 15c4.66699 0 8.66699 -1.83301 12 -5.5z
M498.501 409.002c-30.333 -32 -48.167 -76 -53.5 -132h326c-0.666992 58 -14.5 102.5 -41.5 133.5s-64.5 46.5 -112.5 46.5c-48.667 0 -88.167 -16 -118.5 -48zM323 57.002c24 14.667 42.833 35.0029 56.5 61.0029s20.5 55.333 20.5 88v32h-19
c-71.333 0 -125.5 -2.83301 -162.5 -8.5s-63.167 -15.334 -78.5 -29.001s-23 -33.834 -23 -60.501c0 -30.667 11.667 -55.834 35 -75.501s53.333 -29.5 90 -29.5c30 0 57 7.33301 81 22z" />
    <glyph glyph-name="ccedilla" unicode="&#xe7;" horiz-adv-x="470" 
d="M439 90c3.33301 -3.33301 4.99805 -7.33496 4.99805 -12.002c0 -6.66699 -2.33301 -12.667 -7 -18s-13.667 -13.333 -27 -24c-16 -12 -35.333 -21.833 -58 -29.5s-45.667 -12.167 -69 -13.5l-4 -39c8.66699 3.33301 18.334 5 29.001 5c20 0 37.333 -5.66699 52 -17
s22 -28.666 22 -51.999s-9.66699 -42.5 -29 -57.5s-46 -22.5 -80 -22.5c-24.667 0 -46.667 4 -66 12c-5.33301 2 -9.33301 4.83301 -12 8.5s-4 7.5 -4 11.5c0 4.66699 1.83301 8.5 5.5 11.5s8.5 4.5 14.5 4.5c4 0 7.33301 -0.333008 10 -1c19.333 -5.33301 38 -8 56 -8
c21.333 0 37.166 3.66699 47.499 11s15.5 17.333 15.5 30c0 9.33301 -3 16.833 -9 22.5s-14.333 8.5 -25 8.5c-8.66699 0 -18.834 -1.83301 -30.501 -5.5s-19.167 -5.5 -22.5 -5.5c-4.66699 0 -9.16699 1.66699 -13.5 5s-6.16602 7.66602 -5.49902 12.999l7 67
c-56.667 7.33301 -102.334 33.333 -137.001 78s-52 101.334 -52 170.001c0 50 9.16699 94.167 27.5 132.5s44.333 68 78 89s72.167 31.5 115.5 31.5c24.667 0 48.667 -3.16699 72 -9.5s44 -16.166 62 -29.499c12.667 -10 21.5 -18.167 26.5 -24.5s7.5 -13.166 7.5 -20.499
c0 -4.66699 -1.66699 -8.83398 -5 -12.501s-7.33301 -5.5 -12 -5.5c-3.33301 0 -7.33301 1.5 -12 4.5s-9.66699 6.5 -15 10.5c-18 14 -36.167 25.333 -54.5 34s-41.166 13 -68.499 13c-55.333 0 -98.666 -19 -129.999 -57s-47 -90.333 -47 -157
c0 -65.333 15.5 -116.333 46.5 -153s74.167 -55 129.5 -55c28 0 51.833 4.33301 71.5 13s38.5 20 56.5 34c12.667 9.33301 21.334 14 26.001 14s8.66699 -1.66699 12 -5z" />
    <glyph glyph-name="egrave" unicode="&#xe8;" horiz-adv-x="524" 
d="M464 89.5c3.33301 -3.66699 5.00195 -7.83398 5.00195 -12.501c0 -6.66699 -2.5 -13.167 -7.5 -19.5s-13.833 -13.5 -26.5 -21.5c-48 -28.667 -97.667 -43 -149 -43c-72.667 0 -129.834 22.333 -171.501 67s-62.5 106 -62.5 184c0 50 9.33301 94 28 132s45 67.5 79 88.5
s73 31.5 117 31.5c61.333 0 109.666 -20 144.999 -60s53 -94.667 53 -164c0 -12 -2.33301 -20.667 -7 -26s-13 -8 -25 -8h-344c0.666992 -65.333 17.167 -115.666 49.5 -150.999s77.833 -53 136.5 -53c32 0 58.5 4.33301 79.5 13s41.5 20 61.5 34c14 9.33301 23 14 27 14
c4.66699 0 8.66699 -1.83301 12 -5.5zM153.502 409.5c-31 -31.667 -49.1689 -75.833 -54.502 -132.5h335c-1.33301 58 -15.666 102.5 -42.999 133.5s-65.666 46.5 -114.999 46.5c-50.667 0 -91.5 -15.833 -122.5 -47.5zM113 702.001c-9.33301 9.33301 -14.001 19 -14.001 29
c0 7.33301 2.33301 13.333 7 18s10.334 7 17.001 7c10.667 0 20.667 -6 30 -18l133 -171c2.66699 -2.66699 4 -6 4 -10c0 -3.33301 -1.5 -6.33301 -4.5 -9s-6.16699 -4 -9.5 -4c-4 0 -7.66699 1.66699 -11 5z" />
    <glyph glyph-name="eacute" unicode="&#xe9;" horiz-adv-x="524" 
d="M464 89.5c3.33301 -3.66699 5.00195 -7.83398 5.00195 -12.501c0 -6.66699 -2.5 -13.167 -7.5 -19.5s-13.833 -13.5 -26.5 -21.5c-48 -28.667 -97.667 -43 -149 -43c-72.667 0 -129.834 22.333 -171.501 67s-62.5 106 -62.5 184c0 50 9.33301 94 28 132s45 67.5 79 88.5
s73 31.5 117 31.5c61.333 0 109.666 -20 144.999 -60s53 -94.667 53 -164c0 -12 -2.33301 -20.667 -7 -26s-13 -8 -25 -8h-344c0.666992 -65.333 17.167 -115.666 49.5 -150.999s77.833 -53 136.5 -53c32 0 58.5 4.33301 79.5 13s41.5 20 61.5 34c14 9.33301 23 14 27 14
c4.66699 0 8.66699 -1.83301 12 -5.5zM153.502 409.5c-31 -31.667 -49.1689 -75.833 -54.502 -132.5h335c-1.33301 58 -15.666 102.5 -42.999 133.5s-65.666 46.5 -114.999 46.5c-50.667 0 -91.5 -15.833 -122.5 -47.5zM276 544.001c-3.33301 0 -6.50098 1.33301 -9.50098 4
s-4.5 6 -4.5 10c0 3.33301 1.33301 6.33301 4 9l133 171c8 12 18 18 30 18c6.66699 0 12.334 -2.33301 17.001 -7s7 -10.667 7 -18c0 -10 -4.66699 -19.667 -14 -29l-152 -153c-3.33301 -3.33301 -7 -5 -11 -5z" />
    <glyph glyph-name="ecircumflex" unicode="&#xea;" horiz-adv-x="524" 
d="M464 89.5c3.33301 -3.66699 5.00195 -7.83398 5.00195 -12.501c0 -6.66699 -2.5 -13.167 -7.5 -19.5s-13.833 -13.5 -26.5 -21.5c-48 -28.667 -97.667 -43 -149 -43c-72.667 0 -129.834 22.333 -171.501 67s-62.5 106 -62.5 184c0 50 9.33301 94 28 132s45 67.5 79 88.5
s73 31.5 117 31.5c61.333 0 109.666 -20 144.999 -60s53 -94.667 53 -164c0 -12 -2.33301 -20.667 -7 -26s-13 -8 -25 -8h-344c0.666992 -65.333 17.167 -115.666 49.5 -150.999s77.833 -53 136.5 -53c32 0 58.5 4.33301 79.5 13s41.5 20 61.5 34c14 9.33301 23 14 27 14
c4.66699 0 8.66699 -1.83301 12 -5.5zM153.502 409.5c-31 -31.667 -49.1689 -75.833 -54.502 -132.5h335c-1.33301 58 -15.666 102.5 -42.999 133.5s-65.666 46.5 -114.999 46.5c-50.667 0 -91.5 -15.833 -122.5 -47.5zM169 545.001c-6 0 -11.165 2.16699 -15.498 6.5
s-6.5 9.5 -6.5 15.5c0 4 1.66699 8.66699 5 14l96 153c8 12.667 17.333 19 28 19s20 -6.33301 28 -19l96 -153c3.33301 -5.33301 5 -10.333 5 -15c0 -6 -2.33301 -11.167 -7 -15.5s-9.66699 -6.5 -15 -6.5c-8.66699 0 -15.334 4.33301 -20.001 13l-87 148l-87 -148
c-4.66699 -8 -11.334 -12 -20.001 -12z" />
    <glyph glyph-name="edieresis" unicode="&#xeb;" horiz-adv-x="524" 
d="M464 89.5c3.33301 -3.66699 5.00195 -7.83398 5.00195 -12.501c0 -6.66699 -2.5 -13.167 -7.5 -19.5s-13.833 -13.5 -26.5 -21.5c-48 -28.667 -97.667 -43 -149 -43c-72.667 0 -129.834 22.333 -171.501 67s-62.5 106 -62.5 184c0 50 9.33301 94 28 132s45 67.5 79 88.5
s73 31.5 117 31.5c61.333 0 109.666 -20 144.999 -60s53 -94.667 53 -164c0 -12 -2.33301 -20.667 -7 -26s-13 -8 -25 -8h-344c0.666992 -65.333 17.167 -115.666 49.5 -150.999s77.833 -53 136.5 -53c32 0 58.5 4.33301 79.5 13s41.5 20 61.5 34c14 9.33301 23 14 27 14
c4.66699 0 8.66699 -1.83301 12 -5.5zM153.502 409.5c-31 -31.667 -49.1689 -75.833 -54.502 -132.5h335c-1.33301 58 -15.666 102.5 -42.999 133.5s-65.666 46.5 -114.999 46.5c-50.667 0 -91.5 -15.833 -122.5 -47.5zM170.5 625.001c-7 6.66699 -10.5 15 -10.5 25
s3.5 18.333 10.5 25s15.5 10 25.5 10s18.333 -3.33301 25 -10s10 -15 10 -25s-3.5 -18.333 -10.5 -25s-15.167 -10 -24.5 -10c-10 0 -18.5 3.33301 -25.5 10zM331.5 625.001c-7 6.66699 -10.5 15 -10.5 25s3.33301 18.333 10 25s15 10 25 10s18.5 -3.33301 25.5 -10
s10.5 -15 10.5 -25s-3.5 -18.333 -10.5 -25s-15.5 -10 -25.5 -10c-9.33301 0 -17.5 3.33301 -24.5 10z" />
    <glyph glyph-name="igrave" unicode="&#xec;" horiz-adv-x="212" 
d="M90.5 1c-3.66699 4 -5.5 9.66699 -5.5 17v454c0 6.66699 1.83301 12 5.5 16s8.83398 6 15.501 6s11.834 -2 15.501 -6s5.5 -9.33301 5.5 -16v-454c0 -7.33301 -1.83301 -13 -5.5 -17s-8.83398 -6 -15.501 -6s-11.834 2 -15.501 6zM-57 702
c-9.33301 9.33301 -14.001 19 -14.001 29c0 7.33301 2.33301 13.333 7 18s10.334 7 17.001 7c10.667 0 20.667 -6 30 -18l133 -171c2.66699 -2.66699 4 -6 4 -10c0 -3.33301 -1.5 -6.33301 -4.5 -9s-6.16699 -4 -9.5 -4c-4 0 -7.66699 1.66699 -11 5z" />
    <glyph glyph-name="iacute" unicode="&#xed;" horiz-adv-x="212" 
d="M90.5 1c-3.66699 4 -5.5 9.66699 -5.5 17v454c0 6.66699 1.83301 12 5.5 16s8.83398 6 15.501 6s11.834 -2 15.501 -6s5.5 -9.33301 5.5 -16v-454c0 -7.33301 -1.83301 -13 -5.5 -17s-8.83398 -6 -15.501 -6s-11.834 2 -15.501 6zM106 544
c-3.33301 0 -6.50098 1.33301 -9.50098 4s-4.5 6 -4.5 10c0 3.33301 1.33301 6.33301 4 9l133 171c8 12 18 18 30 18c6.66699 0 12.334 -2.33301 17.001 -7s7 -10.667 7 -18c0 -10 -4.66699 -19.667 -14 -29l-152 -153c-3.33301 -3.33301 -7 -5 -11 -5z" />
    <glyph glyph-name="icircumflex" unicode="&#xee;" horiz-adv-x="212" 
d="M90.5 1c-3.66699 4 -5.5 9.66699 -5.5 17v454c0 6.66699 1.83301 12 5.5 16s8.83398 6 15.501 6s11.834 -2 15.501 -6s5.5 -9.33301 5.5 -16v-454c0 -7.33301 -1.83301 -13 -5.5 -17s-8.83398 -6 -15.501 -6s-11.834 2 -15.501 6zM-1 545
c-6 0 -11.165 2.16699 -15.498 6.5s-6.5 9.5 -6.5 15.5c0 4 1.66699 8.66699 5 14l96 153c8 12.667 17.333 19 28 19s20 -6.33301 28 -19l96 -153c3.33301 -5.33301 5 -10.333 5 -15c0 -6 -2.33301 -11.167 -7 -15.5s-9.66699 -6.5 -15 -6.5
c-8.66699 0 -15.334 4.33301 -20.001 13l-87 148l-87 -148c-4.66699 -8 -11.334 -12 -20.001 -12z" />
    <glyph glyph-name="idieresis" unicode="&#xef;" horiz-adv-x="212" 
d="M90.5 1c-3.66699 4 -5.5 9.66699 -5.5 17v454c0 6.66699 1.83301 12 5.5 16s8.83398 6 15.501 6s11.834 -2 15.501 -6s5.5 -9.33301 5.5 -16v-454c0 -7.33301 -1.83301 -13 -5.5 -17s-8.83398 -6 -15.501 -6s-11.834 2 -15.501 6zM0.5 625c-7 6.66699 -10.5 15 -10.5 25
s3.5 18.333 10.5 25s15.5 10 25.5 10s18.333 -3.33301 25 -10s10 -15 10 -25s-3.5 -18.333 -10.5 -25s-15.167 -10 -24.5 -10c-10 0 -18.5 3.33301 -25.5 10zM161.5 625c-7 6.66699 -10.5 15 -10.5 25s3.33301 18.333 10 25s15 10 25 10s18.5 -3.33301 25.5 -10
s10.5 -15 10.5 -25s-3.5 -18.333 -10.5 -25s-15.5 -10 -25.5 -10c-9.33301 0 -17.5 3.33301 -24.5 10z" />
    <glyph glyph-name="eth" unicode="&#xf0;" horiz-adv-x="539" 
d="M487 278c0 -94 -18.499 -164.999 -55.499 -212.999s-91.5 -72 -163.5 -72c-43.333 0 -81.333 9.5 -114 28.5s-57.834 46 -75.501 81s-26.5 75.5 -26.5 121.5s9 86.5 27 121.5s43.667 62 77 81s71.666 28.5 114.999 28.5c76.667 0 132.334 -28.333 167.001 -85
c-14 79.333 -49.333 147.333 -106 204l-135 -57c-4 -1.33301 -6.66699 -2 -8 -2c-5.33301 0 -9.83301 2.16699 -13.5 6.5s-5.5 9.16602 -5.5 14.499c0 8 4 14 12 18l117 49c-32 24.667 -68 45.334 -108 62.001c-15.333 6 -23 14.333 -23 25c0 5.33301 2 9.66602 6 12.999
s9.33301 5 16 5s13 -1.33301 19 -4c51.333 -22 96 -49.667 134 -83l113 47c4 1.33301 7 2 9 2c5.33301 0 10 -2 14 -6s6 -8.66699 6 -14c0 -7.33301 -4.33301 -13 -13 -17l-98 -41c75.333 -82 113 -186.667 113 -314zM393.001 84.501
c30.667 33.667 45.999 80.5 45.999 140.5c0 58 -15 104 -45 138s-72 51 -126 51c-53.333 0 -95.166 -16.833 -125.499 -50.5s-45.5 -80.167 -45.5 -139.5c0 -60.667 14.833 -107.5 44.5 -140.5s71.5 -49.5 125.5 -49.5c53.333 0 95.333 16.833 126 50.5z" />
    <glyph glyph-name="ntilde" unicode="&#xf1;" horiz-adv-x="553" 
d="M470 312l0.00195312 -293.999c0 -15.333 -7 -23 -21 -23c-6.66699 0 -11.834 2 -15.501 6s-5.5 9.66699 -5.5 17v290c0 51.333 -10.333 88.833 -31 112.5s-54 35.5 -100 35.5c-51.333 0 -92.5 -15.833 -123.5 -47.5s-46.5 -73.834 -46.5 -126.501v-264
c0 -7.33301 -1.83301 -13 -5.5 -17s-8.83398 -6 -15.501 -6s-11.834 2 -15.501 6s-5.5 9.66699 -5.5 17v453c0 15.333 7 23 21 23c6.66699 0 11.667 -2 15 -6s5 -9.66699 5 -17v-74c14.667 32 36.834 56.5 66.501 73.5s63.5 25.5 101.5 25.5c117.333 0 176 -61.333 176 -184
zM309.002 605.501c-12 6.33301 -26.333 15.5 -43 27.5c-14.667 10 -26.334 17.333 -35.001 22s-16.667 7 -24 7c-12 0 -21.333 -3.5 -28 -10.5s-12.667 -16.5 -18 -28.5c-2.66699 -5.33301 -5.5 -10 -8.5 -14s-6.16699 -6 -9.5 -6c-4.66699 0 -8.66699 1.83301 -12 5.5
s-5 7.83398 -5 12.501c0 10.667 3.5 22.667 10.5 36s16.667 24.833 29 34.5s26.833 14.5 43.5 14.5c12 0 24 -3.16699 36 -9.5s26.333 -15.5 43 -27.5c14.667 -10 26.334 -17.333 35.001 -22s16.667 -7 24 -7c12 0 21.333 3.5 28 10.5s12.667 16.5 18 28.5
c2.66699 5.33301 5.5 10 8.5 14s6.16699 6 9.5 6c4.66699 0 8.66699 -1.83301 12 -5.5s5 -7.83398 5 -12.501c0 -10.667 -3.5 -22.667 -10.5 -36s-16.667 -24.833 -29 -34.5s-26.833 -14.5 -43.5 -14.5c-12 0 -24 3.16699 -36 9.5z" />
    <glyph glyph-name="ograve" unicode="&#xf2;" horiz-adv-x="536" 
d="M155 24c-32.667 20.667 -58 50 -76 88s-27 82.333 -27 133c0 50 9 94 27 132s43.333 67.333 76 88s70.334 31 113.001 31s80.334 -10.333 113.001 -31s58 -50 76 -88s27 -82 27 -132c0 -50.667 -9 -95 -27 -133s-43.333 -67.333 -76 -88s-70.334 -31 -113.001 -31
s-80.334 10.333 -113.001 31zM394.5 88.5c29.667 36.333 44.498 88.5 44.498 156.5c0 66 -15.167 117.5 -45.5 154.5s-72.166 55.5 -125.499 55.5s-95.166 -18.5 -125.499 -55.5s-45.5 -88.5 -45.5 -154.5c0 -68 14.833 -120.167 44.5 -156.5s71.5 -54.5 125.5 -54.5
c55.333 0 97.833 18.167 127.5 54.5zM104.998 702c-9.33301 9.33301 -14.001 19 -14.001 29c0 7.33301 2.33301 13.333 7 18s10.334 7 17.001 7c10.667 0 20.667 -6 30 -18l133 -171c2.66699 -2.66699 4 -6 4 -10c0 -3.33301 -1.5 -6.33301 -4.5 -9s-6.16699 -4 -9.5 -4
c-4 0 -7.66699 1.66699 -11 5z" />
    <glyph glyph-name="oacute" unicode="&#xf3;" horiz-adv-x="536" 
d="M155 24c-32.667 20.667 -58 50 -76 88s-27 82.333 -27 133c0 50 9 94 27 132s43.333 67.333 76 88s70.334 31 113.001 31s80.334 -10.333 113.001 -31s58 -50 76 -88s27 -82 27 -132c0 -50.667 -9 -95 -27 -133s-43.333 -67.333 -76 -88s-70.334 -31 -113.001 -31
s-80.334 10.333 -113.001 31zM394.5 88.5c29.667 36.333 44.498 88.5 44.498 156.5c0 66 -15.167 117.5 -45.5 154.5s-72.166 55.5 -125.499 55.5s-95.166 -18.5 -125.499 -55.5s-45.5 -88.5 -45.5 -154.5c0 -68 14.833 -120.167 44.5 -156.5s71.5 -54.5 125.5 -54.5
c55.333 0 97.833 18.167 127.5 54.5zM267.998 544c-3.33301 0 -6.50098 1.33301 -9.50098 4s-4.5 6 -4.5 10c0 3.33301 1.33301 6.33301 4 9l133 171c8 12 18 18 30 18c6.66699 0 12.334 -2.33301 17.001 -7s7 -10.667 7 -18c0 -10 -4.66699 -19.667 -14 -29l-152 -153
c-3.33301 -3.33301 -7 -5 -11 -5z" />
    <glyph glyph-name="ocircumflex" unicode="&#xf4;" horiz-adv-x="536" 
d="M155 24c-32.667 20.667 -58 50 -76 88s-27 82.333 -27 133c0 50 9 94 27 132s43.333 67.333 76 88s70.334 31 113.001 31s80.334 -10.333 113.001 -31s58 -50 76 -88s27 -82 27 -132c0 -50.667 -9 -95 -27 -133s-43.333 -67.333 -76 -88s-70.334 -31 -113.001 -31
s-80.334 10.333 -113.001 31zM394.5 88.5c29.667 36.333 44.498 88.5 44.498 156.5c0 66 -15.167 117.5 -45.5 154.5s-72.166 55.5 -125.499 55.5s-95.166 -18.5 -125.499 -55.5s-45.5 -88.5 -45.5 -154.5c0 -68 14.833 -120.167 44.5 -156.5s71.5 -54.5 125.5 -54.5
c55.333 0 97.833 18.167 127.5 54.5zM160.998 545c-6 0 -11.165 2.16699 -15.498 6.5s-6.5 9.5 -6.5 15.5c0 4 1.66699 8.66699 5 14l96 153c8 12.667 17.333 19 28 19s20 -6.33301 28 -19l96 -153c3.33301 -5.33301 5 -10.333 5 -15c0 -6 -2.33301 -11.167 -7 -15.5
s-9.66699 -6.5 -15 -6.5c-8.66699 0 -15.334 4.33301 -20.001 13l-87 148l-87 -148c-4.66699 -8 -11.334 -12 -20.001 -12z" />
    <glyph glyph-name="otilde" unicode="&#xf5;" horiz-adv-x="536" 
d="M155 24c-32.667 20.667 -58 50 -76 88s-27 82.333 -27 133c0 50 9 94 27 132s43.333 67.333 76 88s70.334 31 113.001 31s80.334 -10.333 113.001 -31s58 -50 76 -88s27 -82 27 -132c0 -50.667 -9 -95 -27 -133s-43.333 -67.333 -76 -88s-70.334 -31 -113.001 -31
s-80.334 10.333 -113.001 31zM394.5 88.5c29.667 36.333 44.498 88.5 44.498 156.5c0 66 -15.167 117.5 -45.5 154.5s-72.166 55.5 -125.499 55.5s-95.166 -18.5 -125.499 -55.5s-45.5 -88.5 -45.5 -154.5c0 -68 14.833 -120.167 44.5 -156.5s71.5 -54.5 125.5 -54.5
c55.333 0 97.833 18.167 127.5 54.5zM299.998 605.5c-12 6.33301 -26.333 15.5 -43 27.5c-14.667 10 -26.334 17.333 -35.001 22s-16.667 7 -24 7c-12 0 -21.333 -3.5 -28 -10.5s-12.667 -16.5 -18 -28.5c-2.66699 -5.33301 -5.5 -10 -8.5 -14s-6.16699 -6 -9.5 -6
c-4.66699 0 -8.66699 1.83301 -12 5.5s-5 7.83398 -5 12.501c0 10.667 3.5 22.667 10.5 36s16.667 24.833 29 34.5s26.833 14.5 43.5 14.5c12 0 24 -3.16699 36 -9.5s26.333 -15.5 43 -27.5c14.667 -10 26.334 -17.333 35.001 -22s16.667 -7 24 -7c12 0 21.333 3.5 28 10.5
s12.667 16.5 18 28.5c2.66699 5.33301 5.5 10 8.5 14s6.16699 6 9.5 6c4.66699 0 8.66699 -1.83301 12 -5.5s5 -7.83398 5 -12.501c0 -10.667 -3.5 -22.667 -10.5 -36s-16.667 -24.833 -29 -34.5s-26.833 -14.5 -43.5 -14.5c-12 0 -24 3.16699 -36 9.5z" />
    <glyph glyph-name="odieresis" unicode="&#xf6;" horiz-adv-x="536" 
d="M155 24c-32.667 20.667 -58 50 -76 88s-27 82.333 -27 133c0 50 9 94 27 132s43.333 67.333 76 88s70.334 31 113.001 31s80.334 -10.333 113.001 -31s58 -50 76 -88s27 -82 27 -132c0 -50.667 -9 -95 -27 -133s-43.333 -67.333 -76 -88s-70.334 -31 -113.001 -31
s-80.334 10.333 -113.001 31zM394.5 88.5c29.667 36.333 44.498 88.5 44.498 156.5c0 66 -15.167 117.5 -45.5 154.5s-72.166 55.5 -125.499 55.5s-95.166 -18.5 -125.499 -55.5s-45.5 -88.5 -45.5 -154.5c0 -68 14.833 -120.167 44.5 -156.5s71.5 -54.5 125.5 -54.5
c55.333 0 97.833 18.167 127.5 54.5zM162.498 625c-7 6.66699 -10.5 15 -10.5 25s3.5 18.333 10.5 25s15.5 10 25.5 10s18.333 -3.33301 25 -10s10 -15 10 -25s-3.5 -18.333 -10.5 -25s-15.167 -10 -24.5 -10c-10 0 -18.5 3.33301 -25.5 10zM323.498 625
c-7 6.66699 -10.5 15 -10.5 25s3.33301 18.333 10 25s15 10 25 10s18.5 -3.33301 25.5 -10s10.5 -15 10.5 -25s-3.5 -18.333 -10.5 -25s-15.5 -10 -25.5 -10c-9.33301 0 -17.5 3.33301 -24.5 10z" />
    <glyph glyph-name="divide" unicode="&#xf7;" 
d="M270 456c-8 8 -12 18.667 -12 32c0 12.667 4 23 12 31s18 12 30 12s21.833 -4 29.5 -12s11.5 -18.333 11.5 -31c0 -13.333 -3.83301 -24 -11.5 -32s-17.5 -12 -29.5 -12s-22 4 -30 12zM68.5 269.5c-4.33301 4.33301 -6.5 9.5 -6.5 15.5
c0 4.66699 2.16699 8.83398 6.5 12.501s9.5 5.5 15.5 5.5h444c6 0 11.167 -2 15.5 -6s6.5 -9.33301 6.5 -16c0 -4.66699 -2.16699 -8.83398 -6.5 -12.501s-9.5 -5.5 -15.5 -5.5h-444c-6 0 -11.167 2.16699 -15.5 6.5zM270 49c-8 8 -12 18.333 -12 31s4 23 12 31s18 12 30 12
s21.833 -4 29.5 -12s11.5 -18.333 11.5 -31s-3.83301 -23 -11.5 -31s-17.5 -12 -29.5 -12s-22 4 -30 12z" />
    <glyph glyph-name="oslash" unicode="&#xf8;" horiz-adv-x="536" 
d="M464.5 360c13 -34 19.5 -72.333 19.5 -115c0 -50.667 -9 -95 -27 -133s-43.333 -67.333 -76 -88s-70.334 -31 -113.001 -31c-40 0 -75.667 9 -107 27l-23 -40c-3.33301 -7.33301 -9 -11 -17 -11c-6 0 -11.167 2 -15.5 6s-6.5 9 -6.5 15c0 3.33301 1 7 3 11l26 44
c-24.667 22 -43.5 50.167 -56.5 84.5s-19.5 72.833 -19.5 115.5c0 50 9 94 27 132s43.333 67.333 76 88s70.334 31 113.001 31c38.667 0 74.334 -9 107.001 -27l24 41c5.33301 7.33301 11.333 11 18 11c5.33301 0 10.166 -2 14.499 -6s6.5 -9 6.5 -15c0 -4 -1 -8 -3 -12
l-26 -44c24 -22 42.5 -50 55.5 -84zM149 81l205 352c-23.333 14.667 -52 22 -86 22c-53.333 0 -95 -18.5 -125 -55.5s-45 -88.5 -45 -154.5c0 -72 17 -126.667 51 -164zM394.5 88.5c29.667 36.333 44.501 88.5 44.501 156.5c0 71.333 -17.333 125.333 -52 162l-205 -352
c23.333 -14 51.666 -21 84.999 -21c55.333 0 97.833 18.167 127.5 54.5z" />
    <glyph glyph-name="ugrave" unicode="&#xf9;" horiz-adv-x="545" 
d="M454.5 488c3.66699 -4 5.49609 -9.33398 5.49609 -16.001v-454c0 -15.333 -7 -23 -21 -23c-6 0 -10.833 2.16699 -14.5 6.5s-5.5 9.83301 -5.5 16.5v73c-15.333 -31.333 -37.5 -55.5 -66.5 -72.5s-61.833 -25.5 -98.5 -25.5c-56 0 -98.5 15.667 -127.5 47
s-43.5 77.333 -43.5 138v294c0 6.66699 1.83301 12 5.5 16s8.83398 6 15.501 6s11.834 -2 15.501 -6s5.5 -9.33301 5.5 -16v-290c0 -50.667 10.333 -88 31 -112s52.667 -36 96 -36c50 0 90.167 15.833 120.5 47.5s45.5 73.834 45.5 126.501v264c0 6.66699 1.83301 12 5.5 16
s8.83398 6 15.501 6s11.834 -2 15.501 -6zM109.996 701.999c-9.33301 9.33301 -14.001 19 -14.001 29c0 7.33301 2.33301 13.333 7 18s10.334 7 17.001 7c10.667 0 20.667 -6 30 -18l133 -171c2.66699 -2.66699 4 -6 4 -10c0 -3.33301 -1.5 -6.33301 -4.5 -9
s-6.16699 -4 -9.5 -4c-4 0 -7.66699 1.66699 -11 5z" />
    <glyph glyph-name="uacute" unicode="&#xfa;" horiz-adv-x="545" 
d="M454.5 488c3.66699 -4 5.49609 -9.33398 5.49609 -16.001v-454c0 -15.333 -7 -23 -21 -23c-6 0 -10.833 2.16699 -14.5 6.5s-5.5 9.83301 -5.5 16.5v73c-15.333 -31.333 -37.5 -55.5 -66.5 -72.5s-61.833 -25.5 -98.5 -25.5c-56 0 -98.5 15.667 -127.5 47
s-43.5 77.333 -43.5 138v294c0 6.66699 1.83301 12 5.5 16s8.83398 6 15.501 6s11.834 -2 15.501 -6s5.5 -9.33301 5.5 -16v-290c0 -50.667 10.333 -88 31 -112s52.667 -36 96 -36c50 0 90.167 15.833 120.5 47.5s45.5 73.834 45.5 126.501v264c0 6.66699 1.83301 12 5.5 16
s8.83398 6 15.501 6s11.834 -2 15.501 -6zM272.996 543.999c-3.33301 0 -6.50098 1.33301 -9.50098 4s-4.5 6 -4.5 10c0 3.33301 1.33301 6.33301 4 9l133 171c8 12 18 18 30 18c6.66699 0 12.334 -2.33301 17.001 -7s7 -10.667 7 -18c0 -10 -4.66699 -19.667 -14 -29
l-152 -153c-3.33301 -3.33301 -7 -5 -11 -5z" />
    <glyph glyph-name="ucircumflex" unicode="&#xfb;" horiz-adv-x="545" 
d="M454.5 488c3.66699 -4 5.49609 -9.33398 5.49609 -16.001v-454c0 -15.333 -7 -23 -21 -23c-6 0 -10.833 2.16699 -14.5 6.5s-5.5 9.83301 -5.5 16.5v73c-15.333 -31.333 -37.5 -55.5 -66.5 -72.5s-61.833 -25.5 -98.5 -25.5c-56 0 -98.5 15.667 -127.5 47
s-43.5 77.333 -43.5 138v294c0 6.66699 1.83301 12 5.5 16s8.83398 6 15.501 6s11.834 -2 15.501 -6s5.5 -9.33301 5.5 -16v-290c0 -50.667 10.333 -88 31 -112s52.667 -36 96 -36c50 0 90.167 15.833 120.5 47.5s45.5 73.834 45.5 126.501v264c0 6.66699 1.83301 12 5.5 16
s8.83398 6 15.501 6s11.834 -2 15.501 -6zM165.996 544.999c-6 0 -11.165 2.16699 -15.498 6.5s-6.5 9.5 -6.5 15.5c0 4 1.66699 8.66699 5 14l96 153c8 12.667 17.333 19 28 19s20 -6.33301 28 -19l96 -153c3.33301 -5.33301 5 -10.333 5 -15
c0 -6 -2.33301 -11.167 -7 -15.5s-9.66699 -6.5 -15 -6.5c-8.66699 0 -15.334 4.33301 -20.001 13l-87 148l-87 -148c-4.66699 -8 -11.334 -12 -20.001 -12z" />
    <glyph glyph-name="udieresis" unicode="&#xfc;" horiz-adv-x="545" 
d="M454.5 488c3.66699 -4 5.49609 -9.33398 5.49609 -16.001v-454c0 -15.333 -7 -23 -21 -23c-6 0 -10.833 2.16699 -14.5 6.5s-5.5 9.83301 -5.5 16.5v73c-15.333 -31.333 -37.5 -55.5 -66.5 -72.5s-61.833 -25.5 -98.5 -25.5c-56 0 -98.5 15.667 -127.5 47
s-43.5 77.333 -43.5 138v294c0 6.66699 1.83301 12 5.5 16s8.83398 6 15.501 6s11.834 -2 15.501 -6s5.5 -9.33301 5.5 -16v-290c0 -50.667 10.333 -88 31 -112s52.667 -36 96 -36c50 0 90.167 15.833 120.5 47.5s45.5 73.834 45.5 126.501v264c0 6.66699 1.83301 12 5.5 16
s8.83398 6 15.501 6s11.834 -2 15.501 -6zM167.496 624.999c-7 6.66699 -10.5 15 -10.5 25s3.5 18.333 10.5 25s15.5 10 25.5 10s18.333 -3.33301 25 -10s10 -15 10 -25s-3.5 -18.333 -10.5 -25s-15.167 -10 -24.5 -10c-10 0 -18.5 3.33301 -25.5 10zM328.496 624.999
c-7 6.66699 -10.5 15 -10.5 25s3.33301 18.333 10 25s15 10 25 10s18.5 -3.33301 25.5 -10s10.5 -15 10.5 -25s-3.5 -18.333 -10.5 -25s-15.5 -10 -25.5 -10c-9.33301 0 -17.5 3.33301 -24.5 10z" />
    <glyph glyph-name="yacute" unicode="&#xfd;" horiz-adv-x="504" 
d="M464 494c5.33301 0 10 -1.83203 14 -5.49902s6 -8.5 6 -14.5c0 -2 -0.666992 -5 -2 -9l-287 -636c-4 -8 -10 -12 -18 -12c-5.33301 0 -9.83301 1.66699 -13.5 5s-5.5 7.66602 -5.5 12.999l2 8l72 158l-210 464c-1.33301 4 -2 7 -2 9c0 6 2.33301 11 7 15s10 6 16 6
c7.33301 0 13 -4 17 -12l193 -435l2 5l190 427c4 9.33301 10.333 14 19 14zM252 544.001c-3.33301 0 -6.50098 1.33301 -9.50098 4s-4.5 6 -4.5 10c0 3.33301 1.33301 6.33301 4 9l133 171c8 12 18 18 30 18c6.66699 0 12.334 -2.33301 17.001 -7s7 -10.667 7 -18
c0 -10 -4.66699 -19.667 -14 -29l-152 -153c-3.33301 -3.33301 -7 -5 -11 -5z" />
    <glyph glyph-name="thorn" unicode="&#xfe;" horiz-adv-x="565" 
d="M408 466c32.667 -20 58.334 -49.166 77.001 -87.499s28 -83.5 28 -135.5s-9.33301 -96.833 -28 -134.5s-44.334 -66.334 -77.001 -86.001s-69.667 -29.5 -111 -29.5c-40.667 0 -75.5 9 -104.5 27s-50.833 44 -65.5 78v-260c0 -7.33301 -2 -13 -6 -17s-9 -6 -15 -6
c-14 0 -21 7.66699 -21 23v849c0 15.333 7 23 21 23c6 0 11 -2 15 -6s6 -9.66699 6 -17v-294c14.667 33.333 36.5 58.833 65.5 76.5s63.833 26.5 104.5 26.5c41.333 0 78.333 -10 111 -30zM422.5 89.001c29.667 36.667 44.499 87.999 44.499 153.999
c0 65.333 -14.833 117 -44.5 155s-71.5 57 -125.5 57c-54.667 0 -96.667 -18.167 -126 -54.5s-44 -88.166 -44 -155.499s14.667 -119.333 44 -156s71 -55 125 -55c54.667 0 96.834 18.333 126.501 55z" />
    <glyph glyph-name="ydieresis" unicode="&#xff;" horiz-adv-x="504" 
d="M464 494c5.33301 0 10 -1.83203 14 -5.49902s6 -8.5 6 -14.5c0 -2 -0.666992 -5 -2 -9l-287 -636c-4 -8 -10 -12 -18 -12c-5.33301 0 -9.83301 1.66699 -13.5 5s-5.5 7.66602 -5.5 12.999l2 8l72 158l-210 464c-1.33301 4 -2 7 -2 9c0 6 2.33301 11 7 15s10 6 16 6
c7.33301 0 13 -4 17 -12l193 -435l2 5l190 427c4 9.33301 10.333 14 19 14zM146.5 625.001c-7 6.66699 -10.5 15 -10.5 25s3.5 18.333 10.5 25s15.5 10 25.5 10s18.333 -3.33301 25 -10s10 -15 10 -25s-3.5 -18.333 -10.5 -25s-15.167 -10 -24.5 -10
c-10 0 -18.5 3.33301 -25.5 10zM307.5 625.001c-7 6.66699 -10.5 15 -10.5 25s3.33301 18.333 10 25s15 10 25 10s18.5 -3.33301 25.5 -10s10.5 -15 10.5 -25s-3.5 -18.333 -10.5 -25s-15.5 -10 -25.5 -10c-9.33301 0 -17.5 3.33301 -24.5 10z" />
    <glyph glyph-name="Amacron" unicode="&#x100;" horiz-adv-x="714" 
d="M678 12c0 -5.33301 -1.83203 -9.5 -5.49902 -12.5s-8.16699 -4.5 -13.5 -4.5c-10 0 -17 4.66699 -21 14l-81 186h-399l-82 -186c-4 -9.33301 -10.667 -14 -20 -14c-7.33301 0 -13 2.33301 -17 7s-4.66699 10.667 -2 18l296 675c4 10.667 12 16 24 16
c5.33301 0 10.166 -1.5 14.499 -4.5s7.5 -6.83301 9.5 -11.5l295 -675c1.33301 -4 2 -6.66699 2 -8zM175.001 235h364l-182 416zM215.001 825.5c-5.33301 3.66699 -8 8.83398 -8 15.501c0 14 9.66699 21 29 21h242c19.333 0 29 -7 29 -21
c0 -6.66699 -2.66699 -11.834 -8 -15.501s-12.333 -5.5 -21 -5.5h-242c-8.66699 0 -15.667 1.83301 -21 5.5z" />
    <glyph glyph-name="amacron" unicode="&#x101;" horiz-adv-x="521" 
d="M438 317l0.00195312 -298c0 -7.33301 -1.83301 -13 -5.5 -17s-8.83398 -6 -15.501 -6s-12 2.16699 -16 6.5s-6 9.83301 -6 16.5v70c-14.667 -30.667 -35.834 -54.334 -63.501 -71.001s-59.167 -25 -94.5 -25c-30.667 0 -58.834 6.33301 -84.501 19s-46 30.167 -61 52.5
s-22.5 46.833 -22.5 73.5c0 36 9.5 63.833 28.5 83.5s50.333 33.834 94 42.501s104.834 13 183.501 13h20v42c0 47.333 -9.5 81.833 -28.5 103.5s-48.833 32.5 -89.5 32.5c-32 0 -60.5 -4.16699 -85.5 -12.5s-44.833 -17.833 -59.5 -28.5
c-2.66699 -2 -8.16699 -5.83301 -16.5 -11.5s-15.166 -8.5 -20.499 -8.5c-4.66699 0 -8.83398 1.83301 -12.501 5.5s-5.5 8.16699 -5.5 13.5c0 12.667 11.667 26 35 40s48.833 24.667 76.5 32s55.167 11 82.5 11c111.333 0 167 -59.667 167 -179zM318.002 56.5
c24 14.333 42.833 34.1699 56.5 59.5029s20.5 54 20.5 86v36h-19c-70 0 -123.333 -2.83301 -160 -8.5s-62.334 -15.334 -77.001 -29.001s-22 -33.834 -22 -60.501c0 -30.667 11.333 -55.834 34 -75.501s51.334 -29.5 86.001 -29.5c30 0 57 7.16699 81 21.5zM129.002 634.504
c-5.33301 3.66699 -8 8.83398 -8 15.501c0 14.667 9.66699 22 29 22h242c19.333 0 29 -7.33301 29 -22c0 -6.66699 -2.66699 -11.834 -8 -15.501s-12.333 -5.5 -21 -5.5h-242c-8.66699 0 -15.667 1.83301 -21 5.5z" />
    <glyph glyph-name="Abreve" unicode="&#x102;" horiz-adv-x="714" 
d="M678 12c0 -5.33301 -1.83203 -9.5 -5.49902 -12.5s-8.16699 -4.5 -13.5 -4.5c-10 0 -17 4.66699 -21 14l-81 186h-399l-82 -186c-4 -9.33301 -10.667 -14 -20 -14c-7.33301 0 -13 2.33301 -17 7s-4.66699 10.667 -2 18l296 675c4 10.667 12 16 24 16
c5.33301 0 10.166 -1.5 14.499 -4.5s7.5 -6.83301 9.5 -11.5l295 -675c1.33301 -4 2 -6.66699 2 -8zM175.001 235h364l-182 416zM271.001 801c-25.333 14.667 -45.6621 37.334 -60.9951 68.001c-2 5.33301 -3 9.66602 -3 12.999c0 6 2 10.833 6 14.5s9 5.5 15 5.5
c10.667 0 19 -5.66699 25 -17c13.333 -23.333 28.166 -40 44.499 -50s36.166 -15 59.499 -15s43.166 5 59.499 15s31.166 26.667 44.499 50c5.33301 11.333 13.666 17 24.999 17c6 0 11 -1.83301 15 -5.5s6 -8.5 6 -14.5c0 -3.33301 -1 -7.66602 -3 -12.999
c-14.667 -30.667 -34.667 -53.334 -60 -68.001s-54.333 -22 -87 -22c-32 0 -60.667 7.33301 -86 22z" />
    <glyph glyph-name="abreve" unicode="&#x103;" horiz-adv-x="521" 
d="M438 317l0.00195312 -298c0 -7.33301 -1.83301 -13 -5.5 -17s-8.83398 -6 -15.501 -6s-12 2.16699 -16 6.5s-6 9.83301 -6 16.5v70c-14.667 -30.667 -35.834 -54.334 -63.501 -71.001s-59.167 -25 -94.5 -25c-30.667 0 -58.834 6.33301 -84.501 19s-46 30.167 -61 52.5
s-22.5 46.833 -22.5 73.5c0 36 9.5 63.833 28.5 83.5s50.333 33.834 94 42.501s104.834 13 183.501 13h20v42c0 47.333 -9.5 81.833 -28.5 103.5s-48.833 32.5 -89.5 32.5c-32 0 -60.5 -4.16699 -85.5 -12.5s-44.833 -17.833 -59.5 -28.5
c-2.66699 -2 -8.16699 -5.83301 -16.5 -11.5s-15.166 -8.5 -20.499 -8.5c-4.66699 0 -8.83398 1.83301 -12.501 5.5s-5.5 8.16699 -5.5 13.5c0 12.667 11.667 26 35 40s48.833 24.667 76.5 32s55.167 11 82.5 11c111.333 0 167 -59.667 167 -179zM318.002 56.5
c24 14.333 42.833 34.1699 56.5 59.5029s20.5 54 20.5 86v36h-19c-70 0 -123.333 -2.83301 -160 -8.5s-62.334 -15.334 -77.001 -29.001s-22 -33.834 -22 -60.501c0 -30.667 11.333 -55.834 34 -75.501s51.334 -29.5 86.001 -29.5c30 0 57 7.16699 81 21.5zM185.002 608.004
c-25.333 16 -44.998 39.667 -58.998 71c-2 5.33301 -3 10 -3 14c0 6.66699 2 12.167 6 16.5s9 6.5 15 6.5c12 0 21 -6.66699 27 -20c21.333 -48 54.666 -72 99.999 -72s78.666 24 99.999 72c2.66699 6.66699 6.5 11.667 11.5 15s9.83301 5 14.5 5
c6 0 11.167 -2.16699 15.5 -6.5s6.5 -9.83301 6.5 -16.5c0 -4 -1 -8.66699 -3 -14c-12.667 -30.667 -32 -54.167 -58 -70.5s-55 -24.5 -87 -24.5s-60.667 8 -86 24z" />
    <glyph glyph-name="Aogonek" unicode="&#x104;" horiz-adv-x="714" 
d="M716 -134c4.66699 0 8.33008 -1.66797 10.9971 -5.00098s4 -7.33301 4 -12c0 -10.667 -4.33301 -18.334 -13 -23.001c-19.333 -10.667 -41.666 -16 -66.999 -16c-33.333 0 -60.166 9.5 -80.499 28.5s-30.5 44.167 -30.5 75.5c0 26 7.66699 49.167 23 69.5
s37.333 35.833 66 46.5l-72 165h-399l-82 -186c-4 -9.33301 -10.667 -14 -20 -14c-7.33301 0 -13 2.33301 -17 7s-4.66699 10.667 -2 18l296 675c4 10.667 12 16 24 16c5.33301 0 10.166 -1.5 14.499 -4.5s7.5 -6.83301 9.5 -11.5l286 -655l7 1l-4 -7l6 -14
c1.33301 -4 2 -6.66699 2 -8c0 -4 -1.66699 -7.5 -5 -10.5s-7 -4.83301 -11 -5.5c-25.333 -3.33301 -44.666 -12.166 -57.999 -26.499s-20 -32.166 -20 -53.499s6.33301 -38 19 -50s29.667 -18 51 -18c14.667 0 30.667 4.66699 48 14c4.66699 2.66699 9.33398 4 14.001 4z
M174.996 234.999h364l-182 416z" />
    <glyph glyph-name="aogonek" unicode="&#x105;" horiz-adv-x="521" 
d="M472 -135c5.33301 0 9.66602 -1.66895 12.999 -5.00195s5 -7.66602 5 -12.999c0 -8.66699 -4.66699 -15.667 -14 -21c-24.667 -10.667 -47 -16 -67 -16c-33.333 0 -60.166 9.33301 -80.499 28s-30.5 43.334 -30.5 74.001c0 28 8.5 52.333 25.5 73s40.833 35.667 71.5 45
v59c-14.667 -30.667 -35.834 -54.334 -63.501 -71.001s-59.167 -25 -94.5 -25c-30.667 0 -58.834 6.33301 -84.501 19s-46 30.167 -61 52.5s-22.5 46.833 -22.5 73.5c0 36 9.5 63.833 28.5 83.5s50.333 33.834 94 42.501s104.834 13 183.501 13h20v42
c0 47.333 -9.5 81.833 -28.5 103.5s-48.833 32.5 -89.5 32.5c-32 0 -60.5 -4.16699 -85.5 -12.5s-44.833 -17.833 -59.5 -28.5l-18 -12c-8 -5.33301 -14.333 -8 -19 -8s-8.83398 1.83301 -12.501 5.5s-5.5 8.16699 -5.5 13.5c0 12.667 11.667 26 35 40
s48.833 24.667 76.5 32s55.167 11 82.5 11c111.333 0 167 -59.667 167 -179v-298c0 -6 -1.66699 -11 -5 -15s-7.66602 -6 -12.999 -6c-25.333 -4.66699 -44.666 -14 -57.999 -28s-20 -32 -20 -54c0 -21.333 6.16699 -38 18.5 -50s29.5 -18 51.5 -18
c14.667 0 30.667 4.66699 48 14c4 2 8 3 12 3zM318 56.498c24 14.333 42.833 34.1699 56.5 59.5029s20.5 54 20.5 86v36h-19c-70 0 -123.333 -2.83301 -160 -8.5s-62.334 -15.334 -77.001 -29.001s-22 -33.834 -22 -60.501c0 -30.667 11.333 -55.834 34 -75.501
s51.334 -29.5 86.001 -29.5c30 0 57 7.16699 81 21.5z" />
    <glyph glyph-name="Cacute" unicode="&#x106;" horiz-adv-x="677" 
d="M214 35.5c-47.333 29 -83.666 70.667 -108.999 125s-38 118.5 -38 192.5s12.667 138 38 192s61.666 95.5 108.999 124.5s103.333 43.5 168 43.5c44.667 0 87.5 -8 128.5 -24s75.167 -38 102.5 -66c6.66699 -6.66699 10 -14.667 10 -24
c0 -5.33301 -1.33301 -9.83301 -4 -13.5s-6 -5.5 -10 -5.5c-5.33301 0 -11 2.66699 -17 8c-38 32 -72.5 54 -103.5 66s-67.167 18 -108.5 18c-84.667 0 -150.5 -28 -197.5 -84s-70.5 -134.333 -70.5 -235c0 -101.333 23.333 -180 70 -236s112.667 -84 198 -84
c42 0 78.333 6 109 18s65 34 103 66c7.33301 5.33301 13 8 17 8s7.33301 -1.83301 10 -5.5s4 -8.16699 4 -13.5c0 -9.33301 -3.33301 -17.333 -10 -24c-27.333 -28 -61.5 -50 -102.5 -66s-83.833 -24 -128.5 -24c-64.667 0 -120.667 14.5 -168 43.5zM383 760
c-4 0 -7.33301 1.33398 -10 4.00098s-4 6 -4 10s1.33301 7.33301 4 10l106 121c7.33301 9.33301 16 14 26 14c7.33301 0 13.333 -2.33301 18 -7s7 -10.334 7 -17.001c0 -10 -4.66699 -19.333 -14 -28l-123 -103c-2.66699 -2.66699 -6 -4 -10 -4z" />
    <glyph glyph-name="cacute" unicode="&#x107;" horiz-adv-x="470" 
d="M157 24c-33.333 20.667 -59.1709 49.999 -77.5039 87.999s-27.5 81.667 -27.5 131c0 50 9.16699 94.167 27.5 132.5s44.333 68 78 89s72.167 31.5 115.5 31.5c24.667 0 48.667 -3.16699 72 -9.5s44 -16.166 62 -29.499c12.667 -10 21.5 -18.167 26.5 -24.5
s7.5 -13.166 7.5 -20.499c0 -4.66699 -1.66699 -8.83398 -5 -12.501s-7.33301 -5.5 -12 -5.5c-3.33301 0 -7.33301 1.5 -12 4.5s-9.66699 6.5 -15 10.5c-18 14 -36.167 25.333 -54.5 34s-41.166 13 -68.499 13c-55.333 0 -98.666 -19 -129.999 -57s-47 -90.333 -47 -157
c0 -65.333 15.5 -116.333 46.5 -153s74.167 -55 129.5 -55c28 0 51.833 4.33301 71.5 13s38.5 20 56.5 34c12.667 9.33301 21.334 14 26.001 14s8.66699 -1.66699 12 -5s5 -7.33301 5 -12c0 -6.66699 -2.33301 -12.667 -7 -18s-13.667 -13.333 -27 -24
c-17.333 -12.667 -38.666 -23 -63.999 -31s-50.333 -12 -75 -12c-42.667 0 -80.667 10.333 -114 31zM272.995 543.999c-3.33301 0 -6.50098 1.33301 -9.50098 4s-4.5 6 -4.5 10c0 3.33301 1.33301 6.33301 4 9l133 171c8 12 18 18 30 18
c6.66699 0 12.334 -2.33301 17.001 -7s7 -10.667 7 -18c0 -10 -4.66699 -19.667 -14 -29l-152 -153c-3.33301 -3.33301 -7 -5 -11 -5z" />
    <glyph glyph-name="Ccircumflex" unicode="&#x108;" horiz-adv-x="677" 
d="M214 35.5c-47.333 29 -83.666 70.667 -108.999 125s-38 118.5 -38 192.5s12.667 138 38 192s61.666 95.5 108.999 124.5s103.333 43.5 168 43.5c44.667 0 87.5 -8 128.5 -24s75.167 -38 102.5 -66c6.66699 -6.66699 10 -14.667 10 -24
c0 -5.33301 -1.33301 -9.83301 -4 -13.5s-6 -5.5 -10 -5.5c-5.33301 0 -11 2.66699 -17 8c-38 32 -72.5 54 -103.5 66s-67.167 18 -108.5 18c-84.667 0 -150.5 -28 -197.5 -84s-70.5 -134.333 -70.5 -235c0 -101.333 23.333 -180 70 -236s112.667 -84 198 -84
c42 0 78.333 6 109 18s65 34 103 66c7.33301 5.33301 13 8 17 8s7.33301 -1.83301 10 -5.5s4 -8.16699 4 -13.5c0 -9.33301 -3.33301 -17.333 -10 -24c-27.333 -28 -61.5 -50 -102.5 -66s-83.833 -24 -128.5 -24c-64.667 0 -120.667 14.5 -168 43.5zM273 760
c-6 0 -11.002 2.16699 -15.002 6.5s-6 9.5 -6 15.5c0 6.66699 2.33301 12.667 7 18l94 105c8.66699 9.33301 18.334 14 29.001 14c10 0 19.667 -4.66699 29 -14l94 -105c4.66699 -5.33301 7 -11.333 7 -18c0 -6 -2.16699 -11.167 -6.5 -15.5s-9.16602 -6.5 -14.499 -6.5
c-6 0 -11.333 2.66699 -16 8l-93 109l-93 -109c-4.66699 -5.33301 -10 -8 -16 -8z" />
    <glyph glyph-name="ccircumflex" unicode="&#x109;" horiz-adv-x="470" 
d="M157 24c-33.333 20.667 -59.1709 49.999 -77.5039 87.999s-27.5 81.667 -27.5 131c0 50 9.16699 94.167 27.5 132.5s44.333 68 78 89s72.167 31.5 115.5 31.5c24.667 0 48.667 -3.16699 72 -9.5s44 -16.166 62 -29.499c12.667 -10 21.5 -18.167 26.5 -24.5
s7.5 -13.166 7.5 -20.499c0 -4.66699 -1.66699 -8.83398 -5 -12.501s-7.33301 -5.5 -12 -5.5c-3.33301 0 -7.33301 1.5 -12 4.5s-9.66699 6.5 -15 10.5c-18 14 -36.167 25.333 -54.5 34s-41.166 13 -68.499 13c-55.333 0 -98.666 -19 -129.999 -57s-47 -90.333 -47 -157
c0 -65.333 15.5 -116.333 46.5 -153s74.167 -55 129.5 -55c28 0 51.833 4.33301 71.5 13s38.5 20 56.5 34c12.667 9.33301 21.334 14 26.001 14s8.66699 -1.66699 12 -5s5 -7.33301 5 -12c0 -6.66699 -2.33301 -12.667 -7 -18s-13.667 -13.333 -27 -24
c-17.333 -12.667 -38.666 -23 -63.999 -31s-50.333 -12 -75 -12c-42.667 0 -80.667 10.333 -114 31zM165.995 544.999c-6 0 -11.165 2.16699 -15.498 6.5s-6.5 9.5 -6.5 15.5c0 4 1.66699 8.66699 5 14l96 153c8 12.667 17.333 19 28 19s20 -6.33301 28 -19l96 -153
c3.33301 -5.33301 5 -10.333 5 -15c0 -6 -2.33301 -11.167 -7 -15.5s-9.66699 -6.5 -15 -6.5c-8.66699 0 -15.334 4.33301 -20.001 13l-87 148l-87 -148c-4.66699 -8 -11.334 -12 -20.001 -12z" />
    <glyph glyph-name="Cdotaccent" unicode="&#x10a;" horiz-adv-x="677" 
d="M214 35.5c-47.333 29 -83.666 70.667 -108.999 125s-38 118.5 -38 192.5s12.667 138 38 192s61.666 95.5 108.999 124.5s103.333 43.5 168 43.5c44.667 0 87.5 -8 128.5 -24s75.167 -38 102.5 -66c6.66699 -6.66699 10 -14.667 10 -24
c0 -5.33301 -1.33301 -9.83301 -4 -13.5s-6 -5.5 -10 -5.5c-5.33301 0 -11 2.66699 -17 8c-38 32 -72.5 54 -103.5 66s-67.167 18 -108.5 18c-84.667 0 -150.5 -28 -197.5 -84s-70.5 -134.333 -70.5 -235c0 -101.333 23.333 -180 70 -236s112.667 -84 198 -84
c42 0 78.333 6 109 18s65 34 103 66c7.33301 5.33301 13 8 17 8s7.33301 -1.83301 10 -5.5s4 -8.16699 4 -13.5c0 -9.33301 -3.33301 -17.333 -10 -24c-27.333 -28 -61.5 -50 -102.5 -66s-83.833 -24 -128.5 -24c-64.667 0 -120.667 14.5 -168 43.5zM355.5 814
c-7 6.66699 -10.5 15.667 -10.5 27c0 10.667 3.66699 19.334 11 26.001s16 10 26 10c10.667 0 19.5 -3.33301 26.5 -10s10.5 -15.334 10.5 -26.001c0 -11.333 -3.5 -20.333 -10.5 -27s-15.833 -10 -26.5 -10s-19.5 3.33301 -26.5 10z" />
    <glyph glyph-name="cdotaccent" unicode="&#x10b;" horiz-adv-x="470" 
d="M157 24c-33.333 20.667 -59.1709 49.999 -77.5039 87.999s-27.5 81.667 -27.5 131c0 50 9.16699 94.167 27.5 132.5s44.333 68 78 89s72.167 31.5 115.5 31.5c24.667 0 48.667 -3.16699 72 -9.5s44 -16.166 62 -29.499c12.667 -10 21.5 -18.167 26.5 -24.5
s7.5 -13.166 7.5 -20.499c0 -4.66699 -1.66699 -8.83398 -5 -12.501s-7.33301 -5.5 -12 -5.5c-3.33301 0 -7.33301 1.5 -12 4.5s-9.66699 6.5 -15 10.5c-18 14 -36.167 25.333 -54.5 34s-41.166 13 -68.499 13c-55.333 0 -98.666 -19 -129.999 -57s-47 -90.333 -47 -157
c0 -65.333 15.5 -116.333 46.5 -153s74.167 -55 129.5 -55c28 0 51.833 4.33301 71.5 13s38.5 20 56.5 34c12.667 9.33301 21.334 14 26.001 14s8.66699 -1.66699 12 -5s5 -7.33301 5 -12c0 -6.66699 -2.33301 -12.667 -7 -18s-13.667 -13.333 -27 -24
c-17.333 -12.667 -38.666 -23 -63.999 -31s-50.333 -12 -75 -12c-42.667 0 -80.667 10.333 -114 31zM246.995 623.999c-7.33301 6.66699 -11 15.334 -11 26.001c0 11.333 3.5 20.333 10.5 27s15.833 10 26.5 10s19.5 -3.33301 26.5 -10s10.5 -15.667 10.5 -27
c0 -10.667 -3.66699 -19.334 -11 -26.001s-16 -10 -26 -10s-18.667 3.33301 -26 10z" />
    <glyph glyph-name="Ccaron" unicode="&#x10c;" horiz-adv-x="677" 
d="M214 35.5c-47.333 29 -83.666 70.667 -108.999 125s-38 118.5 -38 192.5s12.667 138 38 192s61.666 95.5 108.999 124.5s103.333 43.5 168 43.5c44.667 0 87.5 -8 128.5 -24s75.167 -38 102.5 -66c6.66699 -6.66699 10 -14.667 10 -24
c0 -5.33301 -1.33301 -9.83301 -4 -13.5s-6 -5.5 -10 -5.5c-5.33301 0 -11 2.66699 -17 8c-38 32 -72.5 54 -103.5 66s-67.167 18 -108.5 18c-84.667 0 -150.5 -28 -197.5 -84s-70.5 -134.333 -70.5 -235c0 -101.333 23.333 -180 70 -236s112.667 -84 198 -84
c42 0 78.333 6 109 18s65 34 103 66c7.33301 5.33301 13 8 17 8s7.33301 -1.83301 10 -5.5s4 -8.16699 4 -13.5c0 -9.33301 -3.33301 -17.333 -10 -24c-27.333 -28 -61.5 -50 -102.5 -66s-83.833 -24 -128.5 -24c-64.667 0 -120.667 14.5 -168 43.5zM353 774l-94 106
c-4.66699 5.33301 -7 11.333 -7 18c0 6 2 11.167 6 15.5s8.66699 6.5 14 6.5c6.66699 0 12.334 -3 17.001 -9l93 -108l93 108c5.33301 6 11 9 17 9c5.33301 0 10 -2.16699 14 -6.5s6 -9.5 6 -15.5c0 -6.66699 -2.33301 -12.667 -7 -18l-94 -106
c-9.33301 -9.33301 -19 -14 -29 -14c-8.66699 0 -18.334 4.66699 -29.001 14z" />
    <glyph glyph-name="ccaron" unicode="&#x10d;" horiz-adv-x="470" 
d="M157 24c-33.333 20.667 -59.1709 49.999 -77.5039 87.999s-27.5 81.667 -27.5 131c0 50 9.16699 94.167 27.5 132.5s44.333 68 78 89s72.167 31.5 115.5 31.5c24.667 0 48.667 -3.16699 72 -9.5s44 -16.166 62 -29.499c12.667 -10 21.5 -18.167 26.5 -24.5
s7.5 -13.166 7.5 -20.499c0 -4.66699 -1.66699 -8.83398 -5 -12.501s-7.33301 -5.5 -12 -5.5c-3.33301 0 -7.33301 1.5 -12 4.5s-9.66699 6.5 -15 10.5c-18 14 -36.167 25.333 -54.5 34s-41.166 13 -68.499 13c-55.333 0 -98.666 -19 -129.999 -57s-47 -90.333 -47 -157
c0 -65.333 15.5 -116.333 46.5 -153s74.167 -55 129.5 -55c28 0 51.833 4.33301 71.5 13s38.5 20 56.5 34c12.667 9.33301 21.334 14 26.001 14s8.66699 -1.66699 12 -5s5 -7.33301 5 -12c0 -6.66699 -2.33301 -12.667 -7 -18s-13.667 -13.333 -27 -24
c-17.333 -12.667 -38.666 -23 -63.999 -31s-50.333 -12 -75 -12c-42.667 0 -80.667 10.333 -114 31zM244.995 562.999l-96.002 153c-3.33301 5.33301 -5 10 -5 14c0 6 2.33301 11.167 7 15.5s10 6.5 16 6.5c8.66699 0 15.334 -4 20.001 -12l86 -148l86 148
c4.66699 8 11.334 12 20.001 12c6 0 11.333 -2.16699 16 -6.5s7 -9.5 7 -15.5c0 -4 -1.66699 -8.66699 -5 -14l-96 -153c-8 -12.667 -17.333 -19 -28 -19s-20 6.33301 -28 19z" />
    <glyph glyph-name="Dcaron" unicode="&#x10e;" horiz-adv-x="725" 
d="M103.5 7c-5 4.66699 -7.5 9.66699 -7.5 15v661c0 6 2.5 11.167 7.5 15.5s10.833 6.5 17.5 6.5h192c110 0 195 -30.167 255 -90.5s90 -147.5 90 -261.5c0 -113.333 -30 -200.5 -90 -261.5s-145 -91.5 -255 -91.5h-192c-6.66699 -0 -12.5 2.33301 -17.5 7zM312 38
c102.667 0 178.5 27 227.5 81s73.5 132 73.5 234c0 209.333 -100.333 314 -301 314h-175v-629h175zM333 774l-94 106c-4.66699 5.33301 -7 11.333 -7 18c0 6 2 11.167 6 15.5s8.66699 6.5 14 6.5c6.66699 0 12.334 -3 17.001 -9l93 -108l93 108c5.33301 6 11 9 17 9
c5.33301 0 10 -2.16699 14 -6.5s6 -9.5 6 -15.5c0 -6.66699 -2.33301 -12.667 -7 -18l-94 -106c-9.33301 -9.33301 -19 -14 -29 -14c-8.66699 0 -18.334 4.66699 -29.001 14z" />
    <glyph glyph-name="dcaron" unicode="&#x10f;" horiz-adv-x="565" 
d="M525 702.5c5.33301 5.66699 11.665 8.5 18.998 8.5c8.66699 0 15.834 -3.33301 21.501 -10s7.83398 -15.667 6.50098 -27l-22 -146c-0.666992 -4 -2.5 -7.33301 -5.5 -10s-6.5 -4 -10.5 -4c-4.66699 0 -8.66699 1.5 -12 4.5s-5 6.83301 -5 11.5v149
c0 10 2.66699 17.833 8 23.5zM474.499 704c3.66699 -4 5.5 -9.66699 5.5 -17v-668c0 -7.33301 -1.83301 -13 -5.5 -17s-8.83398 -6 -15.501 -6c-14 0 -21 7.66699 -21 23v79c-14.667 -34 -36.5 -60 -65.5 -78s-63.833 -27 -104.5 -27c-42.667 0 -80.334 10.5 -113.001 31.5
s-58 50.667 -76 89s-27 82.833 -27 133.5c0 50 9 93.667 27 131s43.333 66.333 76 87s70.334 31 113.001 31c40.667 0 75.5 -9 104.5 -27s50.833 -43.667 65.5 -77v295c0 15.333 7 23 21 23c6.66699 0 11.834 -2 15.501 -6zM393.499 89
c29.667 36.667 44.501 88.667 44.501 156c0 66.667 -14.667 118.334 -44 155.001s-71 55 -125 55s-96.167 -18.167 -126.5 -54.5s-45.5 -87.5 -45.5 -153.5c0 -66.667 15.167 -118.834 45.5 -156.501s72.166 -56.5 125.499 -56.5c54 0 95.833 18.333 125.5 55z" />
    <glyph glyph-name="Dcroat" unicode="&#x110;" horiz-adv-x="729" 
d="M572 614.5c60 -60.333 90 -147.5 90 -261.5c0 -113.333 -30 -200.5 -90 -261.5s-145 -91.5 -255 -91.5h-192c-6.66699 -0 -12.5 2.33301 -17.5 7s-7.5 9.66699 -7.5 15v318h-81c-5.33301 0 -9.83301 1.5 -13.5 4.5s-5.5 7.5 -5.5 13.5s1.83301 10.667 5.5 14
s8.16699 5 13.5 5h81v306c0 6 2.5 11.167 7.5 15.5s10.833 6.5 17.5 6.5h192c110 0 195 -30.167 255 -90.5zM543.5 119c49 54 73.5 132 73.5 234c0 209.333 -100.333 314 -301 314h-175v-290h183c5.33301 0 9.5 -1.66699 12.5 -5s4.5 -8 4.5 -14c0 -12 -5.66699 -18 -17 -18
h-183v-302h175c102.667 0 178.5 27 227.5 81z" />
    <glyph glyph-name="dcroat" unicode="&#x111;" horiz-adv-x="565" 
d="M575 598.5c3.33301 -3.66699 5 -8.16699 5 -13.5s-1.66699 -9.66602 -5 -12.999s-7.66602 -5 -12.999 -5h-82v-548c0 -7.33301 -1.83301 -13 -5.5 -17s-8.83398 -6 -15.501 -6c-14 0 -21 7.66699 -21 23v79c-14.667 -34 -36.5 -60 -65.5 -78s-63.833 -27 -104.5 -27
c-42.667 0 -80.334 10.5 -113.001 31.5s-58 50.667 -76 89s-27 82.833 -27 133.5c0 50 9 93.667 27 131s43.333 66.333 76 87s70.334 31 113.001 31c40.667 0 75.5 -9 104.5 -27s50.833 -43.667 65.5 -77v175h-182c-5.33301 0 -9.66602 1.66699 -12.999 5
s-5 7.66602 -5 12.999s1.66699 9.83301 5 13.5s7.66602 5.5 12.999 5.5h182v83c0 15.333 7 23 21 23c6.66699 0 11.834 -2 15.501 -6s5.5 -9.66699 5.5 -17v-83h82c5.33301 0 9.66602 -1.83301 12.999 -5.5zM393.5 89c29.667 36.667 44.501 88.667 44.501 156
c0 66.667 -14.667 118.334 -44 155.001s-71 55 -125 55s-96.167 -18.167 -126.5 -54.5s-45.5 -87.5 -45.5 -153.5c0 -66.667 15.167 -118.834 45.5 -156.501s72.166 -56.5 125.499 -56.5c54 0 95.833 18.333 125.5 55z" />
    <glyph glyph-name="Emacron" unicode="&#x112;" horiz-adv-x="576" 
d="M103.5 7c-5 4.66699 -7.5 9.66699 -7.5 15v661c0 6 2.5 11.167 7.5 15.5s10.833 6.5 17.5 6.5h385c5.33301 0 9.66602 -1.83301 12.999 -5.5s5 -8.5 5 -14.5c0 -5.33301 -1.66699 -9.83301 -5 -13.5s-7.66602 -5.5 -12.999 -5.5h-368v-289h348
c5.33301 0 9.66602 -1.66699 12.999 -5s5 -8 5 -14s-1.66699 -10.833 -5 -14.5s-7.66602 -5.5 -12.999 -5.5h-348v-299h368c5.33301 0 9.66602 -1.66699 12.999 -5s5 -8 5 -14s-1.66699 -10.833 -5 -14.5s-7.66602 -5.5 -12.999 -5.5h-385
c-6.66699 -0 -12.5 2.33301 -17.5 7zM178 825.5c-5.33301 3.66699 -8 8.83398 -8 15.501c0 14 9.66699 21 29 21h242c19.333 0 29 -7 29 -21c0 -6.66699 -2.66699 -11.834 -8 -15.501s-12.333 -5.5 -21 -5.5h-242c-8.66699 0 -15.667 1.83301 -21 5.5z" />
    <glyph glyph-name="emacron" unicode="&#x113;" horiz-adv-x="524" 
d="M464 89.5c3.33301 -3.66699 5.00195 -7.83398 5.00195 -12.501c0 -6.66699 -2.5 -13.167 -7.5 -19.5s-13.833 -13.5 -26.5 -21.5c-48 -28.667 -97.667 -43 -149 -43c-72.667 0 -129.834 22.333 -171.501 67s-62.5 106 -62.5 184c0 50 9.33301 94 28 132s45 67.5 79 88.5
s73 31.5 117 31.5c61.333 0 109.666 -20 144.999 -60s53 -94.667 53 -164c0 -12 -2.33301 -20.667 -7 -26s-13 -8 -25 -8h-344c0.666992 -65.333 17.167 -115.666 49.5 -150.999s77.833 -53 136.5 -53c32 0 58.5 4.33301 79.5 13s41.5 20 61.5 34c14 9.33301 23 14 27 14
c4.66699 0 8.66699 -1.83301 12 -5.5zM153.502 409.5c-31 -31.667 -49.1689 -75.833 -54.502 -132.5h335c-1.33301 58 -15.666 102.5 -42.999 133.5s-65.666 46.5 -114.999 46.5c-50.667 0 -91.5 -15.833 -122.5 -47.5zM134 634.501c-5.33301 3.66699 -8 8.83398 -8 15.501
c0 14.667 9.66699 22 29 22h242c19.333 0 29 -7.33301 29 -22c0 -6.66699 -2.66699 -11.834 -8 -15.501s-12.333 -5.5 -21 -5.5h-242c-8.66699 0 -15.667 1.83301 -21 5.5z" />
    <glyph glyph-name="Ebreve" unicode="&#x114;" horiz-adv-x="576" 
d="M103.5 7c-5 4.66699 -7.5 9.66699 -7.5 15v661c0 6 2.5 11.167 7.5 15.5s10.833 6.5 17.5 6.5h385c5.33301 0 9.66602 -1.83301 12.999 -5.5s5 -8.5 5 -14.5c0 -5.33301 -1.66699 -9.83301 -5 -13.5s-7.66602 -5.5 -12.999 -5.5h-368v-289h348
c5.33301 0 9.66602 -1.66699 12.999 -5s5 -8 5 -14s-1.66699 -10.833 -5 -14.5s-7.66602 -5.5 -12.999 -5.5h-348v-299h368c5.33301 0 9.66602 -1.66699 12.999 -5s5 -8 5 -14s-1.66699 -10.833 -5 -14.5s-7.66602 -5.5 -12.999 -5.5h-385
c-6.66699 -0 -12.5 2.33301 -17.5 7zM234 801c-25.333 14.667 -45.6621 37.334 -60.9951 68.001c-2 5.33301 -3 9.66602 -3 12.999c0 6 2 10.833 6 14.5s9 5.5 15 5.5c10.667 0 19 -5.66699 25 -17c13.333 -23.333 28.166 -40 44.499 -50s36.166 -15 59.499 -15
s43.166 5 59.499 15s31.166 26.667 44.499 50c5.33301 11.333 13.666 17 24.999 17c6 0 11 -1.83301 15 -5.5s6 -8.5 6 -14.5c0 -3.33301 -1 -7.66602 -3 -12.999c-14.667 -30.667 -34.667 -53.334 -60 -68.001s-54.333 -22 -87 -22c-32 0 -60.667 7.33301 -86 22z" />
    <glyph glyph-name="ebreve" unicode="&#x115;" horiz-adv-x="524" 
d="M464 89.5c3.33301 -3.66699 5.00195 -7.83398 5.00195 -12.501c0 -6.66699 -2.5 -13.167 -7.5 -19.5s-13.833 -13.5 -26.5 -21.5c-48 -28.667 -97.667 -43 -149 -43c-72.667 0 -129.834 22.333 -171.501 67s-62.5 106 -62.5 184c0 50 9.33301 94 28 132s45 67.5 79 88.5
s73 31.5 117 31.5c61.333 0 109.666 -20 144.999 -60s53 -94.667 53 -164c0 -12 -2.33301 -20.667 -7 -26s-13 -8 -25 -8h-344c0.666992 -65.333 17.167 -115.666 49.5 -150.999s77.833 -53 136.5 -53c32 0 58.5 4.33301 79.5 13s41.5 20 61.5 34c14 9.33301 23 14 27 14
c4.66699 0 8.66699 -1.83301 12 -5.5zM153.502 409.5c-31 -31.667 -49.1689 -75.833 -54.502 -132.5h335c-1.33301 58 -15.666 102.5 -42.999 133.5s-65.666 46.5 -114.999 46.5c-50.667 0 -91.5 -15.833 -122.5 -47.5zM190 608.001c-25.333 16 -44.998 39.667 -58.998 71
c-2 5.33301 -3 10 -3 14c0 6.66699 2 12.167 6 16.5s9 6.5 15 6.5c12 0 21 -6.66699 27 -20c21.333 -48 54.666 -72 99.999 -72s78.666 24 99.999 72c2.66699 6.66699 6.5 11.667 11.5 15s9.83301 5 14.5 5c6 0 11.167 -2.16699 15.5 -6.5s6.5 -9.83301 6.5 -16.5
c0 -4 -1 -8.66699 -3 -14c-12.667 -30.667 -32 -54.167 -58 -70.5s-55 -24.5 -87 -24.5s-60.667 8 -86 24z" />
    <glyph glyph-name="Edotaccent" unicode="&#x116;" horiz-adv-x="576" 
d="M103.5 7c-5 4.66699 -7.5 9.66699 -7.5 15v661c0 6 2.5 11.167 7.5 15.5s10.833 6.5 17.5 6.5h385c5.33301 0 9.66602 -1.83301 12.999 -5.5s5 -8.5 5 -14.5c0 -5.33301 -1.66699 -9.83301 -5 -13.5s-7.66602 -5.5 -12.999 -5.5h-368v-289h348
c5.33301 0 9.66602 -1.66699 12.999 -5s5 -8 5 -14s-1.66699 -10.833 -5 -14.5s-7.66602 -5.5 -12.999 -5.5h-348v-299h368c5.33301 0 9.66602 -1.66699 12.999 -5s5 -8 5 -14s-1.66699 -10.833 -5 -14.5s-7.66602 -5.5 -12.999 -5.5h-385
c-6.66699 -0 -12.5 2.33301 -17.5 7zM293.5 814c-7 6.66699 -10.5 15.667 -10.5 27c0 10.667 3.66699 19.334 11 26.001s16 10 26 10c10.667 0 19.5 -3.33301 26.5 -10s10.5 -15.334 10.5 -26.001c0 -11.333 -3.5 -20.333 -10.5 -27s-15.833 -10 -26.5 -10
s-19.5 3.33301 -26.5 10z" />
    <glyph glyph-name="edotaccent" unicode="&#x117;" horiz-adv-x="524" 
d="M464 89.5c3.33301 -3.66699 5.00195 -7.83398 5.00195 -12.501c0 -6.66699 -2.5 -13.167 -7.5 -19.5s-13.833 -13.5 -26.5 -21.5c-48 -28.667 -97.667 -43 -149 -43c-72.667 0 -129.834 22.333 -171.501 67s-62.5 106 -62.5 184c0 50 9.33301 94 28 132s45 67.5 79 88.5
s73 31.5 117 31.5c61.333 0 109.666 -20 144.999 -60s53 -94.667 53 -164c0 -12 -2.33301 -20.667 -7 -26s-13 -8 -25 -8h-344c0.666992 -65.333 17.167 -115.666 49.5 -150.999s77.833 -53 136.5 -53c32 0 58.5 4.33301 79.5 13s41.5 20 61.5 34c14 9.33301 23 14 27 14
c4.66699 0 8.66699 -1.83301 12 -5.5zM153.502 409.5c-31 -31.667 -49.1689 -75.833 -54.502 -132.5h335c-1.33301 58 -15.666 102.5 -42.999 133.5s-65.666 46.5 -114.999 46.5c-50.667 0 -91.5 -15.833 -122.5 -47.5zM250 624.001c-7.33301 6.66699 -11 15.334 -11 26.001
c0 11.333 3.5 20.333 10.5 27s15.833 10 26.5 10s19.5 -3.33301 26.5 -10s10.5 -15.667 10.5 -27c0 -10.667 -3.66699 -19.334 -11 -26.001s-16 -10 -26 -10s-18.667 3.33301 -26 10z" />
    <glyph glyph-name="Eogonek" unicode="&#x118;" horiz-adv-x="576" 
d="M538 -134c4.66699 0 8.33398 -1.66504 11.001 -4.99805s4 -7.33301 4 -12c0 -10.667 -4.33301 -18.334 -13 -23.001c-18 -10.667 -40 -16 -66 -16c-34 0 -61.167 9.5 -81.5 28.5s-30.5 43.5 -30.5 73.5c0 35.333 13.667 64.666 41 87.999h-282
c-6.66699 -0 -12.5 2.33301 -17.5 7s-7.5 9.66699 -7.5 15v661c0 6 2.5 11.167 7.5 15.5s10.833 6.5 17.5 6.5h385c5.33301 0 9.66602 -1.83301 12.999 -5.5s5 -8.5 5 -14.5s-1.66699 -10.667 -5 -14s-7.66602 -5 -12.999 -5h-368v-289h348
c5.33301 0 9.66602 -1.66699 12.999 -5s5 -8 5 -14s-1.66699 -10.833 -5 -14.5s-7.66602 -5.5 -12.999 -5.5h-348v-299h368c5.33301 0 9.66602 -1.66699 12.999 -5s5 -8 5 -14c0 -13.333 -7 -20 -21 -20c-32 -2 -56 -10.5 -72 -25.5s-24 -34.5 -24 -58.5
c0 -21.333 6.33301 -38 19 -50s29.667 -18 51 -18c13.333 0 29.333 4.66699 48 14c4.66699 2.66699 9 4 13 4z" />
    <glyph glyph-name="eogonek" unicode="&#x119;" horiz-adv-x="524" 
d="M346 -26c-16 -17.333 -24 -36.666 -24 -57.999s6.33301 -38 19 -50s29.667 -18 51 -18c13.333 0 29.333 4.66699 48 14c4.66699 2.66699 9 4 13 4c4.66699 0 8.33398 -1.66699 11.001 -5s4 -7.33301 4 -12c0 -10.667 -4.33301 -18.334 -13 -23.001
c-18 -10.667 -40 -16 -66 -16c-33.333 0 -60.166 9.5 -80.499 28.5s-30.5 43.5 -30.5 73.5c0 33.333 12.333 61 37 83c-7.33301 -1.33301 -17 -2 -29 -2c-72.667 0 -129.834 22.333 -171.501 67s-62.5 106 -62.5 184c0 50 9.33301 94 28 132s45 67.5 79 88.5
s73 31.5 117 31.5c61.333 0 109.666 -20 144.999 -60s53 -94.667 53 -164c0 -12 -2.33301 -20.667 -7 -26s-13 -8 -25 -8h-344c0.666992 -65.333 17.167 -115.666 49.5 -150.999s77.833 -53 136.5 -53c32 0 58.5 4.33301 79.5 13s41.5 20 61.5 34c14 9.33301 23 14 27 14
c4.66699 0 8.66699 -1.83301 12 -5.5s5 -7.83398 5 -12.501c0 -14 -11.667 -27.333 -35 -40c-42.667 -24.667 -72 -45.667 -88 -63zM153.5 409.5c-31 -31.667 -49.1689 -75.833 -54.502 -132.5h335c-1.33301 58 -15.666 102.5 -42.999 133.5s-65.666 46.5 -114.999 46.5
c-50.667 0 -91.5 -15.833 -122.5 -47.5z" />
    <glyph glyph-name="Ecaron" unicode="&#x11a;" horiz-adv-x="576" 
d="M103.5 7c-5 4.66699 -7.5 9.66699 -7.5 15v661c0 6 2.5 11.167 7.5 15.5s10.833 6.5 17.5 6.5h385c5.33301 0 9.66602 -1.83301 12.999 -5.5s5 -8.5 5 -14.5c0 -5.33301 -1.66699 -9.83301 -5 -13.5s-7.66602 -5.5 -12.999 -5.5h-368v-289h348
c5.33301 0 9.66602 -1.66699 12.999 -5s5 -8 5 -14s-1.66699 -10.833 -5 -14.5s-7.66602 -5.5 -12.999 -5.5h-348v-299h368c5.33301 0 9.66602 -1.66699 12.999 -5s5 -8 5 -14s-1.66699 -10.833 -5 -14.5s-7.66602 -5.5 -12.999 -5.5h-385
c-6.66699 -0 -12.5 2.33301 -17.5 7zM291 774l-94 106c-4.66699 5.33301 -7 11.333 -7 18c0 6 2 11.167 6 15.5s8.66699 6.5 14 6.5c6.66699 0 12.334 -3 17.001 -9l93 -108l93 108c5.33301 6 11 9 17 9c5.33301 0 10 -2.16699 14 -6.5s6 -9.5 6 -15.5
c0 -6.66699 -2.33301 -12.667 -7 -18l-94 -106c-9.33301 -9.33301 -19 -14 -29 -14c-8.66699 0 -18.334 4.66699 -29.001 14z" />
    <glyph glyph-name="ecaron" unicode="&#x11b;" horiz-adv-x="524" 
d="M464 89.5c3.33301 -3.66699 5.00195 -7.83398 5.00195 -12.501c0 -6.66699 -2.5 -13.167 -7.5 -19.5s-13.833 -13.5 -26.5 -21.5c-48 -28.667 -97.667 -43 -149 -43c-72.667 0 -129.834 22.333 -171.501 67s-62.5 106 -62.5 184c0 50 9.33301 94 28 132s45 67.5 79 88.5
s73 31.5 117 31.5c61.333 0 109.666 -20 144.999 -60s53 -94.667 53 -164c0 -12 -2.33301 -20.667 -7 -26s-13 -8 -25 -8h-344c0.666992 -65.333 17.167 -115.666 49.5 -150.999s77.833 -53 136.5 -53c32 0 58.5 4.33301 79.5 13s41.5 20 61.5 34c14 9.33301 23 14 27 14
c4.66699 0 8.66699 -1.83301 12 -5.5zM153.502 409.5c-31 -31.667 -49.1689 -75.833 -54.502 -132.5h335c-1.33301 58 -15.666 102.5 -42.999 133.5s-65.666 46.5 -114.999 46.5c-50.667 0 -91.5 -15.833 -122.5 -47.5zM248 563.001l-96.002 153
c-3.33301 5.33301 -5 10 -5 14c0 6 2.33301 11.167 7 15.5s10 6.5 16 6.5c8.66699 0 15.334 -4 20.001 -12l86 -148l86 148c4.66699 8 11.334 12 20.001 12c6 0 11.333 -2.16699 16 -6.5s7 -9.5 7 -15.5c0 -4 -1.66699 -8.66699 -5 -14l-96 -153
c-8 -12.667 -17.333 -19 -28 -19s-20 6.33301 -28 19z" />
    <glyph glyph-name="Gcircumflex" unicode="&#x11c;" horiz-adv-x="716" 
d="M622.5 349.5c3.66699 -3.66699 5.49707 -8.83301 5.49707 -15.5v-279c0 -3.33301 -1.16699 -6.66602 -3.5 -9.99902s-5.16602 -6.33301 -8.49902 -9c-27.333 -13.333 -61.166 -24 -101.499 -32s-81.833 -12 -124.5 -12c-67.333 0 -125.166 14.167 -173.499 42.5
s-85.333 69.666 -111 123.999s-38.5 119.166 -38.5 194.499c0 74 12.667 138 38 192s61.833 95.5 109.5 124.5s103.834 43.5 168.501 43.5c46.667 0 90.667 -8 132 -24s75 -38 101 -66c6.66699 -8.66699 10 -16.667 10 -24c0 -5.33301 -1.33301 -9.83301 -4 -13.5
s-6.33398 -5.5 -11.001 -5.5c-5.33301 0 -11 2.66699 -17 8c-38 32 -72.333 54 -103 66s-66.667 18 -108 18c-86 0 -152.5 -27.833 -199.5 -83.5s-70.5 -134.167 -70.5 -235.5c0 -103.333 23.833 -182.666 71.5 -237.999s116.167 -83 205.5 -83
c36.667 0 72.5 3.33301 107.5 10s65.5 16 91.5 28v245h-176c-7.33301 0 -13 2 -17 6s-6 8.66699 -6 14c0 6 2 10.833 6 14.5s9.66699 5.5 17 5.5h195c6 0 10.833 -1.83301 14.5 -5.5zM273.997 760.001c-6 0 -11.002 2.16699 -15.002 6.5s-6 9.5 -6 15.5
c0 6.66699 2.33301 12.667 7 18l94 105c8.66699 9.33301 18.334 14 29.001 14c10 0 19.667 -4.66699 29 -14l94 -105c4.66699 -5.33301 7 -11.333 7 -18c0 -6 -2.16699 -11.167 -6.5 -15.5s-9.16602 -6.5 -14.499 -6.5c-6 0 -11.333 2.66699 -16 8l-93 109l-93 -109
c-4.66699 -5.33301 -10 -8 -16 -8z" />
    <glyph glyph-name="gcircumflex" unicode="&#x11d;" horiz-adv-x="569" 
d="M478 488c4 -4 6.00098 -9.33203 6.00098 -15.999v-449c0 -69.333 -16.333 -121.666 -49 -156.999s-81.334 -53 -146.001 -53c-36 0 -67.667 3.33301 -95 10s-53.666 17.667 -78.999 33c-12.667 8 -21.667 15.167 -27 21.5s-8 12.833 -8 19.5
c0 5.33301 1.66699 9.66602 5 12.999s7.66602 5 12.999 5c3.33301 0 12 -4 26 -12c23.333 -14 47.333 -25.667 72 -35s56.334 -14 95.001 -14c49.333 0 87 13.833 113 41.5s39 68.167 39 121.5v105c-14 -34.667 -35.833 -61.167 -65.5 -79.5s-65.5 -27.5 -107.5 -27.5
c-42.667 0 -80.5 10 -113.5 30s-58.667 48.333 -77 85s-27.5 78.667 -27.5 126s9.16699 89.166 27.5 125.499s44 64.5 77 84.5s70.833 30 113.5 30c41.333 0 76.666 -9 105.999 -27s51.333 -43.667 66 -77v79c0 15.333 7 23 21 23c6 0 11 -2 15 -6zM396.501 109.501
c30.333 35.667 45.5 84.5 45.5 146.5s-15.167 110.667 -45.5 146s-72.5 53 -126.5 53c-53.333 0 -95.5 -17.667 -126.5 -53s-46.5 -84 -46.5 -146c0 -62.667 15.5 -111.667 46.5 -147s73.167 -53 126.5 -53c54 0 96.167 17.833 126.5 53.5zM180.001 545.001
c-6 0 -11.165 2.16699 -15.498 6.5s-6.5 9.5 -6.5 15.5c0 4 1.66699 8.66699 5 14l96 153c8 12.667 17.333 19 28 19s20 -6.33301 28 -19l96 -153c3.33301 -5.33301 5 -10.333 5 -15c0 -6 -2.33301 -11.167 -7 -15.5s-9.66699 -6.5 -15 -6.5
c-8.66699 0 -15.334 4.33301 -20.001 13l-87 148l-87 -148c-4.66699 -8 -11.334 -12 -20.001 -12z" />
    <glyph glyph-name="Gbreve" unicode="&#x11e;" horiz-adv-x="716" 
d="M622.5 349.5c3.66699 -3.66699 5.49707 -8.83301 5.49707 -15.5v-279c0 -3.33301 -1.16699 -6.66602 -3.5 -9.99902s-5.16602 -6.33301 -8.49902 -9c-27.333 -13.333 -61.166 -24 -101.499 -32s-81.833 -12 -124.5 -12c-67.333 0 -125.166 14.167 -173.499 42.5
s-85.333 69.666 -111 123.999s-38.5 119.166 -38.5 194.499c0 74 12.667 138 38 192s61.833 95.5 109.5 124.5s103.834 43.5 168.501 43.5c46.667 0 90.667 -8 132 -24s75 -38 101 -66c6.66699 -8.66699 10 -16.667 10 -24c0 -5.33301 -1.33301 -9.83301 -4 -13.5
s-6.33398 -5.5 -11.001 -5.5c-5.33301 0 -11 2.66699 -17 8c-38 32 -72.333 54 -103 66s-66.667 18 -108 18c-86 0 -152.5 -27.833 -199.5 -83.5s-70.5 -134.167 -70.5 -235.5c0 -103.333 23.833 -182.666 71.5 -237.999s116.167 -83 205.5 -83
c36.667 0 72.5 3.33301 107.5 10s65.5 16 91.5 28v245h-176c-7.33301 0 -13 2 -17 6s-6 8.66699 -6 14c0 6 2 10.833 6 14.5s9.66699 5.5 17 5.5h195c6 0 10.833 -1.83301 14.5 -5.5zM296.997 801.001c-25.333 14.667 -45.6621 37.334 -60.9951 68.001
c-2 5.33301 -3 9.66602 -3 12.999c0 6 2 10.833 6 14.5s9 5.5 15 5.5c10.667 0 19 -5.66699 25 -17c13.333 -23.333 28.166 -40 44.499 -50s36.166 -15 59.499 -15s43.166 5 59.499 15s31.166 26.667 44.499 50c5.33301 11.333 13.666 17 24.999 17c6 0 11 -1.83301 15 -5.5
s6 -8.5 6 -14.5c0 -3.33301 -1 -7.66602 -3 -12.999c-14.667 -30.667 -34.667 -53.334 -60 -68.001s-54.333 -22 -87 -22c-32 0 -60.667 7.33301 -86 22z" />
    <glyph glyph-name="gbreve" unicode="&#x11f;" horiz-adv-x="569" 
d="M478 488c4 -4 6.00098 -9.33203 6.00098 -15.999v-449c0 -69.333 -16.333 -121.666 -49 -156.999s-81.334 -53 -146.001 -53c-36 0 -67.667 3.33301 -95 10s-53.666 17.667 -78.999 33c-12.667 8 -21.667 15.167 -27 21.5s-8 12.833 -8 19.5
c0 5.33301 1.66699 9.66602 5 12.999s7.66602 5 12.999 5c3.33301 0 12 -4 26 -12c23.333 -14 47.333 -25.667 72 -35s56.334 -14 95.001 -14c49.333 0 87 13.833 113 41.5s39 68.167 39 121.5v105c-14 -34.667 -35.833 -61.167 -65.5 -79.5s-65.5 -27.5 -107.5 -27.5
c-42.667 0 -80.5 10 -113.5 30s-58.667 48.333 -77 85s-27.5 78.667 -27.5 126s9.16699 89.166 27.5 125.499s44 64.5 77 84.5s70.833 30 113.5 30c41.333 0 76.666 -9 105.999 -27s51.333 -43.667 66 -77v79c0 15.333 7 23 21 23c6 0 11 -2 15 -6zM396.501 109.501
c30.333 35.667 45.5 84.5 45.5 146.5s-15.167 110.667 -45.5 146s-72.5 53 -126.5 53c-53.333 0 -95.5 -17.667 -126.5 -53s-46.5 -84 -46.5 -146c0 -62.667 15.5 -111.667 46.5 -147s73.167 -53 126.5 -53c54 0 96.167 17.833 126.5 53.5zM201.001 608.001
c-25.333 16 -44.998 39.667 -58.998 71c-2 5.33301 -3 10 -3 14c0 6.66699 2 12.167 6 16.5s9 6.5 15 6.5c12 0 21 -6.66699 27 -20c21.333 -48 54.666 -72 99.999 -72s78.666 24 99.999 72c2.66699 6.66699 6.5 11.667 11.5 15s9.83301 5 14.5 5
c6 0 11.167 -2.16699 15.5 -6.5s6.5 -9.83301 6.5 -16.5c0 -4 -1 -8.66699 -3 -14c-12.667 -30.667 -32 -54.167 -58 -70.5s-55 -24.5 -87 -24.5s-60.667 8 -86 24z" />
    <glyph glyph-name="Gdotaccent" unicode="&#x120;" horiz-adv-x="716" 
d="M622.5 349.5c3.66699 -3.66699 5.49707 -8.83301 5.49707 -15.5v-279c0 -3.33301 -1.16699 -6.66602 -3.5 -9.99902s-5.16602 -6.33301 -8.49902 -9c-27.333 -13.333 -61.166 -24 -101.499 -32s-81.833 -12 -124.5 -12c-67.333 0 -125.166 14.167 -173.499 42.5
s-85.333 69.666 -111 123.999s-38.5 119.166 -38.5 194.499c0 74 12.667 138 38 192s61.833 95.5 109.5 124.5s103.834 43.5 168.501 43.5c46.667 0 90.667 -8 132 -24s75 -38 101 -66c6.66699 -8.66699 10 -16.667 10 -24c0 -5.33301 -1.33301 -9.83301 -4 -13.5
s-6.33398 -5.5 -11.001 -5.5c-5.33301 0 -11 2.66699 -17 8c-38 32 -72.333 54 -103 66s-66.667 18 -108 18c-86 0 -152.5 -27.833 -199.5 -83.5s-70.5 -134.167 -70.5 -235.5c0 -103.333 23.833 -182.666 71.5 -237.999s116.167 -83 205.5 -83
c36.667 0 72.5 3.33301 107.5 10s65.5 16 91.5 28v245h-176c-7.33301 0 -13 2 -17 6s-6 8.66699 -6 14c0 6 2 10.833 6 14.5s9.66699 5.5 17 5.5h195c6 0 10.833 -1.83301 14.5 -5.5zM356.497 814.001c-7 6.66699 -10.5 15.667 -10.5 27c0 10.667 3.66699 19.334 11 26.001
s16 10 26 10c10.667 0 19.5 -3.33301 26.5 -10s10.5 -15.334 10.5 -26.001c0 -11.333 -3.5 -20.333 -10.5 -27s-15.833 -10 -26.5 -10s-19.5 3.33301 -26.5 10z" />
    <glyph glyph-name="gdotaccent" unicode="&#x121;" horiz-adv-x="569" 
d="M478 488c4 -4 6.00098 -9.33203 6.00098 -15.999v-449c0 -69.333 -16.333 -121.666 -49 -156.999s-81.334 -53 -146.001 -53c-36 0 -67.667 3.33301 -95 10s-53.666 17.667 -78.999 33c-12.667 8 -21.667 15.167 -27 21.5s-8 12.833 -8 19.5
c0 5.33301 1.66699 9.66602 5 12.999s7.66602 5 12.999 5c3.33301 0 12 -4 26 -12c23.333 -14 47.333 -25.667 72 -35s56.334 -14 95.001 -14c49.333 0 87 13.833 113 41.5s39 68.167 39 121.5v105c-14 -34.667 -35.833 -61.167 -65.5 -79.5s-65.5 -27.5 -107.5 -27.5
c-42.667 0 -80.5 10 -113.5 30s-58.667 48.333 -77 85s-27.5 78.667 -27.5 126s9.16699 89.166 27.5 125.499s44 64.5 77 84.5s70.833 30 113.5 30c41.333 0 76.666 -9 105.999 -27s51.333 -43.667 66 -77v79c0 15.333 7 23 21 23c6 0 11 -2 15 -6zM396.501 109.501
c30.333 35.667 45.5 84.5 45.5 146.5s-15.167 110.667 -45.5 146s-72.5 53 -126.5 53c-53.333 0 -95.5 -17.667 -126.5 -53s-46.5 -84 -46.5 -146c0 -62.667 15.5 -111.667 46.5 -147s73.167 -53 126.5 -53c54 0 96.167 17.833 126.5 53.5zM261.001 624.001
c-7.33301 6.66699 -11 15.334 -11 26.001c0 11.333 3.5 20.333 10.5 27s15.833 10 26.5 10s19.5 -3.33301 26.5 -10s10.5 -15.667 10.5 -27c0 -10.667 -3.66699 -19.334 -11 -26.001s-16 -10 -26 -10s-18.667 3.33301 -26 10z" />
    <glyph glyph-name="Gcommaaccent" unicode="&#x122;" horiz-adv-x="716" 
d="M622.5 349.5c3.66699 -3.66699 5.49707 -8.83301 5.49707 -15.5v-279c0 -3.33301 -1.16699 -6.66602 -3.5 -9.99902s-5.16602 -6.33301 -8.49902 -9c-27.333 -13.333 -61.166 -24 -101.499 -32s-81.833 -12 -124.5 -12c-67.333 0 -125.166 14.167 -173.499 42.5
s-85.333 69.666 -111 123.999s-38.5 119.166 -38.5 194.499c0 74 12.667 138 38 192s61.833 95.5 109.5 124.5s103.834 43.5 168.501 43.5c46.667 0 90.667 -8 132 -24s75 -38 101 -66c6.66699 -8.66699 10 -16.667 10 -24c0 -5.33301 -1.33301 -9.83301 -4 -13.5
s-6.33398 -5.5 -11.001 -5.5c-5.33301 0 -11 2.66699 -17 8c-38 32 -72.333 54 -103 66s-66.667 18 -108 18c-86 0 -152.5 -27.833 -199.5 -83.5s-70.5 -134.167 -70.5 -235.5c0 -103.333 23.833 -182.666 71.5 -237.999s116.167 -83 205.5 -83
c36.667 0 72.5 3.33301 107.5 10s65.5 16 91.5 28v245h-176c-7.33301 0 -13 2 -17 6s-6 8.66699 -6 14c0 6 2 10.833 6 14.5s9.66699 5.5 17 5.5h195c6 0 10.833 -1.83301 14.5 -5.5zM432.997 -125.999c0 -42.667 -15 -80.334 -45 -113.001c-5.33301 -6 -11.333 -9 -18 -9
c-4.66699 0 -8.5 1.33301 -11.5 4s-4.5 6.33398 -4.5 11.001c0 5.33301 2.33301 10.666 7 15.999c19.333 23.333 30 47 32 71c-10.667 0.666992 -19.667 4.5 -27 11.5s-11 16.167 -11 27.5c0 10.667 3.16699 19.334 9.5 26.001s14.833 10 25.5 10
c28.667 0 43 -18.333 43 -55z" />
    <glyph glyph-name="gcommaaccent" unicode="&#x123;" horiz-adv-x="569" 
d="M478 488c4 -4 6.00098 -9.33203 6.00098 -15.999v-449c0 -69.333 -16.333 -121.666 -49 -156.999s-81.334 -53 -146.001 -53c-36 0 -67.667 3.33301 -95 10s-53.666 17.667 -78.999 33c-12.667 8 -21.667 15.167 -27 21.5s-8 12.833 -8 19.5
c0 5.33301 1.66699 9.66602 5 12.999s7.66602 5 12.999 5c3.33301 0 12 -4 26 -12c23.333 -14 47.333 -25.667 72 -35s56.334 -14 95.001 -14c49.333 0 87 13.833 113 41.5s39 68.167 39 121.5v105c-14 -34.667 -35.833 -61.167 -65.5 -79.5s-65.5 -27.5 -107.5 -27.5
c-42.667 0 -80.5 10 -113.5 30s-58.667 48.333 -77 85s-27.5 78.667 -27.5 126s9.16699 89.166 27.5 125.499s44 64.5 77 84.5s70.833 30 113.5 30c41.333 0 76.666 -9 105.999 -27s51.333 -43.667 66 -77v79c0 15.333 7 23 21 23c6 0 11 -2 15 -6zM396.501 109.501
c30.333 35.667 45.5 84.5 45.5 146.5s-15.167 110.667 -45.5 146s-72.5 53 -126.5 53c-53.333 0 -95.5 -17.667 -126.5 -53s-46.5 -84 -46.5 -146c0 -62.667 15.5 -111.667 46.5 -147s73.167 -53 126.5 -53c54 0 96.167 17.833 126.5 53.5zM311.501 637.001
c7 -6.66699 10.5 -15.999 10.5 -27.999c0 -10.667 -3.16699 -19.334 -9.5 -26.001s-14.833 -10 -25.5 -10c-28.667 0 -43 18.667 -43 56c0 42 15 79.667 45 113c6 6 12 9 18 9c4.66699 0 8.5 -1.5 11.5 -4.5s4.5 -6.83301 4.5 -11.5c0 -5.33301 -2.33301 -10.666 -7 -15.999
c-19.333 -23.333 -30 -47 -32 -71c11.333 -0.666992 20.5 -4.33398 27.5 -11.001z" />
    <glyph glyph-name="Hcircumflex" unicode="&#x124;" horiz-adv-x="751" 
d="M138 377h474v-38h-474v-321c0 -6.66699 -1.83301 -12.167 -5.5 -16.5s-8.83398 -6.5 -15.501 -6.5s-11.834 2.16699 -15.501 6.5s-5.5 9.83301 -5.5 16.5v669c0 6.66699 1.83301 12.167 5.5 16.5s8.83398 6.5 15.501 6.5s11.834 -2.16699 15.501 -6.5
s5.5 -9.83301 5.5 -16.5v-310zM649.5 703.5c3.66699 -4.33301 5.5 -9.83301 5.5 -16.5v-669c0 -6.66699 -1.83301 -12.167 -5.5 -16.5s-8.83398 -6.5 -15.501 -6.5s-11.834 2.16699 -15.501 6.5s-5.5 9.83301 -5.5 16.5v669c0 6.66699 1.83301 12.167 5.5 16.5
s8.83398 6.5 15.501 6.5s11.834 -2.16699 15.501 -6.5zM266 760c-6 0 -11.002 2.16699 -15.002 6.5s-6 9.5 -6 15.5c0 6.66699 2.33301 12.667 7 18l94 105c8.66699 9.33301 18.334 14 29.001 14c10 0 19.667 -4.66699 29 -14l94 -105c4.66699 -5.33301 7 -11.333 7 -18
c0 -6 -2.16699 -11.167 -6.5 -15.5s-9.16602 -6.5 -14.499 -6.5c-6 0 -11.333 2.66699 -16 8l-93 109l-93 -109c-4.66699 -5.33301 -10 -8 -16 -8z" />
    <glyph glyph-name="hcircumflex" unicode="&#x125;" horiz-adv-x="553" 
d="M425.5 449.5c29.667 -31 44.501 -76.832 44.501 -137.499v-294c0 -7.33301 -1.83301 -13 -5.5 -17s-8.83398 -6 -15.501 -6s-11.834 2 -15.501 6s-5.5 9.66699 -5.5 17v289c0 52 -10.333 89.833 -31 113.5s-54 35.5 -100 35.5c-51.333 0 -92.5 -15.833 -123.5 -47.5
s-46.5 -73.834 -46.5 -126.501v-264c0 -7.33301 -1.83301 -13 -5.5 -17s-8.83398 -6 -15.501 -6c-6 0 -11 2.16699 -15 6.5s-6 9.83301 -6 16.5v669c0 7.33301 1.83301 13 5.5 17s8.83398 6 15.501 6s11.834 -2 15.501 -6s5.5 -9.66699 5.5 -17v-288
c14.667 31.333 36.667 55.333 66 72s63 25 101 25c58 0 101.833 -15.5 131.5 -46.5zM-2.99902 760.001c-6 0 -11.002 2.16699 -15.002 6.5s-6 9.5 -6 15.5c0 6.66699 2.33301 12.667 7 18l94 105c8.66699 9.33301 18.334 14 29.001 14c10 0 19.667 -4.66699 29 -14l94 -105
c4.66699 -5.33301 7 -11.333 7 -18c0 -6 -2.16699 -11.167 -6.5 -15.5s-9.16602 -6.5 -14.499 -6.5c-6 0 -11.333 2.66699 -16 8l-93 109l-93 -109c-4.66699 -5.33301 -10 -8 -16 -8z" />
    <glyph glyph-name="Hbar" unicode="&#x126;" horiz-adv-x="759" 
d="M759 546c0 -12.667 -5.66699 -19 -17 -19h-83v-509c0 -6.66699 -1.83301 -12.167 -5.5 -16.5s-8.83398 -6.5 -15.501 -6.5s-11.834 2.16699 -15.501 6.5s-5.5 9.83301 -5.5 16.5v509h-475v-150h474v-38h-474v-321c0 -6.66699 -1.83301 -12.167 -5.5 -16.5
s-8.83398 -6.5 -15.501 -6.5s-11.834 2.16699 -15.501 6.5s-5.5 9.83301 -5.5 16.5v509h-81c-5.33301 0 -9.83301 1.66699 -13.5 5s-5.5 8 -5.5 14s1.83301 10.667 5.5 14s8.16699 5 13.5 5h81v122c0 6.66699 1.83301 12.167 5.5 16.5s8.83398 6.5 15.501 6.5
s11.834 -2.16699 15.501 -6.5s5.5 -9.83301 5.5 -16.5v-122h475v122c0 6.66699 1.83301 12.167 5.5 16.5s8.83398 6.5 15.501 6.5s11.834 -2.16699 15.501 -6.5s5.5 -9.83301 5.5 -16.5v-122h83c11.333 0 17 -6.33301 17 -19z" />
    <glyph glyph-name="hbar" unicode="&#x127;" horiz-adv-x="553" 
d="M425.5 449.5c29.667 -31 44.501 -76.832 44.501 -137.499v-294c0 -7.33301 -1.83301 -13 -5.5 -17s-8.83398 -6 -15.501 -6s-11.834 2 -15.501 6s-5.5 9.66699 -5.5 17v289c0 52 -10.333 89.833 -31 113.5s-54 35.5 -100 35.5c-51.333 0 -92.5 -15.833 -123.5 -47.5
s-46.5 -73.834 -46.5 -126.501v-264c0 -7.33301 -1.83301 -13 -5.5 -17s-8.83398 -6 -15.501 -6c-6 0 -11 2.16699 -15 6.5s-6 9.83301 -6 16.5v549h-82c-5.33301 0 -9.66602 1.66699 -12.999 5s-5 7.66602 -5 12.999s1.66699 9.83301 5 13.5s7.66602 5.5 12.999 5.5h82v83
c0 7.33301 1.83301 13 5.5 17s8.83398 6 15.501 6s11.834 -2 15.501 -6s5.5 -9.66699 5.5 -17v-83h182c5.33301 0 9.66602 -1.83301 12.999 -5.5s5 -8.16699 5 -13.5s-1.66699 -9.66602 -5 -12.999s-7.66602 -5 -12.999 -5h-182v-168c14.667 31.333 36.667 55.333 66 72
s63 25 101 25c58 0 101.833 -15.5 131.5 -46.5z" />
    <glyph glyph-name="Itilde" unicode="&#x128;" horiz-adv-x="233" 
d="M101.5 1.5c-3.66699 4.33301 -5.5 9.83301 -5.5 16.5v669c0 6.66699 1.83301 12.167 5.5 16.5s8.83398 6.5 15.501 6.5c6 0 10.833 -2.16699 14.5 -6.5s5.5 -9.83301 5.5 -16.5v-669c0 -6.66699 -1.83301 -12.167 -5.5 -16.5s-8.5 -6.5 -14.5 -6.5
c-6.66699 0 -11.834 2.16699 -15.501 6.5zM149.5 803c-12.333 4.66699 -27.168 11.335 -44.501 20.002c-26.667 14 -45.334 21 -56.001 21c-13.333 0 -23.5 -2.83301 -30.5 -8.5s-13.833 -13.5 -20.5 -23.5c-6 -9.33301 -11 -14 -15 -14
c-4.66699 0 -8.66699 1.83301 -12 5.5s-5 7.83398 -5 12.501c0 10 3.33301 20.667 10 32s16.334 20.666 29.001 27.999s27.334 11 44.001 11c11.333 0 23.166 -2.33301 35.499 -7s27.166 -11.334 44.499 -20.001c26.667 -14 45.334 -21 56.001 -21
c13.333 0 23.5 2.66699 30.5 8s13.833 13 20.5 23c6 9.33301 11 14 15 14c4.66699 0 8.66699 -1.83301 12 -5.5s5 -7.83398 5 -12.501c0 -16.667 -7.66699 -32.5 -23 -47.5s-35.333 -22.5 -60 -22.5c-11.333 0 -23.166 2.33301 -35.499 7z" />
    <glyph glyph-name="itilde" unicode="&#x129;" horiz-adv-x="212" 
d="M90.5 1c-3.66699 4 -5.5 9.66699 -5.5 17v454c0 6.66699 1.83301 12 5.5 16s8.83398 6 15.501 6s11.834 -2 15.501 -6s5.5 -9.33301 5.5 -16v-454c0 -7.33301 -1.83301 -13 -5.5 -17s-8.83398 -6 -15.501 -6s-11.834 2 -15.501 6zM138 605.5
c-12 6.33301 -26.333 15.5 -43 27.5c-14.667 10 -26.334 17.333 -35.001 22s-16.667 7 -24 7c-12 0 -21.333 -3.5 -28 -10.5s-12.667 -16.5 -18 -28.5c-2.66699 -5.33301 -5.5 -10 -8.5 -14s-6.16699 -6 -9.5 -6c-4.66699 0 -8.66699 1.83301 -12 5.5s-5 7.83398 -5 12.501
c0 10.667 3.5 22.667 10.5 36s16.667 24.833 29 34.5s26.833 14.5 43.5 14.5c12 0 24 -3.16699 36 -9.5s26.333 -15.5 43 -27.5c14.667 -10 26.334 -17.333 35.001 -22s16.667 -7 24 -7c12 0 21.333 3.5 28 10.5s12.667 16.5 18 28.5c2.66699 5.33301 5.5 10 8.5 14
s6.16699 6 9.5 6c4.66699 0 8.66699 -1.83301 12 -5.5s5 -7.83398 5 -12.501c0 -10.667 -3.5 -22.667 -10.5 -36s-16.667 -24.833 -29 -34.5s-26.833 -14.5 -43.5 -14.5c-12 0 -24 3.16699 -36 9.5z" />
    <glyph glyph-name="Imacron" unicode="&#x12a;" horiz-adv-x="233" 
d="M101.5 1.5c-3.66699 4.33301 -5.5 9.83301 -5.5 16.5v669c0 6.66699 1.83301 12.167 5.5 16.5s8.83398 6.5 15.501 6.5c6 0 10.833 -2.16699 14.5 -6.5s5.5 -9.83301 5.5 -16.5v-669c0 -6.66699 -1.83301 -12.167 -5.5 -16.5s-8.5 -6.5 -14.5 -6.5
c-6.66699 0 -11.834 2.16699 -15.501 6.5zM-25 825.5c-5.33301 3.66699 -8 8.83398 -8 15.501c0 14 9.66699 21 29 21h242c19.333 0 29 -7 29 -21c0 -6.66699 -2.66699 -11.834 -8 -15.501s-12.333 -5.5 -21 -5.5h-242c-8.66699 0 -15.667 1.83301 -21 5.5z" />
    <glyph glyph-name="imacron" unicode="&#x12b;" horiz-adv-x="212" 
d="M90.5 1c-3.66699 4 -5.5 9.66699 -5.5 17v454c0 6.66699 1.83301 12 5.5 16s8.83398 6 15.501 6s11.834 -2 15.501 -6s5.5 -9.33301 5.5 -16v-454c0 -7.33301 -1.83301 -13 -5.5 -17s-8.83398 -6 -15.501 -6s-11.834 2 -15.501 6zM-36 634.5
c-5.33301 3.66699 -8 8.83398 -8 15.501c0 14.667 9.66699 22 29 22h242c19.333 0 29 -7.33301 29 -22c0 -6.66699 -2.66699 -11.834 -8 -15.501s-12.333 -5.5 -21 -5.5h-242c-8.66699 0 -15.667 1.83301 -21 5.5z" />
    <glyph glyph-name="Ibreve" unicode="&#x12c;" horiz-adv-x="233" 
d="M101.5 1.5c-3.66699 4.33301 -5.5 9.83301 -5.5 16.5v669c0 6.66699 1.83301 12.167 5.5 16.5s8.83398 6.5 15.501 6.5c6 0 10.833 -2.16699 14.5 -6.5s5.5 -9.83301 5.5 -16.5v-669c0 -6.66699 -1.83301 -12.167 -5.5 -16.5s-8.5 -6.5 -14.5 -6.5
c-6.66699 0 -11.834 2.16699 -15.501 6.5zM31 801c-25.333 14.667 -45.6621 37.334 -60.9951 68.001c-2 5.33301 -3 9.66602 -3 12.999c0 6 2 10.833 6 14.5s9 5.5 15 5.5c10.667 0 19 -5.66699 25 -17c13.333 -23.333 28.166 -40 44.499 -50s36.166 -15 59.499 -15
s43.166 5 59.499 15s31.166 26.667 44.499 50c5.33301 11.333 13.666 17 24.999 17c6 0 11 -1.83301 15 -5.5s6 -8.5 6 -14.5c0 -3.33301 -1 -7.66602 -3 -12.999c-14.667 -30.667 -34.667 -53.334 -60 -68.001s-54.333 -22 -87 -22c-32 0 -60.667 7.33301 -86 22z" />
    <glyph glyph-name="ibreve" unicode="&#x12d;" horiz-adv-x="212" 
d="M90.5 1c-3.66699 4 -5.5 9.66699 -5.5 17v454c0 6.66699 1.83301 12 5.5 16s8.83398 6 15.501 6s11.834 -2 15.501 -6s5.5 -9.33301 5.5 -16v-454c0 -7.33301 -1.83301 -13 -5.5 -17s-8.83398 -6 -15.501 -6s-11.834 2 -15.501 6zM20 608
c-25.333 16 -44.998 39.667 -58.998 71c-2 5.33301 -3 10 -3 14c0 6.66699 2 12.167 6 16.5s9 6.5 15 6.5c12 0 21 -6.66699 27 -20c21.333 -48 54.666 -72 99.999 -72s78.666 24 99.999 72c2.66699 6.66699 6.5 11.667 11.5 15s9.83301 5 14.5 5
c6 0 11.167 -2.16699 15.5 -6.5s6.5 -9.83301 6.5 -16.5c0 -4 -1 -8.66699 -3 -14c-12.667 -30.667 -32 -54.167 -58 -70.5s-55 -24.5 -87 -24.5s-60.667 8 -86 24z" />
    <glyph glyph-name="Iogonek" unicode="&#x12e;" horiz-adv-x="233" 
d="M172 -134c4.66699 0 8.33105 -1.66699 10.998 -5s4 -7.66602 4 -12.999c0 -10 -4 -17.333 -12 -22c-18.667 -10.667 -41 -16 -67 -16c-33.333 0 -60.166 9.5 -80.499 28.5s-30.5 43.5 -30.5 73.5c0 26.667 8.5 50.5 25.5 71.5s41.5 36.5 73.5 46.5v657
c0 6.66699 1.83301 12.167 5.5 16.5s8.83398 6.5 15.501 6.5c6 0 10.833 -2.16699 14.5 -6.5s5.5 -9.83301 5.5 -16.5v-669c0 -6 -1.66699 -10.833 -5 -14.5s-7.66602 -5.83398 -12.999 -6.50098c-24.667 -3.33301 -43.834 -12.333 -57.501 -27s-20.5 -32.667 -20.5 -54
s6.33301 -38 19 -50s29.667 -18 51 -18c13.333 0 29.333 4.66699 48 14c4.66699 2.66699 9 4 13 4z" />
    <glyph glyph-name="iogonek" unicode="&#x12f;" horiz-adv-x="212" 
d="M79.5 624c-7 6.66699 -10.5 15.334 -10.5 26.001c0 11.333 3.5 20.333 10.5 27s15.833 10 26.5 10s19.5 -3.33301 26.5 -10s10.5 -15.667 10.5 -27c0 -10.667 -3.66699 -19.334 -11 -26.001s-16 -10 -26 -10c-10.667 0 -19.5 3.33301 -26.5 10zM162 -134
c4.66699 0 8.32812 -1.66602 10.9951 -4.99902s4 -7.33301 4 -12c0 -10.667 -4.33301 -18.334 -13 -23.001c-19.333 -10.667 -41.333 -16 -66 -16c-33.333 0 -60.333 9.5 -81 28.5s-31 43.5 -31 73.5c0 26.667 8.66699 50.667 26 72s41.666 37 72.999 47v441
c0 6.66699 1.83301 12 5.5 16s8.83398 6 15.501 6s11.834 -2 15.501 -6s5.5 -9.33301 5.5 -16v-453c0 -6 -1.66699 -11 -5 -15s-7.66602 -6.33301 -12.999 -7c-25.333 -3.33301 -44.666 -12.333 -57.999 -27s-20 -32.667 -20 -54s6.33301 -38 19 -50s29.334 -18 50.001 -18
c14.667 0 30.667 4.66699 48 14c4.66699 2.66699 9.33398 4 14.001 4z" />
    <glyph glyph-name="Idotaccent" unicode="&#x130;" horiz-adv-x="233" 
d="M101.5 1.5c-3.66699 4.33301 -5.5 9.83301 -5.5 16.5v669c0 6.66699 1.83301 12.167 5.5 16.5s8.83398 6.5 15.501 6.5c6 0 10.833 -2.16699 14.5 -6.5s5.5 -9.83301 5.5 -16.5v-669c0 -6.66699 -1.83301 -12.167 -5.5 -16.5s-8.5 -6.5 -14.5 -6.5
c-6.66699 0 -11.834 2.16699 -15.501 6.5zM90.5 814c-7 6.66699 -10.5 15.667 -10.5 27c0 10.667 3.66699 19.334 11 26.001s16 10 26 10c10.667 0 19.5 -3.33301 26.5 -10s10.5 -15.334 10.5 -26.001c0 -11.333 -3.5 -20.333 -10.5 -27s-15.833 -10 -26.5 -10
s-19.5 3.33301 -26.5 10z" />
    <glyph glyph-name="dotlessi" unicode="&#x131;" horiz-adv-x="212" 
d="M90.5 1c-3.66699 4 -5.5 9.66699 -5.5 17v454c0 6.66699 1.83301 12 5.5 16s8.83398 6 15.501 6s11.834 -2 15.501 -6s5.5 -9.33301 5.5 -16v-454c0 -7.33301 -1.83301 -13 -5.5 -17s-8.83398 -6 -15.501 -6s-11.834 2 -15.501 6z" />
    <glyph glyph-name="Jcircumflex" unicode="&#x134;" horiz-adv-x="297" 
d="M14 -5c-7.33301 0 -12.832 1.83008 -16.499 5.49707s-5.5 7.83398 -5.5 12.501c0 5.33301 2 9.83301 6 13.5s9.66699 5.83398 17 6.50098l28 2c40 2.66699 69.5 14.834 88.5 36.501s28.5 57.5 28.5 107.5v508c0 6 2.16699 11.333 6.5 16s9.16602 7 14.499 7
c13.333 0 20 -7.66699 20 -23v-510c0 -59.333 -12.5 -103.333 -37.5 -132s-63.5 -44.667 -115.5 -48l-29 -2h-5zM72.001 759.997c-6 0 -11.002 2.16699 -15.002 6.5s-6 9.5 -6 15.5c0 6.66699 2.33301 12.667 7 18l94 105c8.66699 9.33301 18.334 14 29.001 14
c10 0 19.667 -4.66699 29 -14l94 -105c4.66699 -5.33301 7 -11.333 7 -18c0 -6 -2.16699 -11.167 -6.5 -15.5s-9.16602 -6.5 -14.499 -6.5c-6 0 -11.333 2.66699 -16 8l-93 109l-93 -109c-4.66699 -5.33301 -10 -8 -16 -8z" />
    <glyph glyph-name="jcircumflex" unicode="&#x135;" horiz-adv-x="212" 
d="M-50 -182c-14.667 0 -22.001 6 -22.001 18c0 11.333 7.33301 17.666 22 18.999l27 2c37.333 2.66699 64.666 13.667 81.999 33s26 52 26 98v484c0 6.66699 1.83301 12 5.5 16s8.83398 6 15.501 6s11.834 -2 15.501 -6s5.5 -9.33301 5.5 -16v-484
c0 -56 -11.5 -97.167 -34.5 -123.5s-59.5 -41.166 -109.5 -44.499l-27 -2h-6zM-1.00098 545c-6 0 -11.165 2.16699 -15.498 6.5s-6.5 9.5 -6.5 15.5c0 4 1.66699 8.66699 5 14l96 153c8 12.667 17.333 19 28 19s20 -6.33301 28 -19l96 -153
c3.33301 -5.33301 5 -10.333 5 -15c0 -6 -2.33301 -11.167 -7 -15.5s-9.66699 -6.5 -15 -6.5c-8.66699 0 -15.334 4.33301 -20.001 13l-87 148l-87 -148c-4.66699 -8 -11.334 -12 -20.001 -12z" />
    <glyph glyph-name="Kcommaaccent" unicode="&#x136;" horiz-adv-x="599" 
d="M577 15c0 -5.33301 -2 -9.99902 -6 -13.999s-8.66699 -6 -14 -6c-4 0 -7.33301 1.33301 -10 4l-410 341v-322c0 -6.66699 -1.83301 -12.167 -5.5 -16.5s-8.5 -6.5 -14.5 -6.5c-6.66699 0 -11.834 2.16699 -15.501 6.5s-5.5 9.83301 -5.5 16.5v669
c0 6.66699 1.83301 12.167 5.5 16.5s8.83398 6.5 15.501 6.5c6 0 10.833 -2.16699 14.5 -6.5s5.5 -9.83301 5.5 -16.5v-313l388 330c4.66699 3.33301 9 5 13 5c5.33301 0 9.83301 -1.83301 13.5 -5.5s5.5 -8.16699 5.5 -13.5c0 -6 -2.66699 -11 -8 -15l-372 -317l391 -326
c6 -4.66699 9 -10.334 9 -17.001zM345 -125.999c0 -42.667 -15 -80.334 -45 -113.001c-5.33301 -6 -11.333 -9 -18 -9c-4.66699 0 -8.5 1.33301 -11.5 4s-4.5 6.33398 -4.5 11.001c0 5.33301 2.33301 10.666 7 15.999c19.333 23.333 30 47 32 71
c-10.667 0.666992 -19.667 4.5 -27 11.5s-11 16.167 -11 27.5c0 10.667 3.16699 19.334 9.5 26.001s14.833 10 25.5 10c28.667 0 43 -18.333 43 -55z" />
    <glyph glyph-name="kcommaaccent" unicode="&#x137;" horiz-adv-x="468" 
d="M444 13c0 -4.66699 -1.66797 -8.83301 -5.00098 -12.5s-7.66602 -5.5 -12.999 -5.5c-4.66699 0 -10 2 -16 6l-283 238v-221c0 -6.66699 -2 -12.167 -6 -16.5s-9 -6.5 -15 -6.5c-6.66699 0 -11.834 2 -15.501 6s-5.5 9.66699 -5.5 17v669c0 7.33301 1.83301 13 5.5 17
s8.83398 6 15.501 6c6 0 11 -2.16699 15 -6.5s6 -9.83301 6 -16.5v-429l260 228c5.33301 4 10.333 6 15 6c5.33301 0 10 -2 14 -6s6 -8.66699 6 -14c0 -6 -3.33301 -12 -10 -18l-234 -205l254 -215c8 -6.66699 12 -13.667 12 -21zM276.999 -125.999
c0 -42.667 -15 -80.334 -45 -113.001c-5.33301 -6 -11.333 -9 -18 -9c-4.66699 0 -8.5 1.33301 -11.5 4s-4.5 6.33398 -4.5 11.001c0 5.33301 2.33301 10.666 7 15.999c19.333 23.333 30 47 32 71c-10.667 0.666992 -19.667 4.5 -27 11.5s-11 16.167 -11 27.5
c0 10.667 3.16699 19.334 9.5 26.001s14.833 10 25.5 10c28.667 0 43 -18.333 43 -55z" />
    </font>
</defs>
</svg>
